<mxfile host="app.diagrams.net" modified="2022-01-28T01:12:06.805Z" agent="5.0 (Windows NT 10.0; Win64; x64) AppleWebKit/537.36 (KHTML, like Gecko) Chrome/97.0.4692.99 Safari/537.36" etag="5i3vOIK3QoP8LKOYt-mW" version="16.4.7" type="github">
  <diagram id="Gmkc4K7ihorxQ1UYA4IA" name="Page-1">
    <mxGraphModel dx="3694" dy="2688" grid="1" gridSize="10" guides="1" tooltips="1" connect="1" arrows="1" fold="1" page="1" pageScale="1" pageWidth="850" pageHeight="1100" math="0" shadow="0">
      <root>
        <mxCell id="0" />
        <mxCell id="1" parent="0" />
        <mxCell id="zY2GSuErmZV2rWno_78V-21" value="" style="edgeStyle=orthogonalEdgeStyle;rounded=0;orthogonalLoop=1;jettySize=auto;html=1;endArrow=none;endFill=0;" edge="1" parent="1" source="zY2GSuErmZV2rWno_78V-2" target="zY2GSuErmZV2rWno_78V-8">
          <mxGeometry relative="1" as="geometry" />
        </mxCell>
        <mxCell id="zY2GSuErmZV2rWno_78V-50" value="" style="edgeStyle=orthogonalEdgeStyle;rounded=0;orthogonalLoop=1;jettySize=auto;html=1;endArrow=none;endFill=0;" edge="1" parent="1" source="zY2GSuErmZV2rWno_78V-2" target="zY2GSuErmZV2rWno_78V-7">
          <mxGeometry relative="1" as="geometry" />
        </mxCell>
        <mxCell id="zY2GSuErmZV2rWno_78V-69" value="" style="edgeStyle=orthogonalEdgeStyle;rounded=0;orthogonalLoop=1;jettySize=auto;html=1;endArrow=none;endFill=0;startArrow=ERmandOne;startFill=0;" edge="1" parent="1" source="zY2GSuErmZV2rWno_78V-2" target="zY2GSuErmZV2rWno_78V-68">
          <mxGeometry relative="1" as="geometry">
            <Array as="points">
              <mxPoint x="780" y="170" />
              <mxPoint x="780" y="170" />
            </Array>
          </mxGeometry>
        </mxCell>
        <mxCell id="zY2GSuErmZV2rWno_78V-2" value="Departments" style="rounded=0;whiteSpace=wrap;html=1;" vertex="1" parent="1">
          <mxGeometry x="720" y="30" width="120" height="60" as="geometry" />
        </mxCell>
        <mxCell id="zY2GSuErmZV2rWno_78V-7" value="&lt;u&gt;name&lt;/u&gt;" style="ellipse;whiteSpace=wrap;html=1;" vertex="1" parent="1">
          <mxGeometry x="880" y="20" width="120" height="80" as="geometry" />
        </mxCell>
        <mxCell id="zY2GSuErmZV2rWno_78V-8" value="budget" style="ellipse;whiteSpace=wrap;html=1;" vertex="1" parent="1">
          <mxGeometry x="550" y="20" width="120" height="80" as="geometry" />
        </mxCell>
        <mxCell id="zY2GSuErmZV2rWno_78V-16" style="edgeStyle=orthogonalEdgeStyle;rounded=0;orthogonalLoop=1;jettySize=auto;html=1;entryX=0.092;entryY=0.163;entryDx=0;entryDy=0;entryPerimeter=0;endArrow=none;endFill=0;" edge="1" parent="1" source="zY2GSuErmZV2rWno_78V-11" target="zY2GSuErmZV2rWno_78V-12">
          <mxGeometry relative="1" as="geometry" />
        </mxCell>
        <mxCell id="zY2GSuErmZV2rWno_78V-17" style="edgeStyle=orthogonalEdgeStyle;rounded=0;orthogonalLoop=1;jettySize=auto;html=1;entryX=0.267;entryY=0.075;entryDx=0;entryDy=0;entryPerimeter=0;endArrow=none;endFill=0;" edge="1" parent="1" source="zY2GSuErmZV2rWno_78V-11" target="zY2GSuErmZV2rWno_78V-15">
          <mxGeometry relative="1" as="geometry" />
        </mxCell>
        <mxCell id="zY2GSuErmZV2rWno_78V-18" style="edgeStyle=orthogonalEdgeStyle;rounded=0;orthogonalLoop=1;jettySize=auto;html=1;endArrow=none;endFill=0;" edge="1" parent="1" source="zY2GSuErmZV2rWno_78V-11" target="zY2GSuErmZV2rWno_78V-13">
          <mxGeometry relative="1" as="geometry" />
        </mxCell>
        <mxCell id="zY2GSuErmZV2rWno_78V-74" value="" style="edgeStyle=orthogonalEdgeStyle;rounded=0;orthogonalLoop=1;jettySize=auto;html=1;startArrow=ERoneToMany;startFill=0;endArrow=none;endFill=0;" edge="1" parent="1" source="zY2GSuErmZV2rWno_78V-11" target="zY2GSuErmZV2rWno_78V-71">
          <mxGeometry relative="1" as="geometry" />
        </mxCell>
        <mxCell id="zY2GSuErmZV2rWno_78V-11" value="Courses" style="rounded=0;whiteSpace=wrap;html=1;" vertex="1" parent="1">
          <mxGeometry x="200" y="360" width="110" height="60" as="geometry" />
        </mxCell>
        <mxCell id="zY2GSuErmZV2rWno_78V-12" value="&lt;u&gt;ID&lt;/u&gt;" style="ellipse;whiteSpace=wrap;html=1;" vertex="1" parent="1">
          <mxGeometry x="340" y="400" width="120" height="80" as="geometry" />
        </mxCell>
        <mxCell id="zY2GSuErmZV2rWno_78V-13" value="budget" style="ellipse;whiteSpace=wrap;html=1;" vertex="1" parent="1">
          <mxGeometry x="30" y="380" width="120" height="80" as="geometry" />
        </mxCell>
        <mxCell id="zY2GSuErmZV2rWno_78V-15" value="Title" style="ellipse;whiteSpace=wrap;html=1;" vertex="1" parent="1">
          <mxGeometry x="280" y="510" width="120" height="80" as="geometry" />
        </mxCell>
        <mxCell id="zY2GSuErmZV2rWno_78V-25" value="" style="edgeStyle=orthogonalEdgeStyle;rounded=0;orthogonalLoop=1;jettySize=auto;html=1;endArrow=none;endFill=0;" edge="1" parent="1" source="zY2GSuErmZV2rWno_78V-22" target="zY2GSuErmZV2rWno_78V-24">
          <mxGeometry relative="1" as="geometry" />
        </mxCell>
        <mxCell id="zY2GSuErmZV2rWno_78V-27" value="" style="edgeStyle=orthogonalEdgeStyle;rounded=0;orthogonalLoop=1;jettySize=auto;html=1;endArrow=none;endFill=0;" edge="1" parent="1" source="zY2GSuErmZV2rWno_78V-22" target="zY2GSuErmZV2rWno_78V-26">
          <mxGeometry relative="1" as="geometry" />
        </mxCell>
        <mxCell id="zY2GSuErmZV2rWno_78V-29" value="" style="edgeStyle=orthogonalEdgeStyle;rounded=0;orthogonalLoop=1;jettySize=auto;html=1;endArrow=none;endFill=0;" edge="1" parent="1" source="zY2GSuErmZV2rWno_78V-22" target="zY2GSuErmZV2rWno_78V-28">
          <mxGeometry relative="1" as="geometry" />
        </mxCell>
        <mxCell id="zY2GSuErmZV2rWno_78V-22" value="Teachers" style="rounded=0;whiteSpace=wrap;html=1;" vertex="1" parent="1">
          <mxGeometry x="1610" y="380" width="120" height="60" as="geometry" />
        </mxCell>
        <mxCell id="zY2GSuErmZV2rWno_78V-24" value="&lt;u&gt;Teacher ID&lt;/u&gt;" style="ellipse;whiteSpace=wrap;html=1;rounded=0;" vertex="1" parent="1">
          <mxGeometry x="1610" y="520" width="120" height="60" as="geometry" />
        </mxCell>
        <mxCell id="zY2GSuErmZV2rWno_78V-26" value="name" style="ellipse;whiteSpace=wrap;html=1;rounded=0;" vertex="1" parent="1">
          <mxGeometry x="1810" y="380" width="120" height="60" as="geometry" />
        </mxCell>
        <mxCell id="zY2GSuErmZV2rWno_78V-28" value="salary" style="ellipse;whiteSpace=wrap;html=1;rounded=0;" vertex="1" parent="1">
          <mxGeometry x="1420" y="380" width="120" height="60" as="geometry" />
        </mxCell>
        <mxCell id="zY2GSuErmZV2rWno_78V-32" value="" style="edgeStyle=orthogonalEdgeStyle;rounded=0;orthogonalLoop=1;jettySize=auto;html=1;endArrow=none;endFill=0;" edge="1" parent="1" source="zY2GSuErmZV2rWno_78V-30" target="zY2GSuErmZV2rWno_78V-31">
          <mxGeometry relative="1" as="geometry" />
        </mxCell>
        <mxCell id="zY2GSuErmZV2rWno_78V-36" value="" style="edgeStyle=orthogonalEdgeStyle;rounded=0;orthogonalLoop=1;jettySize=auto;html=1;endArrow=none;endFill=0;" edge="1" parent="1" source="zY2GSuErmZV2rWno_78V-30" target="zY2GSuErmZV2rWno_78V-35">
          <mxGeometry relative="1" as="geometry" />
        </mxCell>
        <mxCell id="zY2GSuErmZV2rWno_78V-30" value="Students" style="whiteSpace=wrap;html=1;" vertex="1" parent="1">
          <mxGeometry x="710" y="370" width="120" height="60" as="geometry" />
        </mxCell>
        <mxCell id="zY2GSuErmZV2rWno_78V-31" value="&lt;u&gt;Student ID&lt;/u&gt;" style="ellipse;whiteSpace=wrap;html=1;" vertex="1" parent="1">
          <mxGeometry x="710" y="510" width="120" height="60" as="geometry" />
        </mxCell>
        <mxCell id="zY2GSuErmZV2rWno_78V-35" value="name" style="ellipse;whiteSpace=wrap;html=1;" vertex="1" parent="1">
          <mxGeometry x="890" y="370" width="120" height="60" as="geometry" />
        </mxCell>
        <mxCell id="zY2GSuErmZV2rWno_78V-48" value="" style="edgeStyle=orthogonalEdgeStyle;rounded=0;orthogonalLoop=1;jettySize=auto;html=1;endArrow=none;endFill=0;" edge="1" parent="1" source="zY2GSuErmZV2rWno_78V-37" target="zY2GSuErmZV2rWno_78V-30">
          <mxGeometry relative="1" as="geometry" />
        </mxCell>
        <mxCell id="zY2GSuErmZV2rWno_78V-37" value="&lt;u&gt;dept name&lt;/u&gt;" style="ellipse;whiteSpace=wrap;html=1;" vertex="1" parent="1">
          <mxGeometry x="540" y="370" width="120" height="60" as="geometry" />
        </mxCell>
        <mxCell id="zY2GSuErmZV2rWno_78V-39" value="" style="edgeStyle=orthogonalEdgeStyle;rounded=0;orthogonalLoop=1;jettySize=auto;html=1;endArrow=none;endFill=0;" edge="1" parent="1">
          <mxGeometry relative="1" as="geometry">
            <mxPoint x="830" y="420" as="sourcePoint" />
            <mxPoint x="911" y="540" as="targetPoint" />
            <Array as="points">
              <mxPoint x="830" y="450" />
              <mxPoint x="911" y="450" />
            </Array>
          </mxGeometry>
        </mxCell>
        <mxCell id="zY2GSuErmZV2rWno_78V-40" value="Instructor" style="ellipse;whiteSpace=wrap;html=1;" vertex="1" parent="1">
          <mxGeometry x="860" y="540" width="120" height="60" as="geometry" />
        </mxCell>
        <mxCell id="zY2GSuErmZV2rWno_78V-41" value="total credits" style="ellipse;whiteSpace=wrap;html=1;" vertex="1" parent="1">
          <mxGeometry x="570" y="480" width="120" height="40" as="geometry" />
        </mxCell>
        <mxCell id="zY2GSuErmZV2rWno_78V-44" value="" style="endArrow=none;html=1;rounded=0;endFill=0;" edge="1" parent="1">
          <mxGeometry width="50" height="50" relative="1" as="geometry">
            <mxPoint x="660" y="480" as="sourcePoint" />
            <mxPoint x="710" y="430" as="targetPoint" />
          </mxGeometry>
        </mxCell>
        <mxCell id="zY2GSuErmZV2rWno_78V-53" value="" style="edgeStyle=orthogonalEdgeStyle;rounded=0;orthogonalLoop=1;jettySize=auto;html=1;endArrow=none;endFill=0;" edge="1" parent="1" source="zY2GSuErmZV2rWno_78V-51" target="zY2GSuErmZV2rWno_78V-52">
          <mxGeometry relative="1" as="geometry" />
        </mxCell>
        <mxCell id="zY2GSuErmZV2rWno_78V-57" value="" style="edgeStyle=orthogonalEdgeStyle;rounded=0;orthogonalLoop=1;jettySize=auto;html=1;endArrow=none;endFill=0;" edge="1" parent="1" source="zY2GSuErmZV2rWno_78V-51" target="zY2GSuErmZV2rWno_78V-56">
          <mxGeometry relative="1" as="geometry" />
        </mxCell>
        <mxCell id="zY2GSuErmZV2rWno_78V-59" value="" style="edgeStyle=orthogonalEdgeStyle;rounded=0;orthogonalLoop=1;jettySize=auto;html=1;endArrow=none;endFill=0;" edge="1" parent="1" source="zY2GSuErmZV2rWno_78V-51" target="zY2GSuErmZV2rWno_78V-58">
          <mxGeometry relative="1" as="geometry" />
        </mxCell>
        <mxCell id="zY2GSuErmZV2rWno_78V-51" value="Classrooms" style="rounded=0;whiteSpace=wrap;html=1;" vertex="1" parent="1">
          <mxGeometry x="180" y="960" width="120" height="60" as="geometry" />
        </mxCell>
        <mxCell id="zY2GSuErmZV2rWno_78V-52" value="room capacity" style="ellipse;whiteSpace=wrap;html=1;rounded=0;" vertex="1" parent="1">
          <mxGeometry x="380" y="960" width="120" height="60" as="geometry" />
        </mxCell>
        <mxCell id="zY2GSuErmZV2rWno_78V-56" value="&lt;u&gt;room number&lt;/u&gt;" style="ellipse;whiteSpace=wrap;html=1;rounded=0;" vertex="1" parent="1">
          <mxGeometry x="-20" y="960" width="120" height="60" as="geometry" />
        </mxCell>
        <mxCell id="zY2GSuErmZV2rWno_78V-58" value="&lt;u&gt;Building&lt;/u&gt;" style="ellipse;whiteSpace=wrap;html=1;rounded=0;" vertex="1" parent="1">
          <mxGeometry x="180" y="860" width="120" height="60" as="geometry" />
        </mxCell>
        <mxCell id="zY2GSuErmZV2rWno_78V-63" value="" style="edgeStyle=orthogonalEdgeStyle;rounded=0;orthogonalLoop=1;jettySize=auto;html=1;endArrow=none;endFill=0;" edge="1" parent="1" source="zY2GSuErmZV2rWno_78V-61" target="zY2GSuErmZV2rWno_78V-62">
          <mxGeometry relative="1" as="geometry" />
        </mxCell>
        <mxCell id="zY2GSuErmZV2rWno_78V-65" value="" style="edgeStyle=orthogonalEdgeStyle;rounded=0;orthogonalLoop=1;jettySize=auto;html=1;endArrow=none;endFill=0;" edge="1" parent="1" source="zY2GSuErmZV2rWno_78V-61" target="zY2GSuErmZV2rWno_78V-64">
          <mxGeometry relative="1" as="geometry" />
        </mxCell>
        <mxCell id="zY2GSuErmZV2rWno_78V-67" value="" style="edgeStyle=orthogonalEdgeStyle;rounded=0;orthogonalLoop=1;jettySize=auto;html=1;endArrow=none;endFill=0;" edge="1" parent="1" source="zY2GSuErmZV2rWno_78V-61" target="zY2GSuErmZV2rWno_78V-66">
          <mxGeometry relative="1" as="geometry" />
        </mxCell>
        <mxCell id="zY2GSuErmZV2rWno_78V-61" value="Sections" style="shape=process;whiteSpace=wrap;html=1;backgroundOutline=1;" vertex="1" parent="1">
          <mxGeometry x="980" y="870" width="120" height="60" as="geometry" />
        </mxCell>
        <mxCell id="zY2GSuErmZV2rWno_78V-62" value="&lt;u&gt;Section ID&lt;/u&gt;" style="ellipse;whiteSpace=wrap;html=1;" vertex="1" parent="1">
          <mxGeometry x="1180" y="870" width="120" height="60" as="geometry" />
        </mxCell>
        <mxCell id="zY2GSuErmZV2rWno_78V-64" value="year" style="ellipse;whiteSpace=wrap;html=1;" vertex="1" parent="1">
          <mxGeometry x="980" y="1010" width="120" height="60" as="geometry" />
        </mxCell>
        <mxCell id="zY2GSuErmZV2rWno_78V-66" value="semester" style="ellipse;whiteSpace=wrap;html=1;" vertex="1" parent="1">
          <mxGeometry x="810" y="920" width="120" height="60" as="geometry" />
        </mxCell>
        <mxCell id="zY2GSuErmZV2rWno_78V-70" value="" style="edgeStyle=orthogonalEdgeStyle;rounded=0;orthogonalLoop=1;jettySize=auto;html=1;startArrow=none;startFill=0;endArrow=ERzeroToMany;endFill=0;" edge="1" parent="1" source="zY2GSuErmZV2rWno_78V-68" target="zY2GSuErmZV2rWno_78V-30">
          <mxGeometry relative="1" as="geometry">
            <Array as="points">
              <mxPoint x="775" y="340" />
              <mxPoint x="775" y="340" />
            </Array>
          </mxGeometry>
        </mxCell>
        <mxCell id="zY2GSuErmZV2rWno_78V-68" value="D-S" style="rhombus;whiteSpace=wrap;html=1;" vertex="1" parent="1">
          <mxGeometry x="700" y="190" width="150" height="80" as="geometry" />
        </mxCell>
        <mxCell id="zY2GSuErmZV2rWno_78V-71" value="D-C" style="rhombus;whiteSpace=wrap;html=1;" vertex="1" parent="1">
          <mxGeometry x="290" y="170" width="150" height="80" as="geometry" />
        </mxCell>
        <mxCell id="zY2GSuErmZV2rWno_78V-72" value="D-T" style="rhombus;whiteSpace=wrap;html=1;" vertex="1" parent="1">
          <mxGeometry x="1490" y="180" width="150" height="80" as="geometry" />
        </mxCell>
        <mxCell id="zY2GSuErmZV2rWno_78V-73" value="" style="endArrow=ERmandOne;html=1;rounded=0;exitX=0.86;exitY=0.338;exitDx=0;exitDy=0;exitPerimeter=0;entryX=0;entryY=1;entryDx=0;entryDy=0;endFill=0;" edge="1" parent="1" source="zY2GSuErmZV2rWno_78V-71" target="zY2GSuErmZV2rWno_78V-2">
          <mxGeometry width="50" height="50" relative="1" as="geometry">
            <mxPoint x="550" y="220" as="sourcePoint" />
            <mxPoint x="600" y="170" as="targetPoint" />
          </mxGeometry>
        </mxCell>
        <mxCell id="zY2GSuErmZV2rWno_78V-75" value="" style="endArrow=ERmandOne;html=1;rounded=0;exitX=0.127;exitY=0.388;exitDx=0;exitDy=0;exitPerimeter=0;entryX=0.825;entryY=0.983;entryDx=0;entryDy=0;entryPerimeter=0;endFill=0;" edge="1" parent="1" source="zY2GSuErmZV2rWno_78V-72" target="zY2GSuErmZV2rWno_78V-2">
          <mxGeometry width="50" height="50" relative="1" as="geometry">
            <mxPoint x="790" y="330" as="sourcePoint" />
            <mxPoint x="840" y="280" as="targetPoint" />
            <Array as="points">
              <mxPoint x="880" y="110" />
            </Array>
          </mxGeometry>
        </mxCell>
        <mxCell id="zY2GSuErmZV2rWno_78V-76" value="" style="endArrow=ERoneToMany;html=1;rounded=0;entryX=0.333;entryY=0;entryDx=0;entryDy=0;entryPerimeter=0;endFill=0;" edge="1" parent="1" source="zY2GSuErmZV2rWno_78V-72" target="zY2GSuErmZV2rWno_78V-22">
          <mxGeometry width="50" height="50" relative="1" as="geometry">
            <mxPoint x="1170" y="330" as="sourcePoint" />
            <mxPoint x="1220" y="280" as="targetPoint" />
          </mxGeometry>
        </mxCell>
        <mxCell id="zY2GSuErmZV2rWno_78V-77" value="" style="rhombus;whiteSpace=wrap;html=1;" vertex="1" parent="1">
          <mxGeometry x="510" y="670" width="180" height="80" as="geometry" />
        </mxCell>
        <mxCell id="zY2GSuErmZV2rWno_78V-78" value="C-S" style="rhombus;whiteSpace=wrap;html=1;" vertex="1" parent="1">
          <mxGeometry x="530" y="680" width="140" height="60" as="geometry" />
        </mxCell>
        <mxCell id="zY2GSuErmZV2rWno_78V-79" value="" style="endArrow=none;html=1;rounded=0;startArrow=ERmandOne;startFill=0;exitX=0.918;exitY=1.1;exitDx=0;exitDy=0;entryX=0;entryY=0;entryDx=0;entryDy=0;exitPerimeter=0;" edge="1" parent="1" source="zY2GSuErmZV2rWno_78V-11" target="zY2GSuErmZV2rWno_78V-77">
          <mxGeometry width="50" height="50" relative="1" as="geometry">
            <mxPoint x="540" y="700" as="sourcePoint" />
            <mxPoint x="360" y="720" as="targetPoint" />
          </mxGeometry>
        </mxCell>
        <mxCell id="zY2GSuErmZV2rWno_78V-80" value="" style="endArrow=none;html=1;rounded=0;startArrow=ERoneToMany;startFill=0;" edge="1" parent="1" target="zY2GSuErmZV2rWno_78V-77">
          <mxGeometry width="50" height="50" relative="1" as="geometry">
            <mxPoint x="1029.02" y="870" as="sourcePoint" />
            <mxPoint x="790" y="601.02" as="targetPoint" />
          </mxGeometry>
        </mxCell>
        <mxCell id="zY2GSuErmZV2rWno_78V-81" value="S-T" style="rhombus;whiteSpace=wrap;html=1;" vertex="1" parent="1">
          <mxGeometry x="1140" y="210" width="190" height="80" as="geometry" />
        </mxCell>
        <mxCell id="zY2GSuErmZV2rWno_78V-82" value="" style="endArrow=ERzeroToMany;html=1;rounded=0;exitX=1;exitY=0.5;exitDx=0;exitDy=0;endFill=0;entryX=0;entryY=0;entryDx=0;entryDy=0;" edge="1" parent="1" source="zY2GSuErmZV2rWno_78V-81" target="zY2GSuErmZV2rWno_78V-22">
          <mxGeometry width="50" height="50" relative="1" as="geometry">
            <mxPoint x="1270" y="430" as="sourcePoint" />
            <mxPoint x="1540" y="370" as="targetPoint" />
          </mxGeometry>
        </mxCell>
        <mxCell id="zY2GSuErmZV2rWno_78V-83" value="" style="endArrow=none;html=1;rounded=0;startArrow=ERzeroToMany;startFill=0;" edge="1" parent="1">
          <mxGeometry width="50" height="50" relative="1" as="geometry">
            <mxPoint x="830" y="370" as="sourcePoint" />
            <mxPoint x="1140" y="250" as="targetPoint" />
          </mxGeometry>
        </mxCell>
        <mxCell id="zY2GSuErmZV2rWno_78V-84" value="S-S" style="rhombus;whiteSpace=wrap;html=1;" vertex="1" parent="1">
          <mxGeometry x="1210" y="480" width="180" height="90" as="geometry" />
        </mxCell>
        <mxCell id="zY2GSuErmZV2rWno_78V-85" value="" style="endArrow=ERzeroToMany;html=1;rounded=0;exitX=0.1;exitY=0.367;exitDx=0;exitDy=0;exitPerimeter=0;endFill=0;" edge="1" parent="1" source="zY2GSuErmZV2rWno_78V-84">
          <mxGeometry width="50" height="50" relative="1" as="geometry">
            <mxPoint x="1040" y="630" as="sourcePoint" />
            <mxPoint x="830" y="420" as="targetPoint" />
          </mxGeometry>
        </mxCell>
        <mxCell id="zY2GSuErmZV2rWno_78V-86" value="" style="endArrow=none;html=1;rounded=0;endFill=0;startArrow=ERmandOne;startFill=0;" edge="1" parent="1" source="zY2GSuErmZV2rWno_78V-61" target="zY2GSuErmZV2rWno_78V-84">
          <mxGeometry width="50" height="50" relative="1" as="geometry">
            <mxPoint x="1040" y="630" as="sourcePoint" />
            <mxPoint x="1090" y="580" as="targetPoint" />
          </mxGeometry>
        </mxCell>
        <mxCell id="zY2GSuErmZV2rWno_78V-88" value="Prereq" style="rhombus;whiteSpace=wrap;html=1;" vertex="1" parent="1">
          <mxGeometry x="30" y="650" width="130" height="80" as="geometry" />
        </mxCell>
        <mxCell id="zY2GSuErmZV2rWno_78V-89" value="" style="endArrow=none;html=1;rounded=0;entryX=0.25;entryY=1;entryDx=0;entryDy=0;exitX=0.9;exitY=0.338;exitDx=0;exitDy=0;exitPerimeter=0;" edge="1" parent="1" source="zY2GSuErmZV2rWno_78V-88" target="zY2GSuErmZV2rWno_78V-11">
          <mxGeometry width="50" height="50" relative="1" as="geometry">
            <mxPoint x="180" y="530" as="sourcePoint" />
            <mxPoint x="230" y="480" as="targetPoint" />
          </mxGeometry>
        </mxCell>
        <mxCell id="zY2GSuErmZV2rWno_78V-90" value="" style="endArrow=none;html=1;rounded=0;exitX=0.5;exitY=0;exitDx=0;exitDy=0;entryX=0.182;entryY=1;entryDx=0;entryDy=0;entryPerimeter=0;" edge="1" parent="1" source="zY2GSuErmZV2rWno_78V-88" target="zY2GSuErmZV2rWno_78V-11">
          <mxGeometry width="50" height="50" relative="1" as="geometry">
            <mxPoint x="590" y="530" as="sourcePoint" />
            <mxPoint x="640" y="480" as="targetPoint" />
          </mxGeometry>
        </mxCell>
        <mxCell id="zY2GSuErmZV2rWno_78V-91" value="Prereq_ID&lt;span style=&quot;color: rgba(0 , 0 , 0 , 0) ; font-family: monospace ; font-size: 0px&quot;&gt;%3CmxGraphModel%3E%3Croot%3E%3CmxCell%20id%3D%220%22%2F%3E%3CmxCell%20id%3D%221%22%20parent%3D%220%22%2F%3E%3CmxCell%20id%3D%222%22%20value%3D%22%22%20style%3D%22endArrow%3Dnone%3Bhtml%3D1%3Brounded%3D0%3BentryX%3D0.918%3BentryY%3D1.017%3BentryDx%3D0%3BentryDy%3D0%3BentryPerimeter%3D0%3B%22%20edge%3D%221%22%20parent%3D%221%22%3E%3CmxGeometry%20width%3D%2250%22%20height%3D%2250%22%20relative%3D%221%22%20as%3D%22geometry%22%3E%3CmxPoint%20x%3D%22540%22%20y%3D%22690%22%20as%3D%22sourcePoint%22%2F%3E%3CmxPoint%20x%3D%22300.98%22%20y%3D%22421.02%22%20as%3D%22targetPoint%22%2F%3E%3C%2FmxGeometry%3E%3C%2FmxCell%3E%3C%2Froot%3E%3C%2FmxGraphModel%3E&lt;/span&gt;" style="text;html=1;strokeColor=none;fillColor=none;align=center;verticalAlign=middle;whiteSpace=wrap;rounded=0;" vertex="1" parent="1">
          <mxGeometry x="180" y="590" width="60" height="30" as="geometry" />
        </mxCell>
        <mxCell id="zY2GSuErmZV2rWno_78V-92" value="Course_ID" style="text;html=1;strokeColor=none;fillColor=none;align=center;verticalAlign=middle;whiteSpace=wrap;rounded=0;" vertex="1" parent="1">
          <mxGeometry x="50" y="580" width="60" height="30" as="geometry" />
        </mxCell>
        <mxCell id="zY2GSuErmZV2rWno_78V-93" value="C-S" style="rhombus;whiteSpace=wrap;html=1;" vertex="1" parent="1">
          <mxGeometry x="500" y="850" width="190" height="80" as="geometry" />
        </mxCell>
        <mxCell id="zY2GSuErmZV2rWno_78V-94" value="" style="endArrow=none;html=1;rounded=0;entryX=0.074;entryY=0.625;entryDx=0;entryDy=0;entryPerimeter=0;startArrow=ERmandOne;startFill=0;" edge="1" parent="1" target="zY2GSuErmZV2rWno_78V-93">
          <mxGeometry width="50" height="50" relative="1" as="geometry">
            <mxPoint x="300" y="970" as="sourcePoint" />
            <mxPoint x="350" y="920" as="targetPoint" />
          </mxGeometry>
        </mxCell>
        <mxCell id="zY2GSuErmZV2rWno_78V-95" value="" style="endArrow=ERoneToMany;html=1;rounded=0;entryX=0;entryY=0;entryDx=0;entryDy=0;endFill=0;" edge="1" parent="1" source="zY2GSuErmZV2rWno_78V-93" target="zY2GSuErmZV2rWno_78V-61">
          <mxGeometry width="50" height="50" relative="1" as="geometry">
            <mxPoint x="590" y="730" as="sourcePoint" />
            <mxPoint x="640" y="680" as="targetPoint" />
          </mxGeometry>
        </mxCell>
        <mxCell id="zY2GSuErmZV2rWno_78V-96" value="S-T" style="rhombus;whiteSpace=wrap;html=1;" vertex="1" parent="1">
          <mxGeometry x="1440" y="650" width="80" height="80" as="geometry" />
        </mxCell>
        <mxCell id="zY2GSuErmZV2rWno_78V-97" value="" style="endArrow=ERzeroToMany;html=1;rounded=0;exitX=0.113;exitY=0.663;exitDx=0;exitDy=0;endFill=0;exitPerimeter=0;entryX=1;entryY=0;entryDx=0;entryDy=0;" edge="1" parent="1" source="zY2GSuErmZV2rWno_78V-96" target="zY2GSuErmZV2rWno_78V-61">
          <mxGeometry width="50" height="50" relative="1" as="geometry">
            <mxPoint x="1240" y="730" as="sourcePoint" />
            <mxPoint x="1310" y="860" as="targetPoint" />
            <Array as="points" />
          </mxGeometry>
        </mxCell>
        <mxCell id="zY2GSuErmZV2rWno_78V-98" value="" style="endArrow=ERmandOne;html=1;rounded=0;exitX=1;exitY=0;exitDx=0;exitDy=0;entryX=0.133;entryY=0.983;entryDx=0;entryDy=0;entryPerimeter=0;endFill=0;" edge="1" parent="1" source="zY2GSuErmZV2rWno_78V-96" target="zY2GSuErmZV2rWno_78V-22">
          <mxGeometry width="50" height="50" relative="1" as="geometry">
            <mxPoint x="1530" y="630" as="sourcePoint" />
            <mxPoint x="1580" y="580" as="targetPoint" />
          </mxGeometry>
        </mxCell>
        <mxCell id="zY2GSuErmZV2rWno_78V-101" value="&lt;div style=&quot;direction: ltr ; border-width: 100%&quot;&gt;&#xa;&#xa;&lt;div style=&quot;direction: ltr ; margin-top: 0in ; margin-left: 0in ; width: 13.5277in&quot;&gt;&#xa;&#xa;&lt;div style=&quot;direction: ltr ; margin-top: 0in ; margin-left: 0in ; width: 13.5277in&quot;&gt;&lt;img src=&quot;data:image/png;base64,iVBORw0KGgoAAAANSUhEUgAABRMAAAJHCAIAAACM5VYRAAAAAXNSR0IArs4c6QAAAARnQU1BAACxjwv8YQUAAAAJcEhZcwAADsMAAA7DAcdvqGQAAP+lSURBVHhe7N13YBRFFwDwkyJICSBdamgSBILUKBBAICIGpIO0IMVgIIDU8NGLEroQDR0M0nuJ9CKhBaRFSuhBeu8dgW925u3ebL29yyW5C+/3B8zbOju7d9l3O7v73tu3by0IIYQQQgghhBDSkQL+RwghhBBCCCGEkBbMnBFCCCGEEEIIISOYOSOEEEIIIYQQQkYwc0YIIYQQQgghhIzgE8IQQgghhBBCLiEuLo78myVLlsyZM7MhCLkIvOaMEEIIIYQQSnqzZ88uRJUqVWrXrl0wFCHXgNecEUIIIYQQQkns9OnTH3/8MQQWS9GiRckQCBByAXjNGSGEEEIIoWTi6tWreymI3ceWLVugRJ05c+bAgQMQuIyjR4/2oBYtWgSD0DsDM2eEEEIIIYSSg40bN3p6en5O/fbbbzDUTWTIkAFKomvXrkHJNWzevLl06dKTqG+//bZbt24wAr0bMHNGCCGEEEIoOZg9e/bLly9ZuWvXrv/99x8ru4UcOXJASXTlyhUouYA9e/b4+flBQIWFhZ09exYC9A7AzBkhhBBCCCG39/bt2yVLlkBAnThxAkruIGvWrFASXbhwAUpJ7fbt29988w0EnOPHj0MJvQMwc0YIIYQQQsjtPX36FEqiVKlSQckdZMuWDUoiF7miu2fPnnz58pHkGWJO9erVoYTeAZg5I4QQQggh5PaePHkCJVHKlCmh5A7U15yT/Jr5gwcPRowYUbly5efPn8MgzqxZszJlygQBegdg5owQQgghhJDbU2fO7nXN2cPDI3369BBQsbGxr169giDR/f3330WKFBk8eDDEcjNnzmzfvj0E6N2A73NGCCGEEELu5/bt2yEhIVevXs2ePXvWrFk//PDDTCKSgxUoUKBQoUIw6bvh2LFjpUqVgoCKi4srWLAgBO7g008/PXLkCATUrl27KleuDEFiIen66NGjBw0aBLFKo0aNSOacJUsWiNG7ATNnhBBCCCHkZvbu3VujRo0XL15ArKVnz57du3fPnz8/xMnd/v37K1WqBAF18eLFfPnyQeAOOnXqRDJSCKg+ffqMGTMGgkRx9+7devXq7dmzB2KVwMDAqVOnQoDeJdhbGyGEEEIIuZNXr159/vnnxmkzMWHChAIFCmzZsgXi5M7d73MmateuDSXR2LFjHz9+DEHCu3Tp0meffaaXNnt4eCxYsADT5ncWZs4IIYQQQsidbNiwAUomkGRs3LhxECRr6gzTve5zJhTXzJlNmzZBKYEdO3asbt26p0+fhliuevXqmzdv/vbbbyFG7x7MnBFCCCGEkDvRfD+QgT59+gwcOBCC5Et9D6bbvW24QIEC6rua58+fD6WEdOnSpcaNG5PkGWK5iIiI7du3V6xYEWL0TsLMGSGEEEIIuZOHDx9CicqWLdv9+/cvXLhw5MiRv/76a9WqVa1bt4Zxop9++qlXr14QuAOyjXPmzPn2229LlSrl5eVVpEgRHx8fkv+fOnUKplBRPxFtxYoVUHIf9evXh5KIbMXJkychSDB9+/bVvNpcq1atf/75p23bthCjdxg+IQwhhBBCCLmTcePG9enTBwKLJWPGjIpcmpg9e3aHDh0gEC1YsMAtetvGxsa2b98+OjoaYrmQkJBRo0ZBIFemTJmYmBgIKLc71d+9e3eVKlUgEP3888/9+/eHIAGEh4d36dIFAs7QoUOHDBkCAXrn4TVnhBBCCCHkTv777z8oUc+fP4cSh2SeixYtgkDUunXry5cvQ+DCtm7dqpc2E6GhoSNGjIBArmXLllAS7dy5E0r2e/PmzfXr10mLJWb6Xbly5ffffx8C0ahRozT3slM8efJEM20eN24cps2Ih5kzQgghhBByJx4eHlCiXr16pfn45ebNm8+YMQMCiqSCv/32GwQJj1Rsw4YNvXr1Kl++PHvddIkSJUgyZjMRNeiSzQwePHjlypUQcKpWrQol0YkTJ6Bkp4ULF6ZMmTJ37tz58uXLkyfP+PHjYYS+48ePd+vWLSgoaP/+/TCI8/r1ayjZQpYAJdGjR4/Onj0LgbP9+uuvUOKsX7/evbr3o0SAvbURQgghhJA7UffEJqlmsWLFIJCrU6fOxo0bIaCePHmSLl06CBLMtm3bunbtGhsbCzGHZKE9e/aEQEtgYOD06dNZuWzZsuXKlSNJ+J49exQ34r558+a9996DgLp582bOnDkhoDp27Kj4+UBt7969LFfPmDFj1qxZq1evvmbNmm+++YaNlfTr1y80NBQClcjIyHr16rFypUqVpGvmUVFRY8eOJe1w7tw5f3//3r17V6tWjY3Ss3nzZj8/PwhExmt32P3793Pnzq24oL1kyZKmTZtCgJCEZM4IIYQQQgi5i7Vr18KJrGj79u0wTkX9CqtFixbBOPtdv3599+7dW7duPXr0KAzSoq6hAkynIyAgAKazWIoXL84GPnv2jKSdMJTS3GrFc8IKFy4MI0SHDh1auXLlgQMHSJlk4+pnWX/xxReff/45BHKHDx9mC1EguTdMIYqLiyPDNV8otWDBAjaXnkePHsGknFKlSsFop1q8eDGsQDRmzBgYlxRIDk/+ffPmDQuRS8He2gghhBBCyJ1ky5YNSqJr165BSaVWrVpQEu3btw9K9iD5Xu3atXPlykVSzZo1a5JErlKlSkeOHIHRnF27dklXXyUkg4USRRJvKGkhSTKULJanT5+yQtq0aceOHUty8g4dOpDM9ueff65evTobxVM8XuvcuXPs1u6YmJghQ4Zkz569bNmyDRs2LF++/OjRo8nEu3fvZlNKtm3bRjJqCOiboqBksWjeX33v3r327dtDILp16xb5V/MXhJYtW27evBkCLRkyZChTpgwEItJiFy9ehMB5FJ3AyXq7du0KQaK4evVqaGhomzZtyB4hBzbZy5kyZUqVKlWxYsWaN28+cuTIP/74gzQX2X32vowNOR9k0AghhBBCCLkD9b27JKWEcVoUWWuzZs1ghDmXLl368ssvYWaVjRs3wnQiRUI7a9as+/fvK66jtm7dmqRJHh4ew4cPh9k4/v7+MJ3FkiVLFhhqC1kRaYcGDRrAnCKyiiZNmkBgv4kTJ0KJWrNmDaxPFBwcDOM4d+7cIaM++eQTiOXSpUvHLkrrCQwMhEk548aNe/z4MUzhJEuXLoWlU/v27YMRieLQoUPqx6EZIOl0hw4dfv311z///PPo0aP37t2DBSWKu3fvkr12QQVGvwPwPmeEEEIIIeROrly5kjdvXgiobt26TZo0CQKV3LlzX79+HQKLpXTp0r179/6QKlKkSKZMmQyyl9evX5O0eevWrRCrlC1bdv/+/SlTpmTh6dOnP/74Y1Ymfv/9d9b1Ojo6+rPPPmMDFdS3PdesWXPbtm2snDp16pcvX7Kygfbt28+ZMwcCW0jiKl3KZmbOnElaadSoUbt27YJBot27d/M9ugsVKnTq1KlUqVKxkKRwfJ7P9OrVi2S5pEB2E9lZbKBCixYtFi5cCAG9Z/vw4cMXL14kdSM2btz4008/wTgOaeewsLAffvgB4nh78uTJgAED2MGzfPnyRo0aseGJY/To0SEhIRA4JEeOHOQYLlCgAGnqFCmE3sQOJ3eaM5Jlkl2zb9++x48fkzwfhqoUL16cfEwaNGig2Q8i+RDSZ4QQQgghhNyE+j7Yr7/+GsZpSZ8+PUyno379+pMnT96+ffvdu3dhHlHfvn1hIlHWrFkVl6C3bNkCU799q+iHTBJvkh+SFB1iLeo7eH18fGAc9erVKxihw7jvtxkjR44ky9F8FdbBgwe9vb0hoDZs2MDW++zZs/z588NQTqtWrUiWRSYwbvl58+ax5cTExFSsWBGGmnD+/Hk2I3P9+vUjR46QWs2ePXvYsGHlypXLnTs3OSTOnj0LU9hC9rt61yeC4cOHwyYlFzVr1iTHEtkdsIXJC2bOCCGEEELIzaRNmxZO1amCBQvCCBXzL0MiUqZMOWPGDJjz7du//voLRlBZsmRhSbLiJVgtW7Zk0xOKl0VVqlQJSvry5MkDM4tILg3jqCdPnsAIHQsWLIBJTVi2bBmUOJ06dWKLUl8z3Lx584QJEyCgqlSpwiaeMmUKDNLSqFGjdIbPME+RIsWNGzfIcr766isYZM6pU6dYBX777Td2oVVT+fLl2WQuy7Fb7t0COaKS5MeIBIVPCEMIIYQQQm5GcanzwoUL/FO1eHY9V4mk2eSMv0ePHqRM0ubly5ez4czq1atr1qxJCunTp+c7MJPE9dWrV6z88OFDVmDMpEZXrlxRzKUIX7x4ASUdNWrUgJIhUu1t27ZpdhpnTxEjBg4cyAoS0ra1a9eGgNq1axfruBseHs6GaFqxYoWiT7hi4W/evJk1a9b169fXr18Pg0wIDg6W3kDWp08fshBWVjtw4ICiJV1NxYoVT58+3bt3bz8/v9y5c8PQZGHGjBnqbvzuDjNnhBBCCCHkZhT3ORP8ncy8/fv3Q4mTNm1admdmo0aNSpYsCUNFkyZNatmyJUlHw8LCYBC9d7dq1aoQWCz58uWDEnXy5ElWuHfvHivYZcuWLVCiHjx4ACXKZuacK1cum5ed27Rpc+LECbJRmndN37lzhxVq1qyp6Dh98+ZN0kSKVlq5cuXVq1ft7SXeuHFjKIn+97//PXv2LEuWLBDbQnL4yZMnQ2CxKN7DrEA22cPDAwJXVbRo0bFjx27cuJG0J9k1t27dOnjw4B9//NGxY0fjK/aub8+ePXFxcRAkC5g5I4QQQgghN+Pp6QklEUk8oMR59OhR9+7dIeBky5YtNjY2VapUK1asOHbsGAzl8A+vYjJkyAAlSvEerPv377OCY68OGjBgAF9/RW9wsgl6z9mSfPvtt8ePHydJV1RU1ODBg2GoqH379nPnzmUX6qXL4zy+2m3btoUSxW7qbt26NQuZkSNH7ty5EwIqJCSkRYsWEOh48+bNjz/+CIFo9uzZQUFBENjCv2OMZPsGF5wjIiLIJkPgJlKnTk2OzLJly5LWnjFjxpMnT06fPr1p06YpU6Z06NDBHS9Ku/g1f3th5owQQgghhNwM/5JhRupvzCMJ3vnz5yHg/Pfffzdu3Pjzzz8hNoHMAiV6TXjHjh0QUNLYXLlysQKvQoUKUKLU72o6efIkyVeHDBkyefLk33//nV8XsWTJEs23NCmUKFGCJF1Vq1Zt1qwZDBJduHABShaL5jXnu3fvQsli6dKlC6kDSZiJ7du3lytXjgxk+TNv5syZUKJKly69cOHCa9eu/frrr+oeAQzJo0iGD4GI7COy7ey51iQ5VNzBrsDvTYPrmZs3b1bk/26qaNGitWvX7ty5M2ntq1evnj17ds2aNWPHjm3ZsqX6I5DQyG7Nnz9/IU5BCkarkBoqni3n7vCtVAghhBBCyM2Eh4eTBA8CasaMGR07doSAIokcSTAgULlz506VKlViY2Mh5rz3nsYZcs+ePcePH08KJP0bPHiw4iVYBw8eJFkrKZw6dYrkydLTv7NkyVK4cOEDBw6wkImMjFy3bp3xTcJq169fz5kzJwS2pEyZUnE99uLFi6yH+aVLlzQfiE0y6tSpU0OgpVatWvzbud5//30+Cd+yZQu7CZwgqybto3jVFjF8+PBBgwbVqVNn48aNMIjq06fPmDFjIKBXxZ8/f75o0aLvv/8eBol8fX2l3yzIHsyWLRsr88iMzZs3hyBZu3fv3s2bN2/cuHHt2jXWa4A+x8qZyR35LBDZs2cnRzXJhDWfx0ZS+suXL2/fvn3Pnj0ksWcDSc4/d+5cxVPi3R1mzgghhBBCyM1MnjxZ0Q176tSp/IXZmJiYMmXKQKBl+vTpJHNmbwYm5/ckJUiVKhVJOHPnzl2qVKnPP/+cTSbp3LnzlClT1q5dS3I/snAYSuXKlYvvvE0yGZZhtmrVig3h1a9ff/Xq1cePH1ffX22MpKMkh4HAFtIUZAMhoEhWw54NRpLSDz74gA3k3bp1SzMRlWi+ullCEifpudznz58nU6p/lZgwYcKPP/64YsUK9Q3PJ0+e5N+DTezcuZPkyRCI0qZNyz8KrkWLFosXL4aAQ5L2n376yfjyNUoI//zzD3ssHPkQ2XwbnPthv0wghBBCCCHkLsaNGwfnsqKwsDAY9/btq1ev1G9XUjN462zRokVhIlGbNm3Kly8Pgdy0adNgNs7u3bthtBzJYNkES5YsgUEmBAcHs7lMUnSlJkjOD+Pevh01ahQM5ZCEFkbreP36Nf9EcYVVq1axyfbt26f3m8XRo0fJBCSzev/992GQqG/fvmx2iWY3e4JUA6Z4+1bxZDWeeoEIxRPe54wQQgghhNyM4k5ggn/w1YABAxSvYiYUr1YiunfvrniKNXHy5MkmTZpkzJgRYtEff/yh6HTN+Pr6KnqJM59//vl3330HgWjq1KnSS6GaNm2qzm8l5cqVmzRpUmtq/vz5/AOlzUiTJg2URHyyqtmHVrPjOi9FihRDhgyBQKVz584lSpSoVq1apUqVjhw5AkMtluzZs7PC0qVL2WX2Dz74gL33izdmzJhz585BQOl1TedvaNd8uhtDFsjfvI2QE0AGjRBCCCGEkJuYMGECnMuKfvvtNzaqV69eMIiTO3duknGpH09F8tKdO3eyGYktW7bY1cXU29v7ypUrMLOW9evXkyzxq6++Cg4Olq428w4ePKi4kFuqVKmQkJBXr17BFA7hc1dGUU+y4TBCdODAARhn6OLFizNmzJg2bRrMZktMTMwDCuanoqKiYDQnICAARlN6b5wi+5FNYPN1wd26dWNTIuQUeJ8zQgghhBByM8eOHSMZJgTUn3/+Wbx48dDQUJLXwSDO5s2ba9Wqdf78+WLFir1+/RqGiooWLZo1a1by7x9//AGDTOjevfuwYcMyZcoEcTw8e/YsVapUt27d8vDwULz+ymHly5cnaTkr16lTh+TwrMw8evTof//736+//srCMWPG9OnTh5VNKleu3KFDhyDQMXToUM3L1G/evMmWLZv63dckK86TJw8E9PFUUOKw+7HPnDlDdiUMEpGmU7zQy66bwxEyhpkzQgghhBByP+PGjeOTvfTp0z958gQCudGjR/ft25eVNR9PpdauXTsypd7baEki2qtXL/7dwi7ov//+Gzx48PXr1728vPSyYvaM69SpU3/xxRdsiHmLFy82foEzaZ8NGzakTJkSYjnF7mO2bdtWo0YNCGgHe8WdzAUKFJDesFWwYMF///1XKgcGBnbo0CFXrlz8Q8WlJ4ojFH+YOSOEEEIIIbfUu3dv9qYoA8HBwYqbhNXP5VaLogYOHAgxRVLu0qVLf/nll5UqVYJB77aIiIh27dpBINe2bdtZs2alSpUKYpUXL16QLPf+/fsQUyTb5zPtn376SbELSHo8depUVr57925ISMidO3d8fX1btmyZPXv2ly9fKm7wPnPmTJEiRSBAKH7wCWEIIYQQQsgtFS5cGEo6evXqpX62Vrdu3RYsWACBlrFjx1atWlXRG5xInTr14MGDMW2WBAQE3LhxgzRXo0aNihYt6uXlVaVKFdLme/bsIUm1QdpMkBSXTMa/d2rNmjWKC9TlypWDkoi/J/zDDz+cPn368uXLu3fvzp5Dpn5unHoIQg7Da84IIYQQQsgtnT59WvESYN6IESMUVyx5//777/z58ydNmnTz5k0YZLFUrFjxf//73zfffEPKd+/ezZo1KxvOkLzu8ePH+JZg54qOjib/5s6du0CBAmwIb9GiRdJz3aZNm/b999+zsqahQ4cOGzYMAurw4cPGr/VGyDzMnBFCCCGEkLsaNWoUyXUhEKVIkWLDhg3q11BpOn78+JUrV9KkSZMzZ85ixYqReWGExVK1atVdu3ZBQK1bt+6rr76CACWKM2fOsIL6Jds8PseW7Nu3r2LFihAgFD+YOSOEEEIIITe2ZcuWHTt2kOz3+vXrBQsWrFatWt26ddUvZHbAmDFj+vXrBwE1duzY3r17Q4BcSYsWLRYvXgyB6N69e5kzZ4YAofjBzBkhhBBCCCENhw4dUtxq+8knnxw7dgwC5EqWLVvWtGlTCKj+/fv//PPPECAUb5g5I4QQQgghpOH169fqx1zdvn1bcf8zchGxsbHLly8/ffp04cKFy5Qpw+5XR8hZMHNGCCGEEEJIm7oP8NatWx14+zFCyN29p/eGd4QQQvHhlFvsEEIIJa3BgwePGDECAmrevHmtWrWCACH0zsD3OSOEEEIIIaQtQ4YMUBK9fv0aSgihdwlmzgghhBBCCGkrVqwYlESFCxeGEkLoXYK9tRFCKEFgb22EEEoG7t279+GHH0JgseTJk+fy5csQIITeJXjNGSGEEEIIIW1ZsmS5ePFi48aNfX19AwMDjx49CiMQQu8YvOaMEEIJAq85I4QQQgglG8n2mvOrx7dv3Lj/HCJ39vz+jRu3H7+CKCklcpvuG/aRh0f2QbshTGi7B2X38PCfdxFClMAuzvNPzN2LEEIIIfRueklBgOIhRVyEn4chv4g4mFYhZlwJmETOJU6GT86qXaho0fztl9+EAYmCJgN62RfNzEqMi4HQpEebexctWrRQ6XEHYUDSSew2ffHsMfnnVWI9vvL1qxfkm8U9npap+uxlL+Rdo9WwiJ3/us9vRa9fk2/whNm9N1e3I581DdaPpmoS0oIN+iw5fEvxE1VyaGmEEEIIvaNu3LjRtm3bNGnS5MyZc+vWrTAUOUq45uwTFvNQR0yYD5tOw4PbwuMRPvnmR4W+VT9iEySlNBmyprFYMuTK8gEMSBQ0GdDLvmhmdvn2AwhNSpsuS2qyOfmyp4cBSUejTWle4VLXDV2vRglB+dnr5Ffgxam144O/LlWo5rg9yuwviSX+Lnly/yr5rGXz/Q6aR9LCK4vOJC0rv39r27SO1Uo0jDjLN59btTRCCCGEEG/q1Kl//PEHKdy/f79+/fpsIHKY1Fv71eXt41pVLSRch/moeINh2y+bPCes1mmYQh8/TxiXhDxbR956+PDqhC/c/T7D1JVHXH348NaOjsVhQNLRaFOaVyTeZWETXK9GCcf62Rs/f/vJf8/tCGuU9/Hfw+tUG777EUziCpJqlxRp2gOaR9K6nPz7wDrJ1FUnj0cG5bW8iArut/IqjJa4SUsjhBBCCPFWrVoFJYvl6dOnmzZtggA5RMqcL2+dvD5jy9GLV62aFZhn//hv/MYdxOspCLmN1Nk/DZixJsw3jeXypN7zT8JQZFoW3469ypH/Nx86ywbowZZGCCGEkFsoXbo0lKjDhw9DCTlEypw9A1ZunfpD0y+++KLpkA2r+mS7PGPTPzDKMXf+7JDdwyO7P9/58dWxyZ+RYe1WW++UfXXr8JI+DYp/RO8h/Ki46lZDeuuw/7yLz08u+aGSMNVHlcKlW4Wf/7tFvFCuvE9R/bwnMvEwcUVkTeUazImFMZR8WVVbjduiuJPx6vKWZGSJUU77RUHcNNIEET+wNZMV/xARcw8moPgHKT3b3FWYqOtmxYWuR5u7ClWz3kMdj1Y1aCa+TW8ub0nG+4cL5XDh7m5By+U3TVdRiWt/ocJrTmrdR/rqVuxaxR6XWkuvRnSksPydEVyT1Gg1TqdfBdf7InuhutwKgM0FcfuTVrJG/22yO8NtHmmOS12k5eBu2SyW42NWSvfFC3uNHD+vbu0ZV1dYafZCP/wJ9TFqTsuVxQ3J0M+myjLDg6MKkSn5DzCh2x3bxi4B92LEY1Xj8BfYOpqdJmeeolCySaulEUIIIeTKTlMQvBsqVKgAJWrnzp1QQg7RfLZ26g8/KmC5/eAJhI7J+vXAib5pXkT17rEYHjH26tiUTgOPW3xCB9bNAUPORjQsUa3jtP2ZanT68ccfW5Z5uXtax2rezcQ5CHrr8JPD4U2qdpx/yaNo0Y8s5689pmPuRYWULdVo+Npz2f2EmRsXfyTMPH4vHal63lPcvCblG43f/bJMS3q3Yo3cT/afugXjpGVtulK8Mb2XMfu5tcMbla80jO+LefbvSOFG5e3HhBsfnYFu2rWoMaQJem/M6Bf0Y6c6Hz2KmR9cqw3/awP/IKUPfPxbkGDx6mhZXnpz05y5LyzZ2tTwpmF8WtWwmfg2zfJxIzLBN58IZeku0EYfZ/nA55u2adRVfLR7KV9FJVJlst7ha09mFKpcv9A/v7euWLbzGhgriplUvkSlVqP3Wj5rS1ZG9pJwZ2rVupOP0dbSq5EQ3/yzQ6FSXwfPP1m8vjCUNMmxtcO/+bTLBmWWdmfjsC8+/Wb0XnF37CIrqDzIehjYXtCj3cOrVQueD0flj41LW/49esn6UTJzpMVH6op1O5GE7vamI+KFU2Gvvbi8dlC1OsP/tnxU1DPjo0v3aKZu3JyWPJ/UIHnk8RX7uCcEHtu97DY5AFf8eYir7rEdC8lHomFl2W+alNEuAYdmt6tctcvyl9U7aR/+Zo5mZ3kV+/cW8t8nBeHryZi6pRFCCCHkskJDQz+mvvzyyzNnzsDQ5O6TT+hpmOjPP/98/jxpHnI6b968nyiI3VRMmI/iCWE3T60Iymux+M85S58Qpvv8sMggYX7rs3OY8O1XYDwRE+6bxmJJ4z/n5MOHdw5NFJ425jPx0B0Ye2fPSLIz0/hO3H8Thjy8c26FcDaapu1ycSniM8pkkxF3tvQhE1o+6bv1XxhCan50RdgyqC2tnbXu2/uTqbP12SKuW+bfJS1INfMGrT4njb65f6yw3k/G7IcBDx+enOMvTNV/u+YyKFZZnRZj7RUUCaF10/K2XXIClsmaxJKm+3oWE2wqcbYry0leyrcPcXaOP5lCrGq8WtWwmZRtSqi2ibgTGUSqyI4fkbyKKidn1iaj0/iGicfGnXM7RgqHDsEtfH0vr6ZhO6w76c7xKcJ82fpvhwGEVo0ePjwWXrdCrxVHrZt6c0MP4fDhK8nmJLUYKa3iziGhSy5fcZsLYltaeyY54jWYO9Js095KBvatNBK2S75Wgc3m3DNSuATLtZF42FjSBEVKs7GBLZZwR6ScTmXFhRke/qaOZhW2aOUTwgaJ3w0CNol0MN+5emJrWCPytUeaKdL6jWJfS6u9RQghhJAL2LBhg/A3W+Tn53f27FkY5wy//PLLiBEjTp48CbHLuHxZecXv4MGDMC4R/fDDD7B6i6Vy5cqPHz+GEe5Gfs2ZduLN8XGj8Fu+YcPrm7rycnz1RJlFsdxlPM/mv4T6WF5Edh66IWZxj5BoyycjJ7QtkhrG/rP2l+OWbN0Gty2eFoZYUmev9V2PopYXi6PkXcXzBi3/o4N1Movl1d4Vk2+T8/Uh3StYr2ClLVArwOjxZI8u3biv0cvz5ra5i15Yag/tViO7WDVL2uIte7YgWxd5QOrv/VHjBbcePjzRv5w0kVP4TFwzsU5eWGbqknU7lrNYXuw7q3NFLWP1Zh3SWF7MXWq9Rnn1rwWRJPMKqM6eIRafVmV0msms1J81ErqxRi74S3rQ0s2dy/kqKt3cu2ozSXR6DgsQj43U2T/t9sfsxiyQVB6yb1bAp9adlDrf5/VJ7mKid0T+1ou2DqlVwLqpaT+v1Yz8d/uxYtZsnZb80U1ahdQlVzoMTC7o6uVbWr/nmTzSEkAa37A1I7i1Cmw2Z8nKTYQduXwndK++eWhjtKVcixafWF7MWrcXDpG4qPnRJL3+sqxjz+KzcfjbcTSr3I6aA19KzJidqid/RQd70y7gHlk/KlEz+M/UTcN27Bjhy18TRwghhJD7mzNnDpSoTZs27d+/H4J469u3b48ePQYNGlS8ePG7d+/CUNeQJ0+e/PnzQ0D980/87se139WrV6dMmQKBxbJ79+7ffvsNAncjz5yFTrxFO83dfSJupZTE2KC84BLZmt87qYu0DZ9IcudFzaoGRb34ZOSMH0pKi407tp3kvpZ980cO4c3YRFJvZepYv67idPZy3KEX5LS78scmz9fLtRjum+bFolbedfpE7Dx9X5bWnPybpHWWq2unQQ2YcfOPkqFRxy7QaRJO2aKyli5StBKUtEFeumjuJkhnru5aTNLO2j/WZ1lpvFrVsJlMS12xIclsLJsX74JMheX2Pp2/1Hk+ONsBDX3k3X2zZMoJJd6rx5eP7o6MGMs265eldvSUfX7/9IFtS6ewOYfM2AGDZYqULihrktS5PEuQ//adusRiymhBOfy6dM9rOT60VqVm49YevfxY9hNEIh5paVKnhBL1aVNfzQ+0cXOW8xOu7kZuZH2zHx3aGGnJ5hfY7VuSty7Zzb52aTZt8W9c1dTvbGrGh789R7OKsu/HrRGVYYwELkt3queVgUSps3l5FZT/umCCoqURQggh5Fq6deu2ePFiCKiBAwe2aNECgvh5+/bt2LFjIaA5OZRcRo0aNaBERUeTM7dEdf78eSiJ+vXrd/u2cIrndtT3OWct7V0qbwZ7Tx91pS5S/4d6rFiuY11r3ixSXhiaOCeKNGSajzIbv7/4Uqyw14vnyc1C2zxbLzuwYnCd7P9MC/66fP583h0iFE8ZUl48n7j6OBmaN1smNjreHj0VfoPKlim+72WG2yvFS7qQODevInuJtoOtaqKZTCnp1+kTkjrP3ExTG6hix9rGbytLndLWQff85JIO5T1LVP6qZfAIbrNMEB6PVbNQ/vJfNOjQj83Jdq9t+fOXJP9K71SyvaCMlQfv2DEzsPStDcNbVS7xUYGaw5QPAEvYI+3VhX+Ej0alj/OxWJ+J5mSp88q/DpNj4NXhv1Za0jSrXJpeir69bPcxMgHNpuOROJvi8NFsE7yVavz8fcd3DvV5/Pfwr7ssV12Y1mO+pRFCCCGURF68eBEWFgYBlS1btooVK7733nsQx4/iIvPNm4oHoSa98uXLQ4lSdFxPBFWqVIESZ9GiRVByK/LM2bP5kjMLGgt3+znNvajxA9ZasuXNm8ZyMGSw+rRU+6bgW79/Y3wq/lFR4f0xJ69cY6EZaQvU6r0k5urVw3+OafrR1aXB1arJXrylfbfiid7aj7TSlj4DyTMsh89qnXzfuCI8i6DIRx+yMB7KNewr5KX0km4cSU9J5tKyuixxdrRVBTaayZzi9X+sbbFET914UreKKq9eG6/m1cGJjToujcveKGzriatwY6x4r6wNV9d0/2b436+8u684cFG8X1a8/deGixeFBFH8wcPUglJn/7TZ2K1Xb57aPb9XBcvf4xuVby877p1xpOl6dXjXSvJfUb8ysp45auaas3TN77JB3+x/di95YWlY/dPUltKVm6WxnFm466TlUXQkWVvtBp8lZOIcn6PZtCzewaP657W8iBwUYfJwN93SCCGEEEoyadKkUaSOt2/frl+/fqNGjQ4cOACD4iF1atmVnxkzZjx65KTHvjqJ4iFh//777/bt2yFILCEhIVASDRgw4MkTm/dbuhx55hy3Orhu01n/2J0o6boXNbpz+OU0LcJ3/yk8aFu44Vm6DTqvZ9k0JM2MveTI6tj7Yw7/fdbeYzN1hsJVO8/6S7iH9vKy3aeEQfm8hHzhUJxx308zcnzsQ6r1Yv6K7dzN3tSrY+tmHiQZWI2SxhdeTSlePQBSZ3qTaZq23/lJOUS8WtVKo5m0pM8k/FSg4aMqzUnqfHzGpmPqKqqwn0H+Oipfzb0HN6DEnNq97DLJwEeMCahg0CdCq0aP/tkY+cKSrecvI2oVy6y6rVvmzp2HsoZ7deHYPvKfTzF6XdGOBVksaXOXqjdkw/qhRUk6tvEfepw670jT8TwmrPvY26S+3eoJl8qNmGvO1J9WI1my0DebPlab3c6c+rO6HdIIT90+e3jr4hcWn/oVDH8U0T1IbHPS0WxK6nIBQ8kxe3nCnL9MfKnY0dIIIYQQSkqzZs1SZI/EypUrK1SoMGnSJIgd5eHhUa6ccCLLHDt2bMSIERC4BkVvbWL27NlQSixt2rSBkujhw4eKLvRuQZ45P7x08MyxM3ed9bDyR7snCHmz/9ShdbLAw8IWtekn5s6pP63bIZvlRfjIMPkbXJ//uyVik63cImPZrxsJT8oau4B77+/za3+vjdKcMy6iYcOpXL/jZ88ekn9zf+ghBJ6+rUhCEz1s1FrZe3mFt8guP2g9ib66ut1HHtm9Da/Alqz3o28ay+0Zrdrza3v+79ofmw08bknjO7yF9aMVD8W/7ExqvHnmz+Onkqy0+Tc+1ru949Wqhs2k5cOPipB/d5yQvfOX+uirzm3TWM78EhKsqqJKkcrNydfZmRGT14qrfnVrz6j67ZezAKTPlJX8e+rfa2L1SLOOH628VUOrRhnTCRf6b5++KrYI2bWTx8yCQObM0FoNJ0st9/zk7JHhL6x5v4kFRQ3y7rmW65794gmZNk3OjHTzzR1pJ2dWy27rQFN7fu3o2kG1aw0VDrOw8JY2f6Ax15yQJd9eNm1y5BmLz5dlaTuk/rR6Q7IdGycuXkIS51a+xivTP0hsitfRbDd2zL6YO3W9YY9t3ZZ2bMchhBBCKEGVLl368OHDmu9D6tGjR/ny5Y8fN3cPn45evXpBiRo7duyOHZqP00kyZDOhRM2bN49k+BAkihIlSgQGBkIgGj58+GvrC4TdRIzBe6do903dsayXqvKtVMTsPbTz55X13YV+39b54Z0z2TqtFl/78m+k8P4rkllk865H337b8ouPhEf1cK+lYR1INTq4im8MsmTwovPCrOKUtHbSus/+QfJsspoqwmuK4XlAGdouF+thXdZHX7AXGdfzziYM8A0/BpNIvXINWktw58SSttDdPU02z6IErRaJPLvLXnejt2nyiutNxd7jJFC/Q8rxVrXRTMqqETsHC6tK41mnkzB9U+4lT/ACLYHua64kYpXZvmxZhTR+Gu/+fYSHa1sryd5xxlYGtUuTRhgi2w6tGsGhaMlQQdgwung2K78xbOsaCa8m4qpBJrS+LMvEgtjqxWOSTfDpGPaJIMwcaSYONDZJho+E40vgSZdBh9Ucs1N+mGnsNcpcc/L7sejIPTAMXr4lMPE6Le2DxNzhb+ZoVmGLVr6Vighde1I2ibJZxHfdWbfJ7paWLZS+vwAhhBBCLmHLli1lypShf62VJkyY8OLFC5jOTvfu3cuVKxcsiPL19YVxrkH9VLARI0bAuMSyb5/QjVNh4cKFMNpNCJkz1F2H7gk8Ox/WwF4Au3uEJzm95ZIG4s72/sI8niN2wwD6DubB9cqJ2WU2z3L1Bs/fx7139li4r+5Z8p0TG8e0EufN8FG5er3CNoqvhl3fnZzhcukIXQ9LUoSsJXAm9yJbwZ1zO2YGfiGeF5Mz5S8Cw/7k3ttr6n3OgKxrdEtpWWSjVMuitDdNWXGdBji7sCndbu36ONyqhs2krJrgzqE5rdj0JLUZIasL7G0TiTNB2j/MuqB6g1eTHSmsT1bJf3eSfcS2CiaKFKokz740a3TnxGr5du3cIzQBf3CLa/t3p6oiHJsLYgcSV0n+7c8Cm0fazhGepCaegw0ONNVnT1hMy9Hzd59SHWWae40x1ZwkdV7VkR1qg3fCEIL9yEI+4BNMvIdac5eYO/wFto5mFaicmvVd1XTtGs2yf4zw6551U+1pafWOg29ZhBBCCLmGN2/ejBo1Cv6oy7Vt2/bYsWMwnZ1IBghLEa1YsQLGuYbq1atDzajMmTO/fPkSxiWWJk2awOpF3t7eMM5NvEdO76DuCDnX1SWNi3fc/MmY/Xs767yPCqHkLCPrpY8QQgghV7JmzZohQ4YcOXIEYs6gQYO6du2aI4fdjyEtV67coUOHILBYKleuvGvXLghcwO+///7dd99BQK1du9bfX+xDmCi2bdtWs2ZNCESJX434UL+VCiHnOLlm4maL5ZOA6pg2I4QQQgghF1G/fn2S1g4bNgxizogRIxo1avTPP/9AbFrfvn2hRO3evXvLli0QJIqjR4/euXMHAhV1yjpnzhwoJZYvKAhEv/32G5TcAWbOKGG82r90zHGLpfaP9TFxRgghhBBCLiR9+vSDBw/evHkzxByS9Hp7e5O8+ty5czDIhLp166ZIIUusIiIioJTwJk2aVLp06eLFi1+5coUNiY2N7datWz2KZPWnTp1q1KgRG8WsWLFi69atECSW4OBgKIk2bNhw5MiRoUOHVqlSpWTJktOnT4cRLgl7a6ME8Wxbz/wNZqbuuOrUhC+wxyp6N2FvbYQQQsjFkfS4devW6mdoMSNHjgwKCsqSJQvEhkJCQkaPHg0BtXLlSpJq3bx5k732OW/evJkzZy5RokTu3LnZBE7x4sWLdOnSvXnzhpQnT55MstNDhw7x78pismbNqrgoXadOnfXr10OQKEglPT09L168CLGWuLi4ggULQuBiMHNGCKEEgZkzQggh5BZIiksy5OvXr0PMIenugAEDOnfuDLG+qKioatWqQWDoxx9/bN++fcmSJSHWx7p816pVi4WaSNr/2WefsfJXX321bt26YcOGDR06lA0xtmPHDl9f4bGpiSY8PLxLly4QaDlw4IA67XcRmDkjhFCCwMwZIYQQchcXLlwgCapeD+1vv/12wYIFEOj78MMP7927B4EtYWFhJId87733IFb54Ycfpk6dSgqff/75mjVrsmbNyoYr9OjRY9KkSaxcuXLl9evXe3h4sNCmrl27kmpAYLGcPHnyyZMnt27dIuW3b99my5atQoUKbJQZN27cePToUe7cudOnTw+DqGfPnpFR16g9e/aMHz8eRmgh64WS68HMGSGEEgRmzgghhJAbefPmTShF0j8YxLl//36mTJkg0BEYGGjXnbqVKlUaPXq05pVqksMXKVIEAnrXdNu2bSHgbN26lb8iHRAQ0K9fvxIlSkBswvXr13PmzHns2LEOHTrs378fhorKlSv3v//9r2TJkiTJP3LkSFBQ0NChQzWz/cmTJ3fv3p2VCxQoULhwYU9Pz5s3bx4/fvz8+fNsuE1jx47t3bs3BK7nPVdO6xFCCCGEEEIo0dy7d2/q1KkkXYSYypgxo5nLjQsWLGjVqhUEppFcd9CgQYrrtCTbJMknBBZLmzZt5s6dCwGHzPX06VMILJZZs2Z99tlnfObs4+NTv379gQMHshuh1SZOnNijR4/mzZsvWbIEBqnkzp372rVrrEwmJrOwsuTs2bNFixaFwFHNmjVbtGiRwUX4JIfXnBFCCKF3CPaGQAghm06ePDl+/PiZM2eykGStJHdlZQPHjh0rVaoUBKLTp0+nSpWKJIR37tw5fPhwp06dYATH19d37dq1il7WefPmlZ6VTTx79ixt2rQQUPPmzVPU6sGDB2QWRea8d+/eW7duTZgwITQ0FIZyyDJv375doEABg5daKaxYsaJhw4YQUCTrJrk3BA7p16+fZvVcCr6VCiGEEEIIIYSsihcvPmPGDJLobtmyJTY21kzaTHz88cdQ4mTNmtXT07NgwYLlypXr2LHjiRMnGjduDONEUVFR9evXh0DUrFkzKFEHDhyAkkjx4quNGzeS3FtxbZmF2bNnHzVq1KpVq9hA3vPnz9evX893UCeLJebMmZMnTx4YJNe6detLly5BQO3cuRNKDv0+26BBA9dPmwnMnBFCCCGEEEJIqUyZMjVr1iRZNMS2pE6d2s/PDwLR2bNnoUR5eXktW7ZMupot2bFjx+rVqyGgatSoASVqz549UKLOnDnDnrzNkMSbrfr169dsCPPy5UsoWSzffPPN4cOH+U7gzPbt2/nL1CSXbtu2bbt27aKjoxXZO/P06dNhw4ZBQN2/fx9KFgtJwtOkSQOBOZ6enlBybZg5I4QQQgghhJATVKlSBUoiRcbLdOjQ4e+//y5UqBDElOLdV4qXM61ZswZK1MmTJ6FEffvtt6ygyJz/+++/Bw8eQEB/C1Bfed64cWPTpk0hoM85W758OSnkzZt38eLFw4cPZ8N5s2bNmj9/PgSqlb548QJK5qRLlw5Kri0+mXNUiIeHX0QcRIkvLsIv0SrgnHUlZo2dRdjLHiFREMWf7lGTZI2T1Mfxu87x9qeHjBOPTfdm5yfV+POWYE2rWi2tNkVW5/iXgP5R5B6fbzv3HkIIIddFUlMoiWJjY6EkV758eZJ/QkBdv36dn/ijjz6qXr06BBbL7t27L1++DIHF8vvvv0OJkqZUJLHHjh2rW7fuH3/8Id3GXLJkyUaNGrEy07p16xYtWkBANWnSZNu2baw8aNAgzXuzyVynT59mZf7KtiRnzpyVK1du3Lhxv379Bg4cyAZqXo7Oli0blFybUeZMz2K04V94hN5ZWt8M+JWAHBAV4h9uCYp8KAj1hYEIIYSQG1MngXrviCZy5coFJZHi4c3+/v5QoqTHX5PJVqxYwcpEvXr1pEWRhFxxp/GePXvatm1LKhYSEjJs2LBJkybduHEDxtHe419//XWhQoU2b94Mg6iaNWseOnSIlSdMmMAKCiNGjGAFxUXj7777Lioq6vr167t27Vq2bFloaKi0Rs3L0eou7q7JKHP2DNhET2iImDAfi3h+I3CJcxxav00BidItXrEuBy9jJGaNncU3NJH2tz2N4x6XkQwl2SY4a8Xc14Hg3Ul7EuxyrE3Gu87OT2rifBmpqixfbVwc+YMcVFeqtDt+QzpHon3PIoQQSmjPnz+Hkkjz7dAM+faHkkhx8fbzzz+HEtWrV6+1a9eSwoYNG9gQpm7dulCiFP26JaNHjx46dGiPHj12794NgyyW5cuXV6hQgRRq1aq1ePFiNpBp2LBhTEwMSdeHDx+uvjuamDdvHkvgFc8SI3PxD0tbvXr1jBkzWLlkyZKsIPnkk0/segF1EsL7nBFCCCGEEELICVKlSgUl0f79+588eQKB6OrVq4MHD65UqRLEIkVn5s8++0xxt3OLFi1u3Lih6KpdrVo1KFHVq1dnCbZNgYGBXl5eENCneYeHh0NgsVy8eLFMmTLNmzcfO3as3pXzLl26kPrUrFkTYurQoUP169cnef6gQYPGjRvXoEEDGGGxBAcHnzp1asGCBT179uzYsSP59++//4ZxLk/KnK0dMO29mmKdU3k5hO/UqXephE7Dj5Rd0RECYaRw5YLhayddz1AtRDmIRkC5MhKLo9nCuYmt08rX5U8OqehgbzpNSBStnbzZVJdaGPlgOh+j3+h81dWbT2JYirhYbqFAWiE/iq8cLMi6Jn4kHQqrVS6bm46vJj+7wDqbcoyMMJk4gbA4oWydVdxyuiJ5+7MRiurZXBWjNRm/HOvS2XBZO8nGKnYVNwo2Rhwdslh7E2DxyrpZl6qoK786fhSsjluQWBc6h0bbcUtSrMMRfL34ZiD0qiywjjOqA7cE+aIpveULw+VNoliHdYR8lHyf+EUsIQXv4GiLJdwfhgjTwuJVdVPvAWC+nuKMdA7tw15EJ7EO5jZJPa1AmEC5cqAxg9OqLK1WKHBtyRZqUCnZcIF1lcoxWjQ2jy5Avq3K9Uv4imi1j4BOo6q9NLGwbBJYl6Q/qbK6MCulqrWqznQKwE+IEEIoUeTMmRNKnNu3b5N/SZrau3dvkknWqFEjT548UldnXsGCBaEkUtwL/fTp04EDB65fvx5ii6Vx48Z89sv4+/tHR0erhyv07dsXSqIffvhB8dxsY9evXyfTk9RdcYP3vn37JkyYMHLkyD59+sAgqlKlSsWKFfv222/Hjx8/Y8YM8u8HH3wA41wey5zJX2l6CkOR8xjzf23JSVGgZZrQW/NhZBAJrHOSv97ewZawGDouJsxCzp4c+yMunHetqwuL8Qn31ziv8fRt5WOJnh/FnYdEzY+2+LTyFbr92agJWb537EA6UugsFxXCTdxqfqBybbQ/YWSQxeIDE4X6+tYlYfg6bplR68LFteshbe4fLvZ4jbT4azaOrOrCasnOkW0/iUd60dG0iyOZXloo7WEvVJKOEU7EoBXpKNm+IsiCdHYkh/YopNjCxS00amFZlVrN9xZOpc3R3vEa7S9MLGyftT2VlZAxrJF8OZoNLh4ttFLSOshSxQak9VMcqPxR1lx7EwTW/cn2ETn1FWeT7xajJifsaTtbR7xdDJqBfstIB7N8TaS+tg8/+RLIZ8b6pSUw0STQtmwdYsVMfDSkz1gz8gkgk0h91a0di8lc1j0lzENYdyV/NDhx1+ki28QdxTrfLrx4N639VRa+Tbi21OijbbRaMs6O7xVu79AasuWY/uImKzP6cNuBrNqBA51sKoyxSTiajb7AEEIIJTiSFqqfFH3kyBGSIk6fPp38SzLJv/76C0bIDR48OEeOHBCIvL29N27cCAGleKPV119/DSU5kqOeOHGC5Nht27aFQZy8efPu3LlT8XBvhlRDelK3GVOmTFmxYsXUqVMh1tegQQOyORC4IZo50zSTJzuZMBYUKZ7x+AaSsyBxzriIkcKDX8RxngHTuJF2IidecM7lGTAwSJ4hA+UIukVBA1nKaLMmQZHWczrhxjvp1Imc+2mcz6nJNp0wkThbLsWSGoo3+JGTSI0zYUXVhcnIWZt8+33CpllrSNcbFqjVWMJprLQKOspyKI5vR50dqS1qGjmxZu1r3MIwTtp/m+ipskkmdrxIqJB1ckUlZIxrpFiOZoNbK8Wvg+xCbkcJTRgdK3tDPH+U6ZPake0jEou7jZ7mwz6zfVCbbzuHjniCJYdASgD0m4E1rXS0KtZk5vCTL4GsSUjLRLabhF8Hv19tfjRknzFd1hanWyDEsDr2wx40gzN3nT4T3y4y8WxaZ1RZxWi1ME5aqc3vFb6G1uUojzW9L26bH27zuIPQsQPdmO0vMIQQQong6dOnUBL9999/vXv3hkBH/fr1Q0JCIJDz8/PTfLo1Y3xhuU6dOhEREXFxcStXrvztt99I1r106VKSyV+6dEn9Ai0JmaVfv36kUK9evfTp07OBTEBAQKZMmSAQtWjRIkuWLJrvr+L17NkTSu4pvvc5+3jlgxKAc07hzE02ztOzrPKE1Kyyindja560CHmF9QyBO3G0XRPuATVsbLT1epRJ9Nw4fCTMZCZxtuTzInMYXt5n183lDSzMxZ8I2VyNAVk76u1ILfLTVsMW1h5nkqkdTwktrpicrkjjvNSwRvSBRbLl0Abn1itrcG5DtcjGyI4yXardwOGqYvugNt92wqz2H/FCCsAua1HisaCFVUtjF3FU263Rqto7R2Tn51y5X+VkY0x+xnS3TV4VZ+46fcLmGX+7yMS3aZ1RZRWj1WqP06f3sXXgixvwm28HWaUFGssx3huGbH+BIYQQSnCvXr2CEkfzpU2SvHnz/vXXX6tXrzbotzxhwoSKFStCwKlevbqPj+2/EwULFmzQoEFQUFCHDh2aNGli88Jv6tSpQ0ND3759u2bNmsePH9+6devff/89d+4c2brff/999uzZMB2HpP2DBg2aPHkyxCqrVq2qWrUqBO6JZs709IFn7izfAP0DLvThszLf38wxfOosnAHBNthdE/YLP8xhOp3g+4ubO/+C6yRw5U73FFdxTmp8gkjbIHgaWxbNb/l6CP34RPHYG3ERgcJlDbiybdzCdFwiUZ6Tap9tGtdIOCGXX0yV91rVYj0tjbLeXmh7tvhw7sfLsSNen34zqNIGu9Cdo8ehJpGyFid9NExw7q7TZfLbReT8po0/o9XScfEDH1vTX9yJ9uG2sTeMOfIFhhBCyMlIzlmnTh0IRKVKlWrevDkEnE8++WT69OmnT59WPOJLLUOGDMuWLWvYsCHEolGjRkEpIWXLli1//vyFChVizz9r1KjRd999x0ZJVq5cGRYWFhwcHBsbSwqdOnUitW3ZsmW3bt3mzJlDtvGbb76BSd0Wu+Ys6+1m7R/qOJrg+cB9WlbWHm8JgKaN9HSIS5wdqglJJQQsnTB52cZ6Bmb+woXQTZRgp7g6KYvikoTxKSMbCydO9EY5aTvJiZ/1zjm6bQ5SdLo1bmHjRN+5lBdWtM8/jWtEs23ZxVTK8PPA0kH57YXs/s0E4/SPlyNHvCbjZojftS/DC28ONQn7WcppHw0znL7rdJn5dhE5v2njz2i1dFz8iL/imPniTtQPt429YcyRLzCEEELO16JFCyhRJalFixZt3759zJgxY6n169dfunTp2LFjJMM0+YisfPnyrVixYt26dT/99FNISAhZ1IkTJ8xccE4IAwYMgBKHJMkxMTHFixfv2rXr9OnTSW3nz58/adKkdu3aFS1aFCZyZ1JvbTjPctZfWeEvuKnzZNU5kOM/uAups9A9l0+c7aiJCr1HzHSvPPEMLMJ04ixiN96p68iWKB8stI7u0oXu3fypJnduK7SJdGNyPESF+JPGlS/HqIVV42hFnE7Y9Yo9RX9F0Og8YVgjejQa7nH1rDT9Yj3rrRfiE5jjB7Uh+454DQbNIFQ5PovW2Dl0bSLbTaKalSVPzvpomJRAu06X3reLTHybNkEYrVY1zsb3imxa+tUgdeax/cVt+sPtpD9mxnuDbjuP/zXV9hcYQgihxBAQELB27VqSKxJ9+vQ5cOAAG169enUS9qbq1KmTN29eNtwuX3311f/+979Ro0aRRdl8dHbCKVy48Jw5cyDgDBo0CErJUXzvc9ZDHxQTzj/SNSpEuyeorIcxmSgeHQFZ6hxCzoC4jMl8TQTC1QVpUmtipERP3KBruIg9Gyc42FzizFeCO42Xoed0XNVJ5dR5K0eogbx7o9RRk55tiWdUbDkOYB3AlaeQRi0s3wSHV6ykan92FFkf1iw8L5rvUm5lXCPhqT38coQJ5J1dw6W7R/nWoGes0uk5XTsr6tI6hEyz76CWU6xYtoH8EU+WaHfnbYNmgI+H1LSqhrVNvpMVjWy7SchHQ4yFjhPiB8nujwbdSM0nO5nhxF2nj1+k3reLTDybVl88DnOj1dr9vcJ/bOV3m4hHpv4Xt/kPt5P+mBnuDdh2uDebbLpsrO0vMIQQQonD39//NDVmzBjFK5qTjXbt2vEvambWrl27evVqCJKdhMqcyZ/w0IcxYYesd1yN9LJ2HZahF7qgh7HwGpd49JYUzjiE13fLLzWargnhGbBJeAkIQzvoaV6CpxdyIEm1npYIqydMXb/yDRVepUJXo+hXzRE6AtD3inDTGfUJEBIf/qJzjPSKGGG7pKzae36rSEc6HLJLH3xuDuexBi1MVkxrQYcLL4ZxSldHdfvTKgivrWHortPey8Y1ok1e1rqJwgR8i5PmFQ8Q2W4j+1NaqIe/JdLmUax9CJlmz0Etp1ixcGSYOOLVpMOSYYeCUTOQKluPQeEglJ4AbJZsCarvCltNEhQpfeT47bT/o8F9Y5nMH2Wctuv0mfp2kYlf0+qL12FusFo7v1fI7tb82DK2vrjNf7id9MdMuTfkG8e3qd1fYAghhJAzaT4re8qUKVBKdt4j+RUUUbzRqwzmcw8no5cfysrWrjEIOUzYvYdMZCHI1eDnABlJ2i9u25x//GbMmBFKCCGEUPy0adNm3rx5EIj27t2bVDdgJ6iEu+b8DmJ3TKpvrU0kql6ktF9iElYIIYRcXhJ/cSOEEELuLDAwEEqcxYsXQyl5wczZabRvAk5MtI+f2KmQsNm7GyGE3m1J/8WNEEIIubEqVapUr14dAtG6deuglLxgb22EEELoHYK9tRFCCMXH9OnTT5482bBhw6pVq5Jw0aJF3377LRsliYuLK1iwIATJBWbOCCGE0DsEM2eEEEIOO3bsWKlSpVi5UqVKLVu2zJw5c0BAABsiwcwZIYQQQu4NM2eEEEIOe/z4cc6cOZ8+fQqxDsyckYvC0yCEEEIIIYRQIti0adOXX34JgY5Lly7lzZsXguQCnxCGEEIIIYQQQsgUPz8/46dne3l5Jb+0mcDMGSGEEEIIIYSQWc2aNVO/xlnSvn17KCUv2Fs7OcDe2gghhBBCCKHEFBsbO3369GiKDUmbNu3ChQsbNGjAwmTGRTPnuAg/7/mtYjYFeMIAXlSIh/+hMJ2RyYbQBMFlI029jhkzZ4QQQgghhFCSePHixeXLlzNnzuzh4ZE6dWoYmuy4Zm/tqGnB0T6tfJN1ZmyLZ8DAIEv4yIg4iBFCCCGEEELI5aRJk6Zw4cJZs2ZNxmkz4ZKZc9S6cEvQwIS+pBwX4efhERIFkQvyrRtkiZ4fhakzQgghhBBCCCUpV8ychcTZxysfRO8wTJ0RQgghhBBCyAUImbNw8dUvIk64fxgorsRaR3jQCUXCcDKpdTQbSS/mcrEVvyDdq700cVZ01VauQk5vsVA/a32kscIY7+BoiyXcnw7XWKpqZsU03FJla4XWVK3UWkluYgG/IMU68nn5YOqMEEIIIYQQQklMvOYcHeztsa7uQ0FMmE+4v5TCCXkdjKCjyISyzI+kniO9YqwjSfrnHTuQTh0ZxE8sLMg/PCiSjiLjyIwa+SqZLu6QxVLWk0ucSc4pzRjTar63fziMENhaLInF+tANY3mrbygNLRaYUedpY2TyQMs0OoV8Y0iVxBHCKDKhbKVkUmsjQHZubSV+YrIg72BLGB1FxllIA3LN6+lZliws9hKECCGEEEIIIYSSgNRb2ycsBp7iTB9NJV3p9AzYZH28Mx1lORTHJ7xBkZB2spFCLgrTC52NpYnpQ7+kdZDUlaSUmpdTL8XCQ81BXMTIcLJQqXKbaMYrsr1YfsOmkVnD1/GJvw3Sxll8A/l5SeZtTbbpKHl+a10pHSnEYiv5trJODNsmLkpdQeGis6K9EUIIIYQQQgglLilzll3lJQyudMpGGd2QTDsbs4nVV5K5kSr8QoVMWrYSeiEW2F6srN83ndWORFS1cQbzykYpW5PD10F72zBTRgghhBBCCCFXYuYJYfyNuLKe0nagV5JZt2VAbzO2jebGuhxZrMFvAvaw3rdsdlNU6LaxHu4iR9sXIYQQQgghhFBCsZk5y27EpbftOoR2OxbvRrYSe1krcMktf4VZzb7FMkZXyU2S31zN7ph2AN02H6ltRdZ+4AghhBBCCCGEkp6tzFl40LUz3q1svhsyTYY5ql7dtErA9mLVsxr0pDYpLmp+NMl4A43yc1NU26ZEr6nHv8IIIYQQQgghhBxnK3OmeayYmsZF+Dncm1h4UlZ0cKD1CdTCdVvZU7qBMhmmj9QK94dJlVWwvVjxcdrCqJHhXMJLV2TX88JEdE4p440KcbS3NnuomrRtgqgQ/tHgtDu39Ro57SCu+UByhBBCCCGEEEIJxlbm7Bmwib6Pid6E6z2/VaSDHZPpkh5GlrXe1Cu8tkmzVzW9EMs9Hps9ThtuZhbmknWOtrVYn7CYSAvMK/Q657pC0wdxs+XamY76hlpr5OFviXS0D7uwJLI5h6w3ao/04mtInyCmeLU1XoFGCCGEEEIIocT13sOHD6HoMuIi/JRJrmOiQjz8DzlhOUlFUX/aLmWll35xMmbMCCWEEEIIIYQQQs5m5tnaiU3+Qul3l3BXNnfFWXh1tfRea4QQQgghhBBCicUVM2e4e/kdT53pXdnWZ7MJoTMeSoYQQgghhBBCyE6u2Fsb2Qt7ayOEEEIIIYRQwnHNa84IIYQQQgghhJCrwGvOCKEEh90iEEIIIZTsvXnz5sKFC6Tw9u3bV69e5cqVK3PmzGwUSgbwmjNCCCGEEEIIxcuECRNy585dmCpSpIiXl1fevHmnTZsGo5H7w2vOCKEEh9ecEUIIIZSMhYaG9u/fHwK5cuXKtWnTplmzZiSvhkHIPWHmjBBKcJg5I4QQQigZe++996Cko1ChQsOHD2/VqhXEyA0JvbXjIvw8PEKi2ABXExXi4eEXofF+KmGEy9bapvjX3ll7LR7LkW2E8XL43Uin1NynLkZ/k5zV+PGg+8GwnwtsDUIIIYSQKzlNQaBvy5YtAwcONNMl+/z5861btx45ciTEyA3hfc4IIYQQQgghJLh06VLTpk0/psaNGwdDtWzbtq127do//fRT586dYRC1Z8+e69evL1q0CGLOoEGDBg8eDAFyNwmfOSfUBS3f0IcPH4b6QuTa1G3gTrXX5eBGeAZsevhwU4AnhChZcOI1cIQQQgihJLN69eply5axcp8+fWJjY1lZLTIyEkpyz549y5kzZ/Pmze/duzds2DAYKhoxYsSOHTsgQG4FrzkjhBBCCCGEkEBxrXj79u1QUilWrBiU5EjmzAqZM2cePHiwOk9es2YNlJBb0cyc6SVSieJ6MT+Sv8ZEb3oF4nBhmHdwtMUS7i8brr8UgXVJRtewZNdxhUCY2Dqr0VVuraoqqZeomFJvIcJwsnIY7RexhBTUbSCrvYBfHAyn0/CLVs3EoyNF3ESwIeJovdm1N9S4CrJARXOBlDBGGiYEZBli/VRT8w3DKBenwbo0Qt0Y3EIV1edm1N0wju5y+FrL6sutQHc79GqvRbvCdPX8nMIAfn2G28lXnrHOyo8T56QL8w+3WKKDvWUjEEIIIYTczfnz56FE3bx5E0oqX375JZTkpMyZ8fX13bp1KwTUhAkToITcijpzJqfG3sGWsJiHTGQQyfikE2dyjsyNjGk1P5COEU6d19VlAx/GhPmQM2h68ix05yWhxRIUSUdBF13ZKmLCLOR8WzrXJuP8w2Fysnxv4YTcHOG0HSpB1hnur52Y6FVVi7DEkV6smpFBJBIXaWshpMlgvk0BzbTbQIbfaLIqi7+9qQdZQKBlmjh/EKmAbOtJ/bxjB9KR2p2rrRWWb6jD7NuNZPVi9enqtY8GoRF9yFFjq6O37cbQOU5kRzfZC/QHD32k1prLMTg6okK4A1/89MjZqL0Mt19pFUymrIbbadDkwoZZj1PrNwPtfk+qSicVuPttCAghhBB6dylS5fv370NJxdPTs3HjxhBwnj9/DiVRlSpV0qVLBwGFl53dkTJzjosYGU5yPGty4htKTomj50fRk/eoacHRPmHTxJHkjJlNKJw6S2fLngEDyUn0oTi9033FKjwDppHz8/B19JwfxsGyyGLpubtJ5LxdmpFUQay0nF1V5aopawebC+EayTb5RtPfG6SySWQWbpcFkkaLjr0EIcUtXpPOhjrI7t3IrV6oPBwNlqh14aQpA8XF6O5UOVuNoXecyI9ushQhGTSgtxz9oyMu7pDFp5UvWwGZzFpNK5u7ksdXgfsYGTPcToMmZ/OJK3TKgYIQQggh5EpevXr1+vVrCCjFBWSFb7/9Fkqcp0+fQkn0/vvvt2zZEgLq8uXLUELuQ5E5x0XNj7b4eOWDkMrnRU7e6QmycFZtKeupPtvXoH+6fylWsQpPz7JibqE9ziRlzQwyDhn96YLqigkQQdtBd1LZGCk7MkOrzZ1AlsrLNkSDHRtqhr27UbX1Bj9mOES2PJ3jREhr5eOEhjBgx/EGo4RmcOCKvm5ryI4z7mNkyO7tBNrzxe9AQQghhBByJS9fvoSS6PHjx1DSUrNmTShxLly4ACXOF198ASUqIiICSsh9aN3nrMgI5FmPXoon9OQUGXbNpSfgQo9ZK2l6Oi7Bma6qBikzic9CNCizMPtFWW9AtdHL2JT45K5O242+dYPIoTKNXUelF7JN/ibhSGMI6b6z6B0d7AIvHP26CXQ8dqWJRNZ4O/WbnM4Xzm7WZ5xxnCGEEEIIuY70FATU2rVroaQlc+bM3bt3h0B05swZKHEyZcoEJerAgQNQQu5DK3NWJE3yPEjz1Jyc6nO3Pxv3cqWJuI80rYj2ULVxadIZ7KmqBpbhxnMhGuKTqLJEjbtR2p4u7nrik8o7bTeyQw+yNdriWv2bFRxtDHNXXk0wPjpI8gxDufufreK5K030XTDeTv0mp/NJFZNI/dIRQgghd/T8+fPTp0//S8Eg9G6rUqUKlKhHjx49ePAAAi0NGjSAkig6WuPiQoYMGaBEvXnzxuDZY8g1KTJnT99Wqg6YtOstve5Ez501cjzaiztooO2khjLq46kaRxftRPZVld9WrlO1fQuxheaZWg2iSkD1rhayqok3pzpCtlPpDmcZmOkqyDlpNwrbxf/GYiJtjkdj0G1V7XH7mTs66F3C6g+TfbWXtTHNeeEHD/pJ5fC/fhlup0GTq+ZDCCGE3M69e/diYmLWrFkzYcKETp06ffrppx988MHHH39ckFq1ahVMh95h3t7eUBLt3LkTSlrIUQQl0eXLl48fPw6BSH3zs/Ed1MgFKa8509Q53Pps57gIP/9wMQ9gDwwKlp4ILFwfE6aUZdRsDit6ws0/uYguhVsFyTVCxJ6r8tUrF+UEhlVV4e5JFR6PJLaDfQshVG0gwx6KZW0QqTlkPWfJUL310MVLWZTw/GZ7Mz5+Q0PIaqTEz2wV5Jy0G4UjRd6vn3vhEVkqH0ocbwy2reLR7UgzUvpHh1Bl614WEmzVlX07a299nHZcRKDw/C7x0V50B4xkm0JWK1uM0XYaNblwnHKffsX2CJstf14YOVwMuqQjhBBCief58+fLli1r3Lhxrly5ypQp88033/Tq1WvmzJlHjhyBKaiGDRvevn0bAvSuKlCgAJREJ0+ehJKWTJky+fn5QSD6+++/oSR68eIFlETqe6qRi1P11hYeDEzfN8OwbqdSj0x6n6Z0Zu09vxV90i6ZxzqUDIyUdTGlV9fYAuE0miwlJuyQ9Y7JkV5Sl1D2HGaxs2jsQKf0POYYV1UpKFJ4oxKdlvaglZ5jbM9CBOo24Mk2mqzKIj5pmpuNvjVKuEypxTeUm5/MrjedHp+wGM0NJcxWQc5Ju1HILvkroHSZfANqdU52vDFkR7f5jVXQPzqEMRaomLKdRXbVnixBXKCiLzt91DZUQtX+Rttp1OSk/g8jy8J8hLBgaQv4Nap/z0AIIYSSzIoVK/Lmzdu0aVNSsJmr7NixA0roXfXRRx9BSbR8+XIo6fjuu++gJNq2bRuURK9evYKSCDNnt/MeOTmGIuLRC3VltXIblEg0dgE3SLgAfsjUjc/INOMmj4+MGTNCCSGEEEosz58/b9iw4YYNGyA24dSpU8WKFYMAuSGyu//555+goCDFfcXmxcbGlihRAgLRyZMnP/74YwhUXr9+XaRIEf6R2h4eHoq7oxcvXtyiRQsIKFLPUqVKQYDcgdYTwhByBao+7rRHMnuDlvDUZ7temo3MMGpyhBBCyK3s378/X758dqXNPXv2TAZp89WrV4cOHVqY+uWXX2Bocnfnzp0ffvihYcOGX331Vb9+/f744w8YYT8vL6+CBQtCIFLft8xLmTIlydUhoB4+fKiYZffu3VASFSpUCErITWDmjFwW7VUs9lwmrLcOCHedO+0RbchKv8kRQgghN3Lq1KlGjRqZvGm5SpUqJGdeunTp+PHjYZB7evr06a+//ponT55hw4adp3788UeST8LoZCc2NnbBggUjR44cMmRI8eLFp06dKj3j7cqVK6zgmGrVqkFJdOzYMSjpqFChApREhw5ZH9B6+fJlxQucM2bMqHj9FXJ92FsbIZTgsLc2QgihxNSyZcuFCxdCIJc7d+5atWp5e3uTXKtw4cKFChV6//33YZw7I9vbp08fzYzx5cuXqVOnhiBZ2LVr15QpU0jaDLHKtGnTvv/+ewjsR1Lx4cOHQ0DVrFlzy5YtEGi5e/du1qxZIaDatGkzd+7crVu3RkVFhYeHK37H+fbbbw3qj1wTZs4IoQSHmTNCCKFEQzKc2rVrQ8Ah2fKIESO+/vrrFCmSVafLCxcukDRM8x3CzJ07dz788EMI3Ny+ffsmTpy4ePFiiHXs2bPns88+g8B+s2fP7tChAwSit2/fQkkHOeoU2XXz5s31qrp58+ZatWpBgNwE9tZGCCGEEELJx8CBA6HEad269fbt2+vVqxf/tPmNCOIkRVI1T09Pg7S5cePGySNtvnLlSu/evX18fGymzQUKFIhP2kzkzp0bSpyYmBgo6VCvVK+qZcqUqVKlCgTIfeA1Z4QQQgjFF3YtQS5iz549lStXhkBUqVKlnTt3xqfH8ooVK1auXHnw4MHY2FgYZLEULFhw2LBhbdu2hTjRbd261fi6JanbmDFjcubMCbHbWrRoUUBAgJnXOH3yyScbN27MkycPxA7Ztm1bzZo1IRCNHTuWpO4QaJk5c2anTp0gMLRr1y71UYpcH15zRgghhBBCyYTmk5x+/vlnh9Nmkir7+Pg0btx43rx5fNpMXLhwgaRzI0eOhNjQkydPFK8pWrVq1WeffZYhQ4b06dN/8MEHaSiS5X788cdNmzadO3fu2bNnYVItZO0NGzaEQMXDw+P333+PiIgwTpujoqIWLFhAMvANGzbs3LnTeI1JgtSqbt263377rZm0ec6cOfv27Ytn2kyonxBGqF/IrFC4cGEoidQdHPLnz0/aHNNmN4XXnBFCCCEUX3jNGbmIEiVKKPLbMmXKHD58GAI7zZ8/v3Xr1hDoUz+PasmSJSQdLViwYP/+/UlIqlSzZk2SOe/Zs8fb25sMCQsL69atG53WSKVKlZo3b/7FF1+wuXizZs3q2LEjBHKjR4/u1KlTlixZINYSExPTt2/fTZs2QSxaunRpkyZNIEhSu3bt+u233xYtWgSxlgEDBrRt2zZlypRv3rwhre3EB6FNnDixZ8+eEFAHDx4sW7YsBFrIYaaeYOzYsWvXrj137txnn31Wu3btpk2bGu8X5Mowc0YIIYRQfGHmjFzBjRs3cuXKBYFoypQpnTt3hsAeml129Zw5c6ZIkSKsvHjx4hYtWrBy165dSZJM8qVly5aRsFatWps3byYFkj7dv3+fTmJK/vz5GzVqVL16dbIE9jajChUqHDhwgI2VdO/enaxRqokeUgc/Pz8I5MjwjRs3QpBE9u7dSxLOlStXQqxl4MCB3333XcK9EvnRo0f/+9//fv31VxaSHF7xxmZN7733HpREFy9ezJcvHwTIzSVub+24CD8Pj5AoiOwSj1mToagQDw+/iDiIkgRfBbpzErg+dB1UEm+4Mzm34VRN5M5tRuuejD7wLvCRTQjCZiXCbkpuR0OSsLWvkukhit49J0+ehBKnVKlSULLThAkToCSqWLHijz/+OGjQoCFDhlSqVAmGUiwxZn7//XcoWSwk9bp37540dsuWLW/evDl79qxdaTNBErBffvmlQYMGmTJl6tGjx59//qlOm3v37k2msZk2k4xUL20m9u/fD6WkcPXqVZKvfv755wZpc/PmzY8cOTJixIiES5uJjBkzhoWF/UXt2bPHTNpMjBo1CkpU9erVMW1OTmxmzvSvrRz+cUWJLS4iMDjaJyzmIbEpwBOGIo6qiRK9zfC7AqH4UPxAoP5A4ecJIdsuX74MJU7x4sWhZA+ShJPsFAKK5MD79u0j6fTw4cOHDh06ePBgGEFNnjwZShYLyeugZLGkS5du165dEFCa6b15r1+/njRpkr+/P8Sc0aNHQ0nf3r17GzVqBIEWktLbfP1SApk1a1aePHkUyScvV65cS5YsWbRokbrvegKpRpl/UnefPn0GDBjAyiT/J7k3K6PkwdQ1Zzj7Fr1DmUuSXepwr2ssngGbbB4W8duiS7HRFp9WvsntwJM3nJObKEna7N39rng3+YaSvRzqC5EB9/pGcx38ByomzBLsbbYV1Q0u31e4Q9C7JVOmTFCyx+nTp6FENW7cuEuXLhBQim7h165dY4+wunfv3vXr19lAwtPT8/jx4xBQadKkgRKHJORff/11/fr1SU7erl07GGqPbNmyxcXFPX78GGIdISEhUBIp3sBEklJ1l+OEtnv37nr16undts3MnTv35MmTTZs2hdglpUyZcuTIkecpslElS5aEEShZwGdrI4QQQq5O+KEtMsgS7o+XnhFKHIoU9JNPPoGSSN3dmg0hKTQLmfz58/OXoAmSYJMsFwJRz549//zzzzVr1pDMmWTRZO1btmwhWW7evHlhCltu375dpEiRjBkz5syZs1atWoGBgVOmTFG8gnj16tVRUcpfzRQVJjNCKbH069evSpUqkZGREMuRXHTs2LGkkm3atHHsRxCTxo0bN3jw4N9+++2ff/6BQY7ypCBAyYiUOdNfoCl7fobmu5Mp/ppbF6juY2adzWhl3BI0JtNbvjBciK3rUKxdr87CcLIeGO0XsYQUvIOjLeREBYYI08qnIthga20Ua5Otjt8MWJDGjMIY9Yq16K6Vbxx543HVkQ3n6c+tR1iqtQqqdZjcIm4+bhpaG/9wiyVauN6iUyF+Vn4C2abwY+gIvh50gDiBEJCR4txsMLcs+QborVx/DokwKx1lsom4JRJ8dWVNFKEcINZKr6rCcBLDaFg5N7FssxzDr1qxdfxWKTfcOptRHfSWoN1eArpc5QBpViEw3R5G1VeyTquYUlZT2eL1VsvTnZsbwa1QeyjBrUu9LfxKxHF0GLdCzYoIS9U+uPn1KTaOW5LuZjOa69SgVX9Kd6vpCH6JwgBpAiEgI2FuGMwtS1YV3ZXbyTcwzMcSPT/KcAlCJdQNTqtAK6U9XoXbFqN2RSj5evPmDZQoRUioM+eH9LG7V65cYSGTJ08eRfr6+vXrzJkzq1Nxyfbt29OnT1+zZs1Ro0ZdunTpxIkTM2bMaNu2rXSVm3wu27dvz8pqN2/e3Lp16/Tp04OCgsqUKRMREQEj6HuwoKSjSZMmiZw5Dx06dMyYMRCoTJ069c6dO71791Y/+M25vvrqqz59+owYMaJr167e3t5FihQZMmTIX3/99fz5c5gift6+fXvr1i2yK/fv3//YVr8A5LJY5kz+pNK/oxT5Y2rqr6Twd3hdXdqLTOhH5kNO0qX56AItYj+zmFbzA61/msnyYTYyk+7P57IlRFr8rfUTkD/p1rGsDxtfZyFfGOkF8waRSFyJUZ0FpG4w36aAZqF0EoslKJJObu14ap2KLYJ8f3nHDqQT0bXxzUDyF5ifjCMzyjaXxIGWaTBSmlHoVKe9YhkyvcbMBGkccYQwiqyF23yuOhZ/2bYD/bnN0VqHiS2SNxWZWtqntEczqYjYb1HdNZRUmZvVul2yo0RYhrL9DZEmFfeqsMqoEO6Isx7QBrtYZw5tZna67vaomihAq81MHI3Swe9p6lgxTVh1In1XcEuI3/432R6ylai/imQS/SOrfQiaOpSV22K0m0R6FdE+uOXrk+8d2drIZsu//nn6Gy+nV3/jrbbJ+QeJLZ6+rWymzra+Tez+Qrb3s4NQMqFIlf/777979+717NlzypQpM2fO/Omnn0hqCuNELCMiuS4LGZLyKW5sZjlz3bp1Wah2/vx5KFFeXl4dO3YkCfC1a9dIGvn06dMHDx7MmjWLPWHbpnbt2q1YsYIUbt++zT+6TI1s3eLFi9WvIE5Q06ZNg5Lc4MGDSUuSND5BrzMzFy5c2LBhAwTUuXPnhg8fXqNGjQ8++OD7778nLRMUFET2Qps2bZo2bVq/fv06depUr179s88+K1++fOnSpUuUKFGsWDFPT898+fLlzJnzww8/JNkB/5ruVKlS5ciRg+z6SpUqZcyYkWzU/PnzYWXIfdDPRlzUfPl5Sfg62Z91co4n/OrMSH8+hdN1KYvxDBhIztMPxbFxUdOERxNNE/8ckym5P83kZB5mozNpnwPIl0D+0AtpgCguYmQ4+ZsvLtMzYBo5CZDX2TrWN5TMKq7EoM4MV2sD0tLZIoTzD1iqb11VM4hbK68Jw1VTuJSgaHcb9GYmrSWOgFHRsew7XLjzNaiuVB1rU3D05zbHzDrUFE2luU91wNEgzSquU3GUCCNU7W+MW6glLu6Q9aZh6wFtsIt15nBYfLfH9tEoO/gd249J/10hLSH++99Ee5j4KuIl8kdW+xA0dygrtsVwN4n0N0OD0fEoXxtZLBmnw+Q69epvvNUmOP8gcQlGewehd4fiKVkkke7atevEiRNJBtWpU6eBAweqX91UoEAB8m+c7MzSkiFDBihR/v7+7C7iL774gg2xC0nJSDLGygsXLmQFm3r16kX+JfkhCyUk2ZNucg4NDR0/fnwip81EmTJloCQi7Xzq1Klhw4aZ76keT2nTpoWSlhkzZpD9PmXKlFmzZs2bN2/ZsmVr164le3/Hjh3R0dEHDx48evRobGzsmTNnSAtfvnz55s2b9+7de/To0dOnT58/f/6SUvwQ8/Dhw9atW7N3fSM3YurjQf6Csl+eBRonTBI4Z4laF26xlNXr3q8coXWiI5zcySfM5+UDJXZ+4uPFPeLd07OsPAWWzl4Ewqz6Z3CyMeYeqCRbtwK3Mu2N4NenWpA8jTdmz8wwSlh/uMkuBRx7auXYOjSOGLpPTZxe0p99NPaI1nDa/qZP/2QHkVAdkhUqLrsY7WLtORwW3+0xcTTKDn6H9iNZSKJ/V+gsIf7730x72P4q4qkO0wT+yGofgtpDjT+CxrvJgO4WGh2Pxl//NmmsU6/+xlttgvMPEpdg+9sCITfj2JOiFakOWciCBQsg0PLVV19lyZKFFG7cuMGGMIr8VnqudZ06dfLnz8/KjqlXr96hQ4cKFiwIsT6S0Z2jIBblyJHj+PHj7MVL/fr1g6GJq1u3bilTpmRlPz+/AwcOhIWFkZSeDUkcuXLlcuyN3/EUGhp69epVCJA7oJkz7f/Fk+UMBoQeXSLhrkqO6iTRLsK5hi76V112bUu5cg3SeYpBnZ2MbgQ5j7LS73PoZFHWG9T4dXoGbBL66EGddM/GdeY2x+Q61JRHjD0nyxrnxJRiOD1jdRC78AWHnZh1GO5izTniJx7bY+/R6PB+1JFg3xUCvSU4cf9rtodDX0XaEuQjq30I6h6Yxh9BU7vJ9HeH0fFo+PWvZnKdevU33mq7JPRBYqX3jeckSfi3C6F4S7jXKdlcsnSzruLNWIqbnH18rN8yffr0gZKjPv3009OnTy9btqxr164VK1bMmjUrjFA5ceLEvXv3IBClS5eOZPvsxUswKNF99dVXJLHfv3//wYMHN27cWK5cORiRuKZMmTJ37tx69epBnFguXrwIJeQO2DVn+IPPWLseGyPnK9yNY8r+dPH7edrw5IWe/8qubVFGF7jEMw3jOjsZ3QjxRjErU40bD/Ib1NjtbFZkV4tDNe8INJ7bHFvr0KY8Yuw5fda7fqMYTs9hHUcyDgHLOuhpsa1drJ4jfuKxPQ4cjY7tRy0J+V0h0FuCc/e/uj0c+ipSS8iPrPYhqD3U+CNoczfZ9d1hdDwafv3L2bFOvfobb7W9EuwgEel1snGqJPrbhZBTaOa3jqXTirmMn7c8c+ZM6f1DT58+ZQW1L7/80svLCwKLpWPHjoUKFYLAUalTp27cuHFYWNi+fftu3779+PFjkog2aNAARotev36trhj5aEMpSeXNm7dChQplyzr++7ZTtGnTZs2aNZcuXZo/f36TJk1gaEKqXr06/0sKcn1Sb234g0+Y/OtI+7kFDdT680//7OolM6bQkw1+CfR0QSQs3/g0TjUrO9MwqHMCUG1EomCbGxZovBfZvXbqRjQ3tzl669Aguz2coVmOic4PtJU1VsIepCMfLpwTQ/dKOhvP/PkyveeP1dbkLubmcJiN7bHJ8aPRjv2oI0G/K3SWYKu96Gwc81k13x62v4pMSIyPrPYhyA01/gia2U32fXcYHY+qcXTRWsyuU6/+Nr54XOggEQk3ICf83zDHvy0QSnpOzJwLFy4MJWrTpk0TJkyAgNOsWbOYmJgOHTpATJ8lBiWVrl27QolKmzatwWOlHZM+ffoCBQqQPBlikWbm/ODBAyghEUnjW7ZsuXTp0uvXry9ZsqR169bFixfPnz9/1qxZjW+HNilPnjwtWrTo37//+vXrt2/fDkORm3D8MQCyc5E44ZmitCRgT/MJlh6+KlwXsPOCm3BGY12C8DBY7syJLj+cf8xsVIi8O2y09TY+/kzDoM7a6AmEw89yEZ5XwzWDPQ3h+IrpnNJ5mqzl+FZip5yqKxcGc5ujuw7jLZLvb1izubNw+lQg7mgQa0BTJ24429/SOSdb4zQ2lsxjfCzI9hx3c6T+Ltabw4BxE9nYHpvsOxr19qMwk92dtxP0u0JvCTbai40eyeYi42wc6TrtYfuryISE+sjK2lI6BLWH2vgImtlNxt8dqoPb6Hg0/PrnGa/TSrf+xl88LnSQCIRaC8ew9cmFwhCdj6OqwRWMxxt+WxisFSEXkDp1aihx9u3bByVDa9as6dix45QpU1hYrVo1xQXhnj177tmz5/79+9HR0efPnycJM8lFFy9eXLp0aZiC0rt2WrFiRX9/fwhEjRs3VvcQli5fO2bFihVr166FgKN+wdKTJ0+ghFRy5szZtGnTP/74IzY29t9//719+/azZ8/evn378uVL0m4PHjy4c+fOjRs3rl69evnyZTJBXFzc2bNnT58+ffLkyePHjx89epQcIUdEhw8fJhM8evSITLxw4cKff/65Tp06sCbkRuBCsy7hmoSS2IuLG+cTFknyF75/Fz+j2FWN9qXj+4DRidSdwhjrEoT5hYifUtYvj+sLB+vgRsuWr19nYYy6T511BjZOORUdza1BexNF3AjlguiMqiULdCqlPzO37WSN/LT8GI3FUvpzy8hGmFuHMJXGYBE/o7wN1RusIJtVt/WVC7COFMYIkTgrXZ68BrJFqSsn4UbpzyERJuGrJc2is7GyVcmnUS5KPYCQza+oqmJa7f3IhmpvjWzhQJySG5ew3xXy7ZBVSdkY3BaS5QqRNIUwn2Jy7fYQ8GNUKxEpl0hnkgbwi3DmR5bffmvbaQ8lZFsiH0Xws8mqJ02oXxGBNL91IL9Ixfqso4TJhUhZH8Z4nTx+Zfw0hlvNjSRjhEiaVWNd/KLko2Qr0ashnchaAb7CjLIJ6Ax6S7POz6ZQLF01XrU9svVzM+qvlZxQIpTkrl27Boctp2vXrjBax/Xr16UHdzVo0ACGvn27efNmNlBSvnx5lj4Z2LRpE0wtt2XLFphCpW3btjARTbxtrkLPqVOnRowYAQuSu3nzJsn8IRBlyZIF5jRt3759JCeEAKF3zHvkrx18epIJemWgrMl7tRFCCCG3FBXi4X8oLMbRe6YdpL/WjBkzQgmhJFWqVKljx45BIFq1atU333wDgdysWbP69et3584dFg4dOnTIkCGsTAwbNowMgYD6+eefbb5MaOPGjSQDl67x1qxZkyyzatWqLNS0evVq9iyxAQMGSM+atsvSpUubNWsGgVyTJk3IWJI5T5w4EQaJnj59Kr3myqbu3btPnjyZFEhVFVfaEXoXON5bGyGEEEJJQ3hRtOx90okiadaKkF0CAwOhxCF5bEhIyNmzZyGmdu7cWaFChY4dO0ppM1GpUiUoUX379lW8cJhk2lDS9+WXXz579uwidePGjS1bthinzQRJ7AdTjqXNxPfffw8luXTp0pHFksKHH37IhvCiokzdfPHvv/+S9JulzcSBAwdYAaF3CmbOCCGEkJsRHuGR4M8KU0matSJknx9++AFKcqNHjy5atGju3Llr1qxJ0tR27dr5+voqMsDMmTMrMucPPvggLCwMAipXrlxQsiUflSNHDogTmOIF1JLVq1eXKlWKFHLmzMmG8Bo0aLB3714IdJDs+tNPP12+fDnEOveTI5TsJb/e2gghhBBKbNhbG7mOmTNndurUCQJ7LFu2rHHjxhBwwsPDu3Tpwsrz5s1r1aoVK7uUhQsXtmzZEgKqbdu2v/zyS5YsWVgYGxtbokQJVlYg87Zo0QICuQULFqi39+TJkx9//DEECL0zMHNGCCGEUHxh5oxcSt26ddevXw+BOVOmTOncuTMEKtHR0Y8fP86VK1c8H3ydoEhuvHPnzpQpU75+/bpq1ar8u6MZzZvAGbJdTZs2LViwYI4cOVKnTp2W2rZtW9++fWEK0XfffTd79mwIEHqXYOaMEEIIofjCzBm5GpLg/f777xDYMmrUqJCQEAiSr717937++ecQOOrUqVPFihWDAKF3CWbOSQPPMBBCCCGEEtT06dM1HximMHPmzA4dOkCQ3JlsEz2zZ8/+7rvvIEDoHYNPCEMIIYQQQsnQ999/f/bs2TFjxkCsUqZMmeXLl787aTNB2mTChAkQ2Kl58+aYNqN3GV5zThp4zRkhhBBCKHG8evXqxIkTZ86cIeULFy588MEH5EzMy8uLZM7v5mOiZ8+ebe/vBaVKldq8ebPmA7oRekdg5pw0MHNGCCGEEEJJ5e+//+7fv//WrVshNlS5cuUpU6awt1sh9M7S7K0dFeLh4RcRBxGKB2xKhBBCCCHkaipUqLBly5Y1a9a0a9cOBmkh2fKECRN27dqFaTNCmtecSbrnfygsZlOAJwxAjtJrSrzmjBBCCCGEXMHz589PnTp148aNtGnTnj9/PnXq1B988EGGDBmKFStWsGBBmAihd15CPiEsLsLPwyMkCiKEEEIIIYSQqyEJs7e3t5+fn6+vb7t27Vq1atWoUSMSYtqMEA+frY0QQgghhBBCCBkRM2fhflxG665c61j5RWRhOInpxWVGHCuM8Q6OtljC/elwjaWqZlZMwy1VtlZhOJlUtVJrJbmJBfyCzN9zzG8zP5etanMzml8ZQgghhBBCCCGXRTNnkuv5hwdFPhTEtJrv7R9OxzFCiiiNfRgZRFJhWUZIYu/YgXRkTJgPiWje6htKQ4sFZtS5Z5pMHmiZRqeIDIoO9pZyXlIlcYQwikwoWymZVFwpHSnkqSO9YoSYVsI6MVmQd7AljI4i4yzB3srEWoOwzevq0lnoAvmaCXSrbdyUCCGEEEIIIYTcEMmc4yJGhpMEN9SXDvAM2EQzXlHUtOBon7AYGEsyYpKpRs+P4rJY61jPgGlk1vB1NjNTq6BIMaf2DeTnJZm3Ndmmo6JjL0EosK6UjhRimN7Tt5V1Ytg2cVFmK0ga4aG4xSQYGGSxHIrjrx/rVNu4KRFCCCGEEEIIuSOSOV+Kjbb4eOWDAYSnZ1kokVww7pDFUtZTzGGJfF7yLNanla91LJ1VnmQakq1XYDCvbJSsSnJ8HbS3zY4KSmSJu161DZsSIYQQQgghhJBbSsFyY11CLgi9oQG9e9mQ/Oqww6z3C5tYpza6bdHB3rAYgdnu0/zN0abnMWxKhBBCCCGEEEJuKYWNy6LCFWaLeJOzldSVWYvqiqz95DdXszumHUC3zQducray9gPXIbs5mt5KbQpeYUYIIYQQQuidsEMEMUruUqi7X1ui1lmvsdru3aye1aAntUlxUfOjScYbaJSfm6LaNlPoVgQNtJVfqxk2JUIIIYQQQig5GDlyZHVRv379Xr16BSPkbt++vYvSmwC5EZI500dqhfvD86HjIvxknZOFJ2BFBwdaH2wtXA5WPmhamndkOJfw0qzbrueFieicUgoaFeJob232dC9p2wRRIdZHg9P+4BqvjqIX2sWfC5QNYsS4KRFCCCGEUAK5SEGAUEJauXLloEGDILBYxowZ88cff0DA2b59e7FixapSFStWPHQIb+x0b8JbqdgzoOFmZuFlT7LO0cJzpiPLWu8VFibgO2v7hMVEWmBeoYcz1xWaPoibLVcjPzXiG2qtkYe/JdJsf2k131CyOYesN2qP9OJrSGhcISebTF82RWfwnt8q0nRnceOmRAghhBBCCYDkJAWos2fPwiDkqiZQ27Ztg9j1PH/+vFevXk2pkydPwlAOyZyhJFq4cCGUOLVr17537x4rHzlyJDAwkJWRm3rv4cOHUHSA8PbiQ7Jk2Z3ERfh5B5eNNL5pO4FkzJgRSgghhBBCKH7WrFnzzTffkML27durV6/OBiIXVLNmTSlnrlSpUrdu3ciOS58+PRviCm7cuFGjRo3Y2FiILZa1a9f6+/tDQGXLlu3OnTsQUIULF1b8arN06dJmzZpBIDpz5kyRIkUgQO5GuOb8jhLeVC29exkhhBBCCLmr+vXrjx49+tdff8W02ZWR3JK/1Lxv375WrVrlzJlz3LhxFy5cgKHO9oKCwITt27fzaTOxevVqKFGPHj1SpM2Ep6oX6/Hjx6HEwYtnbu2dzZyFe7Kd8QwyhBBCCCGU9Pr27dulSxcIkEvKnTs3lDhPnjzp06cPyTy7det24MABGOoks2fPTkvVrFnzl19+2b9/v83+tuqe2DNnzuSf73Xr1i0ocfLlU75biKwLSpw0adJACbmh+PXWRo7CH5wQQgghhNC75vfff//uu+8g0NK6devAwMAqVapAHA+XLl3Knz8/BJw8efLUqFHjE6pixYo5c+aEEVTVqlV37doFAdWsWbPFixdDQFPiSpUqQSAaOHDgiBEjILBY3r59S5JkxfO0S5YsefToUQiQG3qHe2sjhBBCCCGEElG7du0OHz78ww8/QKwyb948krt27txZ89FcdtHrAX7lyhWylv79+9evX59k0cuXL4cRlPoJ2HXr1oUSdePGDShxcuTIASXq3Llz6tdQVa5cGUrIPWHmjBBCCCGEEEokZcqUCQ8PP3LkSNeuXWGQyrRp07y8vEaMGHHpErym1gEkA9e85sx7/fp1jx49ILBYrl+//vTpUwhEoaGhZ86cgYBOAyWOInPmp5d4e3tDCbkn7K2NEHIbeJsDQgghlJwcPXp05syZkydPhljLTz/91Lp1a5s5sCaS6UyaNGn58uUxMTEwSGXWrFnt27dn5UePHnl4eLAyr1ChQufOnWPl8ePH9+7dm5UlmzZtql27NgQWy5IlS5o3bw6BaOvWrV988QUEyA3hNWeEEEIIIYRQEihVqhTJbEn+3KZNGxikMmDAgAIFCvTr1+/w4cMwyDSSBg8aNOjIkSNnzpyZN29ezZo1YQTVt2/fU6dOSWkzkTFjRpKlQ8A5f/7827dvITBB85pz3rx5oYTcE2bOCCGEEEIIoSRTsmTJuXPnrl69Ok+ePDBIZcyYMWXLli1RokSfPn3mz5+/f/9+u15kVaRIkVatWj148ABi6vXr18WKFYNA9Ntvv6lvw166dOl7770HgQlv3ryBEkdzIHIjmDkjhBBCCCGEklj9+vX/+eefkJAQiLXExsaOGzeudevWlSpV8vT0rFKliuZrkzU9efJE8darTZs2QYnj4eERHh7+9u3bw4cPR0VFbd++/ezZs02aNIHR5qRPnx5KnIULF0JJbseOHZ07dyY5fKlSpUh6T1qAf+s1ch0JmTnHRfh5eIREsSAqhByGYuBKZLV0TU6tohtsb0JIpOMv2bUu3SC/iDgItbjsRxshhBBCbubDDz8cNWoUSVYV3ar17N69u2TJkjt37oTYUNq0aaEkunv3LpS0lClTpmrVqtWrVy9cuDAMojJlygQlDqnD4sWLO3XqlDNnzhIlShQtWhRGcIYPHw4lzqpVq8gqpk2bdubMmWPHji1YsGD06NFk8xctWgRTIJeB15wRQgghhBBCroJkklu2bNmxY4fJh1FPmDABSoZSpkypuBR8584dKJl29uxZkuVCwBkxYkSLFi1mzpx58+bN2NjY69ev586dG8ZxyHZBiXr27Jn6YWPM0qVLoYRcRqJlzr6hDx8+DPWFSLhMZXwhCyFnkh9/BvDQlPEM2PTw4aYATwi1yJv2He3TgBBCCCEn8/X1PXLkyJIlS6pVqwaDdKxatUpxA7OeLFmyQIl6/vz5y5cvITCnVq1aii7fmsqVK9evXz8IOFevXoUStWbNGumR3Qqa775CSQuvOSOEEEIIIYRcUdOmTf/6669du3YNGjSobNmyMFSuWLFimj2o1TJnzgwl0bNnz6DE2Us9efIEYhHJ5P/9918I9AUEBJCqenl5QcxRvJ46Kkr3asOpU6eghFyGmDnTexWBeMFIuHrkFxFHLyJxgzWnBeK0hNYYYRgt+IdbLNHB3vyE3KxmL/nxFeHmEZYkhNbRpmspA8tRTa23XG5C6yg6sXw6YZDmJmouQIWbSr4Uvjm0V8DTbR1+MeJS6Drli5QP4qtutGqthVPaW+XYtvIjxY2jS+K2VHcrNQ5NQmuRgKujYoyMsAQyXntqYSiphThSGsNNLdtKvelNVxNqQ9GZ+KmFAdLaZAG/FGkgHUbnF6b1Do62WML95ZPoboisyooaI4QQQggxlStXHj58+MGDB69fv05Syu0UKZA89u+//zb/tip1gv306VMoiXr27Pk5Vbp0aZI/w1CqYMGCUNI3cODAmTNnkkK2bNnYEN6+ffugRK1evRpKyB3QzJmcvPqHB0U+ZCIt/tZTWJJDeMcOpMNpf0zhDNg6bWQQOUXmz6C9gy1hMWyUxZ+eQ6vQ7p+RQRaLD0xJlxsVYp01ptX8QNnJtRahIuvq0unJHGE+pKL8ibeQ+8BoMjLcX3YOb6KWIm77SZ1ZQjDSi84sXy5pw0DLNDohTMpG+dYlmxq+js9L1oVbfFr5Kvu/6i1AQaeh5PuF1M1CGkA/EyEbotk6eq3q6dvKxxI9P8paobio+dHiZpCqc5XSXbXBLtPeKoe21eBgFulupeahqVifI8e8iMwpHk203WXNxB1qbL02mlU5vT3VJBOyEfax9SkV+m2TDbNYoBbQy1t/Q0i9uCpr7SuEEEIIIaucOXMWK1asOkUK+fPnL1++fLp06WC0LRkzZoSSSHHNeefOnRMnTmTl8+fPz5kzh5WZzJkzjxgxAgKVFClSkNnJBKlSpSKh5hXytWvX3r9/n5UvXbp05coVVlb76quvoIRcBsmc4yJGhpNTXXa2TpDTX6lMcGPIOfC04GiSVohDfENJniEmVGzcNLglkixFyEFMios7ZM0mSQJjfGOlQMhypIp5Bgwk6zoUx53IW2tJR0pZn721tC7HN1DICUgMlWPZZCx0uSBLslaaTgqjaJlLnXUSZ/0FyOg0lGK/kDHT5GtV0Gsd3VaVT0bqISTOQQOFtcPxI1Zef9X6u0x7qxzZVhsHM6NfES3OPOb5dlc3k+yjZqJZE+WjybH/Uyow2pBLseQoqitVWWNfIYQQQsgVPXnyZDil6H7s4jw8PKAkevz4MZQoRffp33//HUqigQMHrl+/ftGiRUWKFIFBojdv3pQsWRIC6vPPP4cS559//mGFW7dusYKmhg0bQgm5jBRw8dArHwxQks5rBcKps6WsJ3e+nM9LzPC0x5nk6VlWuIameZXVNFmmKasJASPtrqVyORyh0kYpF4yiGXb4SNg0vcRZi8aytRtKWKiiprRyWvkrpdM6WsRRwsVza+rMpTxCUXb82GoXDixce6sc2FYbB7M+/QZw5jEv2/GqZpJ91Ew0a+J8NDnaO8QWow0R6qG49I4QQggh5ztz5sz/qNu3b8Og+AkODh5C5c+f/+zZszDU5eXJkwdKIsUju16/fg0l6tWrV1Di1KlTp3nz5j/++CPEHEXirXnd+MKFC6ygfgZYgQIFvv766x49euzcubNRo0YwFLkMuM9ZnonoEk6ChTNdK2vvVDrOYew6GDktFxZq8tRc6J4qMtv7NH61NBZlvWNT1mmX7+psmDjrLYCn21DKfNGx5MigVfnUWdgMSNxoWgb1Afo7Q2/h2lvl4LaaOZjNHzsJd8wLdDN2u5qVSNhqAoc+pUYb4hmwSejdDfXGBBohhBBKCDdu3ChWrNgoSvOxVQ6IjY2FksUyb948KLk8kppCSXTx4kUoUYrMmXjz5g2U5Hx8NE61Fclw8eLFocQ5ffo0K6ifQNauXbvIyMiJEydWqVIFBiFXApmzuSuELEOR7iGV0D6WjmZqEnJaLmCn5jZPomX3TtK5TIl3LXUImZjs3lt+NdbUWT9xNlyAnHZDKXMwh9Ilw1alqTNdC5c4syuIPtIsIo2evMa7THurHNlWmwezXcdOgh7z+tfHzTcrk7DVtLLvU0rY2hCh6zzBEmiT2ThCCCGE7LB27VooWSy3b99WvFLYMf3794eSxTJs2LCIiAgIXFu+fMozrxMnTkCJUmfO6iGMurc2oXjFlDpRJzZs2MAK5ASIFSR3796FEnJJKdiZre6lLzmun6WKahztOWs/eoOmzeyH9tll99naxVm1VGC9hMMCWTKpIqbOEfqJs/ECtHANRR9DJm8yeqlP3v/XNhutKqxG6BTNJ84sLzNz/JjbZdq73+y2mjqY7Tt2nHnMy2pGq6F/fdxss4J4VFOZWNPmtMHcp5QytyHs9mc7NhghhBBCJinedfzo0SMoxUP9+vXbtm0LAb1Yunv3bghcmDqVVTyX+7///oOSSO+as4eHh6+v8kxb0bZFixaFEke6XK/uCv7ixQsoIZeUgpwE00dYWR9rGxWi3xFTmDY6mHumrnCpFOaklySlccJjePWTCHo2Ld00yy9FnlGwTrUal7bo2b544k6mMu5xy7GnlubJMzb1UtkDtoKDdbtq21oA0Gso+VbBAuxLxAW2WpWlziFkvVxOTreNO36EtWsdQfoL194qh7bVzMFsvJWKQ5Mt0hnHvMB6Ty99bpbRHjLbrCLHqym7EZ/MpbcRejtEjh7J/A32BhvCbxH77YhdghfWhJ23EUIIISdR5H56F1HtNX78+FKlSkFgsXTq1Mn1L5nmzp0bSiLFY7rM99Ymvv76ayiJpHuYmcyZM/v5+UEgevr0KXsp9J07d9gQyfnz56GEXJLQW5vdbCjdI+lvkZ6Dqyb0rYwsa71rUXgvjvVxvg8jg6JhnPDqJuGylDZ6hQkmJSfIZKnCq3IY2meZf8iuVo9WYQ5pXd7zW0Ua9G6Ws6OWdvAN5ZqQtKBqoULyQuhe6rS5AEq3ochWsdf9cKP096Iem61KU+dwWeJM0JUfEqtFW1Vj3foL194qx7aVzGXrYDbeSsWhSYc45ZgnfMJixE2i3cWN95C5ZpXYU02hb7QVv8nCXPKxEt0dIkcvR7MdAGmx7oaQg77VfKiwiQZBCCGEkCNevnwJJUp9WdUx2bJl++233yCgl1IHDBgAgat6+/YtlESKIerGUXTn5lWrVg1Konr16kFJpM7VCdap+7333mOhZMuWLXw3eORq3lP3sHclUSEe/oeSxwm1sCm62QZK9lzqUKZXlsu648Gofg0jQgghhIwtXbq0WbNmEFgsbdu2deJtyf369RszZgwEFktYWFjXrl0hcD2XL19W3OpcrFixU6dOQWCxdO/effLkyRBQX3/9dWRkJARyd+7c8fb25t/JTBZFFggBtXr16gYNGkAgOnLkCJnx4MGD5cuXh0GckJCQbt268Sn3hAkThg0bNmTIkJ49e8IglBTgCWGuSejRan0NrXujvVvtve8YIYQQQgiheFHkinPnzr127RoE8darV68sWbJAQN9WtWnTJghcj81rzmp//vknybchkMuaNev69evZQ7ZTpEixbt06RdpMVKlSRfE88wIFCuTPn58UypUrV716dTaQFxoa+tFHH40ZM2b27NkrVqxYu3YtaeSHDx+Sf/fs2QMToaTgyplz1LTgaAceAuaKbN7VihBCCCGEUAL49NNPoSTauHEjlOItR44cJMGDgGrTpo3iJcmu4/3334eSKG3atFCiNN/AvHPnTiiplCpVau/evc+fP3/69KnmvCS7nj9/fpkyZVj4ySefLFu2TPqt4eeff2YFtX79+nXo0KFx48b169eHQRYLSdShhJKCi/fWRgghK+ytjRBCCDkgICBg7ty5EFgsDRo0WLlyJQTO8OOPP/7yyy8QWCwdO3acMWMGBC4mU6ZMfPrz3Xff8Zn/s2fP0qVLB4Fo69atX3zxBQQOefXqFXuId+nSpRW5+syZMzt16gSBLT169Jg4cSIEKNG5dG9thBBCCCGEUDx9/vnnUKJWrVqleFVVPPXp0ydlypQQ0GyQf4m0SwkKkj3OtWHDhlCiPvjgg/Xr16dOnRpii2Xo0KHxTJsJssCKlCJtJjp27Mj/qGFMsR9RIsNrzgght4HXnBFCCCEH7Ny5U/Hy4XXr1mn2LnYYSf8CAgIgoHfz/vPPPx4eHhC7ksmTJ0+ZMoUUxowZo34aNnH58mV2t3bRokWrVq3KBiYoUh9FSq/p+PHjJUqUgAAlOsycEUIIIZR48CcwhBLf7du3s2fPDgH1xRdfbN26FQInqVatWlQUfacn1a9fv9DQUAiQLX///TfJn+fMmQOxyi+//NK9e3cIUFLAzBkhhBBCiQczZ4SSRM+ePRW3yJ4+fbpo0aIQOMOWLVtq164NAbV8+fJGjRpBgEw4fPjwihUrIiMjb9y48fbt2zx58pQsWfLTTz8tV65clSpVYCKURDBzRgghhFDiwcwZoSRBkjFFz+SEuIbZvn17xVXTM2fOFClSBAKE3Bk+IQwhhBBCCKFk7ssvv4SSiOTSUHKewYMHQ0k0cuRIKCHk5jBzTjJxEX4eHn4RcRAqRIUYjIwPYcEeIdZbUNgAigxVjTVNt8J0Ox1apCGHG8jxTXQp5pvV+EBLZhLoaEPxl1jHoflvBoe/Q5B52MgIuZLUqVM3adIEAmrLli2rVq2CwEkKFiy4cOFCCKiIiIjly5dDgJA7s5k549+95C0qxD/cEhT5UBAqe+QiEsgzMRrJ2ZGl0ZxdDj9aCCGEEEos1atXh5IoODjYua+nIlq0aNG6dWsIqPbt29+4cQMChNxWIlxzTsjc253zes+ATQ8fbgrwhDBhqC/B+YbyOXJc3CGLJaiulDLLx7oOJ15KjPcmwu8MVGRQuL9dh6BPWAzMSiX0/hfE/0DDjzCKP9PHoRM/7K4oyY74ZN6uCCFz2rRp4yF/TdTly5eXLVsGgfP873//gxJFTnnGjRsHAUJuC3trI+Q4kobHhPlEB3vjCSlCCCGEXBxJm8ePHw+BqGPHjtevX4fASby8vCZPngwBRTJnp78EK8k9F0GMkjspc7b2QzXIAYSJhF/LhV/NGdnE1mXAb+p0gH+4xUJSCzqYTS7MTkqwFDopLfMLU/4wzy2bDddZtmJS+UKFMWRmcQI2ipucX6GMbJHcEjUXSFgbSF4BGeUmWmfSqofeIoXhJLbWUJpZGOMdHG2xCJdFpRF0QroAxXg62joWWJerrpZxhZXUU9Nly2dVrZ/Q3g5grZ+yDno1l61CCMhIcVrFmk3xDBgYROq2zoFZZazto9oWvU0RWGfTrbwwiTgbbLDubFwt6Ai66kT/CPPVUC+ExOKy+PXJWBegmIRfMr9gvnqy4TK6c3OgivZXQRhOJrWOZiOtFVOukV+QbksocdupmItbHDdce6hiOcrV8yOlWgtL4jZBsyLCNNofds1FAmsdlWOUjKfktlW2RcJwEnNVkG+v5qYQwnCyHnF0yGKhYOvTRLC6WZeqv73ymqjqKc0ojNH9EtXBr4WfXn8twDqjmdUghBIdyZMrVaoEgWjBggVQcp4uXbqUK1cOAurHH3989uwZBO7vr7/+ypcv3wcffJA+ffp169bBUJS80T6jMWE+EDJcf9RIkhVIPUzF6WA8DaWR/JRkjOZwRhhC8APpIHk3WOV6+Ugs6yzbOkgeKuov4JfA15pDJrFjgTBMHKKoD49fNZuOb1d+NqNF0sga88sh6Jx87RRDlOPlsWxN8koYV5inHMktlI7iZ5KvnqMeYbzdBjWXLYqN0l4nJV+xuhqUYuV6hMn4rbUSlitfiSKUZiMRK7OppOnkU8nx6zWcjUbiislcXFGxbLrF8oF0kFRrQjaXakViWb1sVkVpSfKQRfIV8RTjaSirhM5y+WqQMfIaMQZzy7BR9ldB0ajiYqQJ5A0sn5eO06q0ApnOOpVsJro8bnGsqD1UtT55SGfiIygLU4mDSVlvdvlKGdkUdLx1AjoOIjaKXxjPcEr5UuVVopF1rGpS6+rk84krESelhEnk9YPFw0BxJmk2OlpahIl6irF8RjanrCr6hGl1VmljLXwobop8c6m3CKEktXbtWvrxtEqRIsWdO3dgtPNs3rwZViAaOXIkjHNz586dg00SHTp0CMah5Itec46Lmh9N97nI8AIa+SsId4nSq23R86Poz8rCHbM+rXzZXWyeAZts3dDmEzbN7K2XUdOCo7nJDRYeFzFSeN6VdbRvKPlDLlYRBEVa73I1U2vfUO7uPN9AcjIQHXsJQopfIFRWbCLNCqhBvaV23SSeclC2F2ndZFq/+F8AFSga0zNgmnXRxhXWwNXQWn3ZAUTQA5G769omne02qrkW2Q5MWOLFJkq6IkMa0HrrNbuIfSiOjTM8+HU+i7bozXYplmt+ctjbaJUE+Qgrj3YyrXrv2dhhetun38xmvgcMdpKa/VUA0mHLRpJYnN63ruqwkFrJ3NcM3anWTZN9l2nve+2hxl+zpva1zS9VnnO+iYyntN2g/C7lD0mbm2Lu68VpO97aUPH4Y2D+ONX86pUayuYfBoRQ0vD39//kk08goN68ebN48WIInKdWrVpBQcKXmmTgwIG7d++GwJ2pe56rfyZAyY8D9zmX9RTPEhg4TfD0LCukBWa7Z0mnqbZFrQtXr1UTzbx8vPJBSOXzImcy/JmFLDOzs9Yi2UmEbIH0kVuyytIK6J8VUsIJqqzeQr1Ethep2GTlSY6DtCvFFm1YYQ2yNuKqL5wURgdPg7MuexNnve02qrkGe1YZX+SkFy66ENYTbjVoIOODX+ezaIvebMKOCfeX9f80kCAfYa1J6d7jEwBbO8yOZoFRwioc+B7QX7D9VWBUhzSH+9w49jWjCT4W2vtec6jx16wd+1pO/0vLOd9EhlOa+JLlD3euAlpkY8x9vThtx6sWpF9N+8iOLr212PuHASGUdHr37g0l0ZQpU6DkVH369IGSqEuXLo8ePYLAbf37779QEu3fvx9KKPmimbOnbyv578IOpRK+oUJHLbim5uz7m4zOKxQUJ202/nKbqzV3xxe9WUyfcOYg3kvG2JhBQE+HdDm0yPijlYKGAcIdetZx8QNnWvR6CsuK7E6c9RjVPMHYcYRqst41qKptfBdtGlwigmPNZAJtlh1boZxUSA6cRK+ZzX0PGOwk85yxkHh8J+h8l2nve/0jwvBr1tS+Nv2l6pxvIuMpHWlQaypp/u9DfCXiHwNHjlMn/GFACCWWRo0apU6dGgLq6NGj165dg8B5ChYsOHv2bAiomJiYkSNHQuC2MmbMCCXRnTt3oISSL3bNWdapytpLzG7k9FPATkGdeuIt+73bmOIndtt/y23UWjiB8A+X7uOy0fuMnuRLE0uMW9Q4u3dokfFHKyW7RErR66ROuJAgnnlLqbPTEmfDmicEh6+ySciZt3ewRaoxORR5dhz88Ua+CoQasHTJqb9/2bEVyklpuuAExs1s69vLeG6TnLIQh78TjL/LtPe9zhFh+DVrc1/b9aXqnG8i4ykdaVD2+4B9fx/iK7H+GDh4nDrhDwNCKLF4eHh0794dAtH69euh5FTfffddw4YNIaDGjBmjvtfaYTsoCBJLhgwZoCS6ffs2lFDyJfXWhvMjIv5/hOm9V/Z1EqMnBBz+RIyOM7U0evFccdYmnHWb6leqU2vWNTEs0GSr0FMHuzZdIGyirN40GQOOLTL+VJXiGFZYg6z6dJdIV6UgdY5wWuJsXHOno3f2mT9AtNDGCxqoldmbP/idit3JaVcb0ppyHPsIy2/qZOiSnHBoGDQzR+/by9zcNjhlIYRj3wnmvsu09z031Phr1sy+tvNL1ejzrBqn+01kOKXtBlXPSn8ss3NT4iuR/hg4fJya3x0IIRfg66v87tq7dy+UnG3YsGFQEvXq1cspz9kOCAioTtWoUePSJe2/FQlBnTnfvHkTSij5cuA+Z23CL+/SdRrreQVB/5bKHmGigZ6MhY9kVzTIsuT9CIVH7AQHipc7uFUpl80W4y9VhEzqH25wBqBfawk9VZHOBaJCbHWOE56XwlVWsQ4d8nqzWls5tEiG1t6xZ8SwducaU9h6sSOrcYXVoq33kEaFKHYJe8JMMGlX/ezIvu0wqrlz0Usz/POQhF1jd0dn4TCWTofljWlw8Dsd30gsIYCfNxLzIwy3vluPdvqRc0pqot/MslbV/h4w2knmOWUhAsPvBKGsdRAafJdp73udI8Lwa9bMEWv8par6sDvnmyi+X7Lh0v3e/I9lxpuixdSnSZdT/xgI82p+Wzl8nNr7hwEhlKSqVasGJdHs2bMT6NXEpUqVmjNnDgTUmTNnwsPDo6JMfYPp2bFjx9y5c1n5r7/+2r59OysngvTp00NJRDLnBw8eQPAOu0Hdv38f4uTFaZmzZ8CmSIt4+xXtvCZeu6YXK+AuNf2/8PxU3rED5Z3e6E2IMJKMnt9K9pBTftnCpfPIIOk+MNbhTP8qun6trXxDSV3EJfpbIm11XKNVKGu9K0/YGpvX8clM1rWott+hRTL0Chpbrv2pI2n3mLBDYvt4eIz0ihG7PBtXWMknLCam1XxWf3Uz07MtYSKD7MjO7TCoebyJx4LA/5DQodGORUtHMRCPWuvxTQ7vSFMHv9ORI13cSeyTY93ZifgRZvvOIk7Kjhen7Dz9ZhbG2PoeMNxJZjllIRRZkvF3grVXh5X+d5n2vtc7IujKdb9mTRyxxl+q6g+7weeZ1MXkN5HxlLYalHyHiceI7MNhvCkazH2adNnc8fq0v0S1DhSyEgePU/O7AyGU9Ogn1QMC6s2bN0uXLoXA2dq1a1evXj0IqN69e5PsfdeuXRDbLyYmBkpUdLStXy+dR505Ewn0lDV38fLlyz59+uSismTJkipVqmLFig0ZMuTt27cwhft77+HDh1BEKInECVcouZNRhJDjokLoTzr4cXKW5NqgSbhd6ifrIISSRMeOHWfNmgUB5e3tfeTIEQicbd++fT4+yt/TmjdvvmjRIgjsNGHChF69ekFgsXTq1Gn69OkQJLAXL16kTZsWAs7jx481k+pk79SpU35+fhcvXoSY8+233y5YsAACN+e0a84IOYr1AzX/jiOEkC6hL7Edr9pG7yo8UBBCFsv3338PJVFMTAxJgSBwtkqVKg0cOBAC0dKlSx3u5Jw9e3YoUTNmzEi0K4Jp0qRRvKqaCQ9/F29Tef36dbdu3TTTZmLhwoU3btyAwM1h5oySWtQ04Rbn+D81CSFEP074aUI24YGCECK8vb2hxNm9ezeUEkC/fv1KliwJAfXmzZu//voLAjuVKFECSqLY2FgoJbwuXbpAiZNsMucnT55s2bJl/vz5iymyjw4cOKD3Im6y1Zs2bYJAy/Xr16Hk5rC3NkIIIYQSD/bWRsh1BAUFKe7OrVWr1ubNmyFIAOvXr69bty4EVFhYWNeuXSGwU40aNfjEe8yYMX369IEg4XXr1o1UHgIRSThr1qwJgXuKjY394Ycf1O/6yp0794wZM77++muIRZkyZVJklKNHj+7Xrx8E9LHt6o767givOSOEEEIIIfQuUmdBZ8+ehVLC+Oqrr4YOHQoBRXJ1KNnvs88+gxJ1/vx5KCWKOnXqQIlDsvd79+6dPHnyFPXmzRsY4T4WL16s+Yrsa9eu+fv7L1iwYNy4cSNGjOjSpcuwYcO2bNmiSJvLlSuneCpYsnlIGF5zRgghhFDiwWvOCLmObdu2KS6QFihQ4MKFCxAkGJJu/fnnn6Tw/fffe3l5sYH2ev78eUREROfOnSG2WCpWrLhv3z4IEt6DBw8yZ84MgY506dJ16tSpbdu2ZcuWhUEujxwS5MCAwJYsWbLcu3cPAmrUqFHk3/79+7OQ2LNnj+I3Djflopkz/llFCCGEEEIoQW3dulVxyTd//vz//vsvBC7pxIkTEydOXLBgwdOnT2EQ58qVKx999BEE9ti5c+epU6du37793nvvkZCk5dmzZy9dunSVKlXYBJKbN29OmjRp1apVZF1kshcvXsAIQ07JHh89ejR16tTLly9fvHgxVapUhQoVItVTvO4r/nx8fOLzAwSpYdasWZs2bQqxxXLp0qW8efNC4M4wc0YIIYQQQuhd5HaZ88qVKxs1agSBlsjISKkLOklzoqOjHzx4kJIiyVu5cuXYKN65c+cCAgL0Ho3m7+8/ZcoUlviRRYWEhJDMkI2yS+/evceOHQuBQ9QdBJjKlSvPnj27WLFiEOu4detWXFwcybozZMjg5+cHQ7WULFny+PHjrFypUiWS88+YMYO/tm/s119/bd68+XfffUf2BQmHDBmi6J/vvvA+Z4QQQgghhN5FgwcPhpLIle/L3bt3r3HaTJw5c4YVNm/enDt37i+//LJZs2aNGzdu0KBB+fLlK1SoQLJHNoGka9euBk8UJ+lf6dKlY2JiSHnZsmWOpc1Evnz5oOSQu3fv6j14jFT+448/Xr58OcQqJOUm2XWOHDlIGkyagrSJv78/G7Vly5Z169Yp2uT+/ftQslju3buXIkWKwMBA0nowiGrRogWUVJ49e5YtW7a1a9cepLJnz45vpUIIIYQQQgi5K5Iv7dmzBwIRyTOh5Hp69uwJJX3nzp0j/5KE0M/PT92d+8CBAwsXLoSAOn369IYNGyDQQbLHcePGkcLWrVvZEPPef//94ODgTZs2devWDQY5hGwRlHQ0adJk48aNEHAmT55MUm7Fjv7zzz9PnDgRGhpau3btr7/+ulChQnwj8C+RIu3z888/k0Lv3r3ZEGbRokUeHh4QyEnNXrJkyXbt2nXt2rVTp05siLtzKHOOi/Dz8AiJggghhBBCCCHkXi5evAgljnQ10tWEh4dHR0dDoI+90nnOnDksJIYOHTpixAiW/hGKvuhPnjyBksVSpUqVW6ILFy5UrFgRRlgs8+bNI1M2btwYYhNI6k4qTOYiuStJUGGoo/h66qlTpw774UAyffr07t27s/K0adP4C+Znz54lzQKBxTJs2LAjR468fv2alEuVKsUGMgMGDCD5c44cOSAWDRo0CEpyUua8cuXKo0ePksLatWsdfmu3S8FrzgghhBBCCL1zVq9eDSVO1apVoeRK9u3b16VLFwhEgwcPTp8+PQSi27dvHzp0aMGCBSwcP378kCFDBg4cWLJkSTZE4dmzZ1CivZSziQoUKJAhQwYYQd24cYNkzlOmTEmRwlQC9c8//5DcO1WqVBDHz/Pnz6FEkc3ZsmWL+ullI0eOhBK1YsUKVli3bt33338vdWUn4uLi+LqRJP/TTz9t164dKavfE7Znz54yZcpAQOXPn1/9SjNGSvLXr1/PCoQDl+tdEGbOCCGEEEIIvVuuXbs2ceJECETNmzd3VqbnXIqEkCBJ7LBhw9RXoWNiYmbMmAEBfX30gwcP+vXrV79+fTYke/bsrEDcuXNn9uzZENBe2VCiFG+HZmM7d+6cJ08eNoT56aefoCR3/fp1dWd4hy1atAhK1OPHj2vWrLlq1SpFlvv777/Pnz8fAovl5MmTrEAagfyryJzVD+6aN2/euXPn1Al5ihQpsmTJEhYWBrHFMnbsWC8vL81Hf/36668//PADSdqlvJ2w2SXeLWDmjBBCCCGE0LtF/aAsQu8qYtLav38/e0ozj+VsJUuW7NGjBxsikR731bVr1wwZMlSsWHHMmDFsCMkzAwMDWZn4+eefZ82aBYE8cyYJJMmrIaCkTsiKxPL999+Hksr06dOhFD9HjhyJipLdKMsuQWfNmlWdt/fp0wdK9IcDVpg5cyb5l+/LffHixR9//HH06NEQi7Zu3Zo7d24IRGnSpCH/skepESQhZ/fDDxkyRPM91VOnTm3cuPGjR48gpneYv3r1CgK3xTLnqBAPEX/7Mr2fWWRwX7PedMJiSQhL94uIEqbzi+A/p3jLNEIIIYQQQolL/cQpkoYZPDA5CakffBURESH1vi5atCgrSKQM7fXr1yTNO336NAvHjRu3efNm/hnXinSU5Mb//fcfKezdu5dkhnzix2vZsiWUKD5TVVi+fLnUG3znzp0Op47SpWOJ9BLpihUr9urVi5WZa9euSS3WsGFDViD58MGDB/lrzux+7759+0o3QjNv375V/xYgDfmc+vjjj1lIDBs2DEqGqlSpkjp1agjcFsmcSfLqHx4U+ZCKtPhDHkvy3UDLNDb0YWSQJdxfnvOKbEwX7u8x0itGGLcpwNe3lY8len6UdXRc1PxoS1BdXwgRQgghhBBCCerevXtDhgyBQNSuXTsXzG2eP3+ueA1yoUKF2rZtC4HFki1bNiiJpIvDpFCjRg2SPVavXp0krlKGSdLIHj16kKRafVP3qFGjfHx8SHJ46NAhGESlTJlSmtjf39/mk66ZJ0+eTJgwgRRWrFjh6+vLX+62S+bMmaEkYhk+8+OPP0JJRJJnViCb7yE+Abtz584vX75kZeLu3busMG7cOOldX4ULF65du3aZMmUUrWpw9ztpW/WPF2rsDmp3RzLnS7Fc8uob+jCUFUlpU4AnLZIgMIzkvLGXIOTZms4nbJo02jNgYBCfOmPijBBCCCGEUKJatmwZlDgkXYSSK/nzzz8V1375J0ITUp4skZ5QRQo5c+YkWev27dulLta//fZbrVq1Jk2a1Lt37y+++IINlAwePHjfvn0QcBS3GX/00UdQsmXgwIHr168nKyXlOXPm8Fd9zVNnzvzl6zx58iiehi09Wjx16tTS27AOHDjACky9evVYIVWqVMuXL59OnThxolChQmQg693NkOHqnyckGTJkILMrnh+mVrduXSi5M5I55/PyEa4Mm+gyfUjrhggN/HQ+rXzFvFngW5ekzsHT2LowcUYIIYQQQihxSY+elpAU65tvvoHAlRw/fhxKIkWWqH5dk/QYapKy3rhxg5WZP/74o2vXrqzcqFEj/r1TBiIiIpo0aQIB5eXlRXJvCGwhSeO2bdtY+cKFC6xgl0yZMkFJxF89JsqVKwclKioq6urVq6ysd+96nTp1oER1oqRe2eRgOH/+/GHK5tuYyR7Zv3+/wWTjx49X3zvtjkjm7BmwKSaMJs8CPoHmbn/2DjZ4f5rZ6QRC6mwJXyesBRNnhBBCCCGEEtO9e/fUL9dt2rRpypQpIXAl9+/fhxJFUjtF5kzyDyiJ+GvOv/zyCysTu3bt4rt5k0wvR44cNh+KtnbtWn4uSbdu3R49erRv374dO3YsX7585cqVMMLQBx98ACV78PcVM2/evOEvX5cuXRpKIull3T4+PiTPZ2XJb7/9ZvMisKenZxkKYkOpU6eePn36zp07ixcvzobkzZu3WLFiHTp0IAdbz5492UB3x54QRpJn4U5klkCz25SFR3dZb3+mozSZnU4ipc6YOCOEEEIIIZSopJyK17hxYyi5GMVTtfj7exl1j2teaGholSpV+vbt279/f/75Z2PHjmVdoP39/dkQhfTp0w8ZMuT8+fN6ExDswd2+vr6NGjVq0KDBDz/8ACN05MqVS/3CJzNSpEhRsGBBCETSjcqE4tcE4vLly1CyWPiHok2YMOHs2bNBQSQfcz6ydbGxsaRit27dunTp0qlTp2bOnFmtWjUY7f5Y5gw8A6aJtynTtNYnLNBWXmt2Og6kzhGYOCOEEEIIIZSo3rx5AyWO9KhqV6OoLQnfvn0LAZUnT57NmzeTRBdiir9Sunv3bpInkxT6ypUrMMhikbLozz77jBUYkk7PmTPn+PHj9+/fHzp0qKcnf9epDdJztjS1bNkyPq93Vl8i5neZ+qK0dO2XGDly5CeffJIlS5bly5f/+OOPhQsXhhEJg6zI4L5ot5ZC6GotPQyb5cFe+YTr82Ut1kd9RYXo9cI2Ox2PPkYsPJhMySfOtMu39uO7EUIIIYQQQk6g7qpNkGwHSi7v+++/Dw4O/t///keS4fDw8EWLFv3xxx+Ku52HDx9u8JrlmTNn5s2bl5W9vb35bScJc6VKlUqUKJEqVSoYZFqtWrXU/bo7d+4cFxd37969+fPn25WHK0gP9GI6dOjA/1iQL18+/k5sPz8/Pq+uUKHCsWPH7t69a5zbI5tSWHxDY1rN96Y3KXt4B1vCYtiTssngMB+499nD3xIZqXNN3+x0PE/h7VTCU7ftuVSNEEIIIYQQih++Hy9TrFix7NmzQ+DySN7766+/jho1qn///l26dPn222/nzp0L46gpU6aQPPPkyZOar6fu1KkTSTshoOrXrw8lKiYmBkr2UzxIjGTvJFktWLCg+uHY9qpTp87BgwfJFhFz5szhn33NLF26lDRLnz59Ro8erX4DNnKK9x4+fAjFRBQX4ccl6RoyZswIJYQQQgghhJCTeHl5kawSAorkeyTvgsDFTJ8+3a7XILdr12727NnvvfceCzds2LBnz563b9+mTJnygw8++Oijj9q0acNGSX7++ecBAwZAYLEEBAT8/vvvENjvwoUL0tLGjh1r/v1VyPUlSeZsM3HGzBkhhBBCCCHnK1y48Pnz5yGgRo8e3bdvXwhczLlz54oUKQKBLS1atJg2bZqH6mnbxiIiIki+DQF148aNHDlyQICQSPaEsEQSNU24xXmgbtqMEEIIIYQQcronT54o0mZCukLrgkiev3r1aggM/frrrwsXLrQ3bSZy5swJJRFJ16GEECdpemvbhNecEUIIIYQQcq7Nmzf7+flBINq/f3+FChUgcEkXLlwglSR27tx579699OnTZ86cOUuWLB9++GGOHDlKly5dv379dOnSwdR2ioqKUrw5aezYsb1794YAIRFmzgghhBBCCL0Thg8fPmTIEAhEe/fu9fERHt/7btq6dWutWrUgoPr37//zzz9DgJAoKXprI4QQQgghhBJdnTp1oCTKmDHju5w2ExUrVoSS6NatW1BCiOOi15wRQgghlMiwwxdC74Ju3bqFhYVBQJ+PpX4LsTH2XivplcjJQJEiRfh7m/v06TNmzBgIEBJh5owQQgghAWbOCL0jFi1adPXqVVKoWbOmt7c3G2jSH3/8wTLtgICAcePGZcuWjQ1XmDdvHslFU6VKxb/wyWWFhob2798fAovlr7/+Utz5jBCBmTNCCCGEBJg5I4SMvX37NkUK682eEydO7NGjBwScoKCgKVOmsHL16tW3b9/Oyq6MbMuECRNIITw8vF69emwgQjzMnBFCCCEkwMwZIWTszp07/EVmX1/fHTt2QCC6d+/ehx9+CAG1a9euypUrQ4CQ20rCJ4RFhXh4+EXEQZQsCJvkERIFkVJCbXBchJ98wXQARYaqxppG59TcGv0x8eHwUh3fRDsZ7993SpJ/ehOnAkm+mSghJdY3R8J8YfLwqwkhlGiyZs1auHBhCMj3T1TUhQsXIBAdP34cSqIbN25ACSF3ZiJzpn/1Rfi32eXFRQQGR/uExTwkNgV4wlDkjhRn3PT0WMaOs371zJgTIoQQQshezZo1gxK1Z88eKIn27dsHJVGNGjWghJA7s5U5k9Nt72ALS8OISIu/dB6f8L+jm+Ii1aB8Q0kbhfpClEBUG+wZsInPkS/FRlt8WvmKoWKs63De5bxE28RE2b82wG8iVEyYJdjbnqOfn5lIysPCebs/Xlzp6wMlNvPfHC5yuOpyha8mhNC7o3r16lCi/vzzTyiJNm3aBCUqXbp0WbJkgUDuzp07ZGLF9Ai5LBuZc9S6cIslaKB0akH+PuNfZ4Rcg3DiHxlkCffHi8cIIYRQ8nb48OHQ0NCtW7dCnHQqVKgAJWrBggUPHjyAgMqZMyeUqKdPn7K3WCn89ddfxYsX/5Jq3749DEXIhUmZM732Qpm5ACP8Au8dHG0hJ+10HnrmThfBn8OrrucIszFap/rWseq5SGytoTSzZjVgONDdGn5tfG1gbTBaGmNdu3blqSTaYGEoLdE5/MMtlmjhUiQsVBor0lstwW2lYowm65LEFdAFyNambhR1PeWjrUtV1oGrnmwlsk0UAjIjLEVeFwEdwS9Za27rmvgFqDYFVkKQyYSx4tR0SsNZrWvQqqR5voFhPpbo+VGOL4GybomqOkY1tY7T3wZufjYRHaDa/XQovxQ6QLe1YZgVvwXKuUisUVNhjNbXh5rGzIx1BMGvla+ObDiPr7LeyoU1COOs0yoWp1cF2G7rfGwNupsiq41ulVV0tsFmtWV0FiLbOMXCgXwj+OUoRmlvnzCMn06rInRt2t9WWosEXB1tbTkZb10QW6t1bsVWaFVQQGfgV8Stn+DHyFepWD5CyGUNHDiwbNmy/fv3r1Wr1t27d2FoEsmSJUujRo0goKKjyV9Tq6ZNm0LJYsmdO/fUqVM13/y8YsWK27dvs/KcOXN27tzJygi5LJY5k7+y9AySIqeR0t9Z37pB8gFA6BsWQ87YLUGRprt9kr/U/uEwfUyr+d7CuYhE+DsvjX0YGUTWKfuTTuJAyzQYSc5gWIU0q0EWxS2J615uJaxtXV02hbAAaYGArG2kF3ejMKm6tc866yKrsVSlxNpgK9r5MJLsMuiVq+4fYLRaMs66laThrIeEJmsjsRrS5Xj6tlLkcXFR86MtQXVlNVHWk6soWSrsGbKdsoup9uwEa91MdcVU0G57FeX+tdFePMcOKG3qJreX0cdBdlAImxlo3SNkOtvtFBXCbSmb3WD360v8T5NIdzNJlcQRdHushyupD1cdh76DeGSczqdCvwqU9XPA1kAyJe/YgTAxv0ZbDajNxjboV5tnsBCNY0d3qGITyJJknyr+8NHZJXoV0TlcjZqMjLPW0eZXqdm9ZNBSCrLvF2XlBNZVOvIFiRBKLDExMZMmTerUqVOJEiV++uknGGqxpE2bFkpJ56uvvoISdebMGShR9erVi4uL+/vvv2NjY69evRoYGAgj5NauXQsl6sCBA1DSEU7t378fYoQSHc2caXLDC18n/kH2DSV/oekfWkLnz7QpcREjw8kZKpwjk5MRulxR1DT6UCvxDNo3lJyoyJOBoEjxTzy9yGatoYpwn6+UqWl3LxfOhaTBngEDyVnRoThuZeQcaZr1hAKqLq7fM2CacQWYxNtgOxitlo0Tt5s0nHCyaISroXU5tDW5LdFKnI1Yaydfkp07QbYD7Wam7Y33ryHHDihnYKflQDqVNvg4yA8KYUqx1gIT7RQXd8h6171idjsk6adJb2byGbFuDh0VHXuJBs74DuLpfSoMqsBIVWdrILG4UvqjqHw3GzWgJlvboFttnv5CtI8dnSNKsQlkDPepkh8+OrvErj1i2GTyT43tr1KTe8lsBRXfL5r7M35fkAihxNCvX78yZcr06NFj5syZJP+EoRbL6tWr06VLB0HS+eyzz6BETZ8+HUqiggULli9fvnjx4hBrefv2LZQoRcg7dOgQWVoXqlKlSosWLYIRCCUuW08IY3+u6S/cLH82cSVCE31ulVc+iAhPz7JQYidDlrKe3F/yfF7yc0DZrAL9cxphVlJTO9N82Qkn94AtQrvqBidVVOJtsHlGq9UeZ0CWDnPVF072ooOnsea3N3GW14AQ28S+nSDfgfYy1faG+9eYYweUM5BTfeE6E2M9s1aDZqfPOVDuEomZdhI2jeTrjn5tiJLy02TPzDBKWH88v4Nk9D4VWvjaqarO4drIdgOaJpvJnmrzYDrtY0d7qMaRSg8RmjrTbyGjttCjX2FnfpWa3EtatEZpbS1dDJc6x+8LEiGU8ObOnTtmzBgIOFFRUfXr14fAnJiYmHHjxtWsWTNLlizFihXr2LEjGQLj4sHLyytlypQQWCxHjx69efMmBKYZpMq8xYsXlytX7uDBgxBbLEuXLoUSQomLZs60vydPnerQ/FlIn6ODue6a5tGTCV3CeTFc1wZ29HxVIlUVKgqL0zt5FXq+iWQdP1Vo1WUX62zMQCXiBptntFo6Ln7gnJ118acXe+xOnPU4thMSkPH+NZQg26JMUuxk8HFwJOPgsCtusLmOJtAu+WkSRFlvO+XX6ezvICM6VbBHPBrQKdugtxDtY0f3iFIeqfJ81cwnxPzWJPBXqR7TFVRsLf9DE0LIHZBcF0qiOnXqbN26tWrVqhAbOnPmzJIlS4KDg/PmzVumTJk+ffps27bt/v37ZPisWbPIkI0bN5JVhISEDB06dPr06evWrYuz4xdlQYoUKUg2DgF1+vRpKJn25s0bKFHqRJpMMGTIkBYtWkAseu+996CEUOJi15zhRI+xdhVTYh3EDH4B12f8l5ue4kg3oUl0qmEbu05OM33Nu+tUt4HBcE206rKLdZTRFTsicTfYJKPVyk8zHSKerUmps9MSZwd3QgKKx6mok7fF4QtqEuOPg0OfdxmS6sBySbrj0C0fLvlpErIY2Y21sg+QU7+D9BhXwTRHG9Ap22C8EO1jR3uo8kiVZ7A2uxnYtTUJ/FWqyZ4KKrY2Hj/0IYQS36NHj44ePQqBxTJ58mSS1q5fv/6LL76AQToWL17cpk0bklUWK1asefPmv/7665UrV2CcXP369Uk6PXr06GHDhgUGBn799deFChVq0qTJtWvXYAoTPv30UyhRZGlQMk2vt/b+/ftJwlypUqVcuXINHz6cDeTxTyBDKDFJvbXhRI9w+IRTdXrLn7kIZxOyMxvavQ7QOW2e2diN3eqmPvNXvmvLBlXVTUmKDbbFaLWqcTQjMyBbjrCrrdkbpM4RTkucHd0JWpTntQ6eVBruXzs/C/Eh3FNpx8GsweDjQNvKWccpvdtSf2n2NVnSf5rYLxZhgcaHt5O+g7SZq4JtDjagU7bB3EK0jx1uqOyGYIZ+sOnXD90+W584+7bGqMlU42x9lZpjtoLskYHyraXfz9hDGyF3obigWrx48YIFC0Kgg5y9V6lSpUWLFvPmzYNB+nLnzv3y5UsIOMuXL+/RowcEJijS18jIyGPHjkFgwunTpxXvsiJiYmICAgJIzkwSZpI/37p1C0ZwSD2bN28OAUKJy/g+5yj2/gpRVIh/uPVEjZ4fSE/LEcjucCXz8t3J6J/zcPGJpnHCs2dpiRGebSPrBy5cTDF3dUpZDbJe6QqPzuU4WT6grIoavdQuVV3Ar0NPom2wPYxWy/aeOE54gK3x2V609V5DemDw53T0WUXhwUJOp5s402TI9lOIgGM7QQvbMSPZrGT7Heziarx/jT8LztoWYe8JLW999BFZkN19og0+DrSm3AHDHS7myGagp/5ixwT17neJrw/z6JxSgiL7vPC70znfQdoMqmAfwwYUyppdzp2yDfoL4etgPXa0h4pHj3UTaGuIf6zY95H1E6f1eTPeGtXh6syvUnNMN7f8wyJOG9+fOBBCiSdVqlRQolKnTg0lfbNmzdq9ezcEOrJkyUIS4xkzZtSqVQsGqSxZsuT169cQ6Hvy5MnatWv37dtXp04dGERpvrRZU1RU1Mcff/z48WOIqZUrV5YpU2bu3LkQq3z++ef//POP4oVYCCUm48xZeLL2Ieu9XLRfoOKJnexWLzgN4YbQl14IVwRErEc4jBReuiHrWihc8o4sa733U5jA5MVvRTVInVvNh+XQvm3qXrBkZfRtH2ya+a0i+Zpo8Q0lteUagmyb7b61ibXBdjFaLb1/UGwW5e5T8QmLkRqaHhiy2tOTN2Ei/eth9GocrE46yTPg0E7Qwq9YtV/MU+1feXMZfRbisy3iDhJ4B5cV+ouaPG4IfmYBbXfDj4PsoBDGWp9ebIawbIu4nbLDRGP3u8LXhx3oewegRh7+lkhrdRPiO0iTfhXsZLMBtW4HcMo26C9EGKM+drSHEvQzJbyJihsltTuZi2spoalUu8R4a9SHK5neSV+lJhlXkEerJryJimFdvE1+HhBCLkCRKvMP4tKzefNmKKl4eXkNGDBgy5YtV69enThxYseOHZ8+fQrjLJasWbNmy5YNAkpx77Ha4sWLM2TIUL9+/S5dumzYsAGGUocPH4aSLX/++SeUOHv27IESValSJSiJyASlS5devXo1xAgluvfIiTcUEXKeOHijqWPJrVsSLpMeeqe2GL0L8Lh2A/T7tqzuI0rskTFjRighhJJO+fLlpUdJT5kypXPnzqysh+Sx0ruRfXx8qlWrVqJECZIVlypVKn/+/Gy4pEmTJsuXL4dA5dWrV4qL3ryxY8f27dsXApU6deqsX78eAkMtWrQgGTgEOvbv33/nzh3Fi6OZMWPG9OnTBwKEEpHxNWeEHMP6qOKNdQi5N+HlwPjyX5cnf9AEQsjt+fn5Qcli4d/GpIe/Lp05c+bQ0NC2bdt+/fXX6rSZMHgXVJYsWQzS5vHjxxukzYS6t/bWrVt7UBcuXIBBVOPGjaGkY8WKFRUqVCCp+IEDB3x9lb8KkmrY+zBwhJwCM2eUAOL/2CqEUNITPsn4QXZlwv3VQud0/HkDoWTFx8d6P8bMmTNjY2Mh0JEmTRooWSwbNmw4cuQIBFoMMudu3bpBSWXnzp29e/eGQEe7du2gREVERNSqVWsS5enpefbsWRhBny42Z86cFCk00pBcuXJt2rSpYcOGLCxXrtyOHTtCQ0NZKMFXOqMkgb21EUIIISTA3toIuYL//vuPv9u5U6dO06dPh0DLuHHj+N7LXbt2DQsLg0DF399fus04bdq0q1evJrnAy5cvc+fOXaNGDTZcrXnz5kuWLIGAGjBgwPvvv89eE01q+9VXX5F6wjiKDOFvhJ46dWpgYCAEojx58ly9ehUC6vz58yTNhoDzxx9/tG3bFgKLpWjRog68QRqheMLMGSGEEEICzJwRchG//vprcHAwBPQZYAbPxI6Ojv7ss88goI4fP16iRAkI5Mhytm7dCgF9JJjiPVhqu3btqlq1KgTU77//HhAQAIGOvHnz8i+UbtSokfr+apJO//DDDxBQs2bNat++PQScW7du5ciRAwKKZOxFihSBAKFEgb21EUIIIYQQciGdOnUqVqwYBBZL586d1W8/lvj4+CgekT1nzhwoqTx//hxK1H///QcllaNHj5LUtEaNGr/99hsMor799lubaTNRunRpKFFkaVDiqF8xNW7cOCjJpU2bFkoizbdSI5Sg8Jqz28BLAQghhBBC74jVq1c3aNAAAoslJCRk1KhREKiQsaNHj4aAunv3bpYsWSDg8A/uJp48eZIuXToIOFeuXKldu7bmLdb79++vUKECBPp69uw5ceJECKhnz56pE+DQ0ND+/ftDQG3fvr169eoQiEjCkilTJgioY8eOffLJJxAglCjwmjNCCCGEEEKu5ZtvvuHfR0UyTIN3Pqnf3rRp0yYoyb148QJK1JQpU6DEuXjxYsuWLVnarLjr+IcffjCTNhOFChWCkkhxSzPD373MrFixAkoc4f303t4QUEWLFoUSQokFM2eEEEIIIYRczqBBg0jGCIHFQrLZS5cuQUC1b9/+448/Pnr0qK+vb9asWWEotWzZMijJNW/eHEpU7969f/311y1bthw/fpws/NatW5GRkV/+v737DZHl2Qv739+vEILXs88SRTnKEBAOCktWMBOMAwr3XDnZq0HFi664oJGFzd0LN4hZuAdBPcJqyAPZZMKKYhbZoD80xDCeBwcRHcQ7D3RlUTz+QebBISQhYsLChTzzV/Wp6u6q7qrq6p6Z3dnd9+vBstN/6n/PVE1V93zqU/P53BzQ+P2n4+Nj+1+Xr/u6r7P/ldzbnitf/dVf/VM/9VP2hTg/P/+bv/kb+8LhLhH/3Oc+9/f+3t+zL4C7wsgZAAAA2DpqVHl5eWlfFMX//b//9wtf+IJ9URT/9b/+11/+5V/+y7/8y9/7vd/76KOPfv7nf97uEH/8x39s//N93/d9n/2vdHJy8slPfvIbv/Ebv/Zrv/Yf/sN/+OlPf/rP//zPza7GvcpqvKoOsy+6fM3XfI39r/TFL37R/uf7gR/4AftfqUqA6/Of//y7d+9+4id+4j//5//cyCxwN4Ij5/npzs7LS35h3KGL5NR++dYkP6gZ2wkAAAAM8i/+xb/48R//cftCfpypup/54uLC/GMeWnRwcOCOiv/2b//W/uf7+q//+l/6pV+yL7o0lnYHn3ods7e392Vf9mX2hQg+JEz5R//oH/3bf/tv7Qvx13/91/Y/nxrh/+RP/uT3f//329fA3WLOOcfy8s20OH41sS8BAACAu/ATP/ETahRqX8jDwNT4Wf3zO7/zO2bL//pf/8v88y//5b80/yjf+Z3faf9rUQPgf/Nv/o19Efcf/+N//Iu/+Av7oij+2T/7Z407jSu/+7u/+3M/93Nf+tKX7OvS5z//efuf+PSnP23/a/mxH/uxb//2b7cviuKbv/mb7X/ANtmikfO9zXR3RrycXy3G50ebHjgz1Q8AAADPJz7xiV/4hV+wL8QP/dAP/bt/9++qn2X6P//n/5h/PvnJT/77f//vX7x48ZnPfOZnfuZnzMagM2FftPyTf/JPfv/3f7/xa8nf8R3fYf/z/bf/9t++7du+TQ3F2z+F9dM//dP/+l//a/P/j//4j7uPCm9T4Xzuc5/b29v7zd/8TZUFuxXYJsw5d9MD52LPf7IgAAAAcBe+6Zu+6Td+4zfsC/FjP/Zj9r+i+Iqv+Ar7X1H8q3/1r/7sz/7sV3/1V9u3GTeose6f/MmfqCN/8Rd/8bOf/eyP/uiPfuELX1BD9Pl8/sUvfvFbvuVb/uqv/soeKv7xP/7H9j/H9fX1d33Xd5n/3WQYf//v/301wv/v4md/9mfTz/T6xCc+8fM///N/9Ed/lJgtB+5XOXLW851GaNaz3uvf0Ku3q9dyo6/h3+7r7PB26e0qnnL36a/pf/anRbE42TVb5FgbfDNtdaiNtLrRubtsdE5AZVrkjHbEHhk4N5ZqOzGFzshOR7k3Jx0AAAB4mr77u7/7137t1+wL39d//dfb/3r6xm/8xs985jM/8iM/cn5+rsbMb968UePnb/3Wb/3oo4/U3sajsBs/T6X89m//tntndezXqr5a2BfAQyYjZzWS258ez261m4OrXT2Eq+hBXbX3dnY83fdGg4V6vfv+tey8OR+rV+WgT4V6VFzIDn2eOtA7T40Ry/POPnP4Tg4pxuc3Zks1TlUBvnkhG1XoZlxZnjY7Vq+rIaaKbveksOffnBfqUHf4qU99+8ruVMk0aRnFI658eL8oxi+e21eKKpE6plmxv3uysHu0jHTYDJkMSEJy0gEAAIAnSw1TzR3ODZ/61Kfsf2v1v//3/7b/iS//8i+3/4mf+Zmf+eQnP1k9yuubv/mbv+EbvsH8DzxWauRsHn81s2M1NYZTI0v5V8wvThZqOFeO5CZnany3uJo7Q+B67+jwQp06fWsGipOz23eH5bdTkyO1Z/He+w26Ks6k45kNZXT4Wv+CnBrD29Mmr9Tra/MrczYTZYR+SoSbTBWQn4eE5fLa/meZErmwMalc6hFvqTsdzt5AYQIAAABBP/iDP/hHf/RH6q99XRS/8Ru/saG7ghsP1v7DP/zD//Jf/stsNvuFX/iF/f39169f2x3iJ3/yJ+1/wOOlRs6tOdXRqH5+n4wbvXt8n7/wh8Djg0m9V061g9kAb0/es6q9lDU4SQlnwo2veaNyYxif5pwcLpFSdzq8bDcLEwAAAIja29v7lV/5lS996Uv/83/+z7/7u7/77u/+brtj3f7f//t/9j/xvd/7vd/zPd/z6U9/+ujo6Ld+67fsVnF+fh57fhjwmHzcnlP16JGgXjFd89cmh9RDwfqG3ozTViGZMGu5S96S8zWSEokZlI74Nw0AAABA05d/+Zd/5Vd+pX2xGf/gH/wD+1/SL/3SL332s5+1L4BH7WNvhrlN5lPLm5xryWXWZs7Vvz9a31xs9m6EZKK8R7hWrxZfkTO4dWeYWwalg8d2AwAAYKvs7+/b/+J+5Vd+5Yd/+IftC+Cx+ziwYnj+tp4mbS02bmmfKiNBeSL1HfwIsrW5Zc/NbxZaJSI5LXWno3Vqaj06AAAAcPc+9alP/Yf/8B/si5bv+Z7v+cM//EP3jmvg0VMj59HkYFxM9+0DoJeXL731xfrRXouTo/qp2Hou2X1YtF7LXZ37ZlqOlmWAWY0h56fdq7Vl0Dn0cVny1K8qE9r81H8GeFxHxM3BsH4wWV0ijZx1p6N8nLainzVWHL8uJ6RXKgAAAABgjY6Pj//0T/90NptdXl7+p//0n9TfX/3VX/2DP/iD//E//sev//qvf9M3fZM9Dnga9K9Smcdp25uZ9U8+eSur9Q8mzfbqW3f1Ae5i7fH5zayw5+pfY6ofHF0HurNfzNwnUAfJc6jtPcLe0DzP5Eyl+7q+I/vNiyopHToilu8A3Mdjy+O0y5uZ9S9MeVnrSsfxTP/wl+ySxex1Wa5YAAAAAMA6fcM3fMM//+f//Id+6IcODw/V38985jP/9J/+06/6qq+yu4Gn5KPb21v77wDz053963qw/FjpbPqD3GHkh6D3hobz7Nkz+x8AAAAA4A7pOWd0kB+j9n+UGQAAAADwVDByzmHuXmboDAAAAABP0WqrtXGHWK0NAAAAAPeCOWcAAAAAAFKYcwYAAD2wBgoA8AQx5wwAAAAAQAojZwAAAAAAUhg5AwAAAACQshUj5/npzs7Ly6V99cgtL1/eSW7XUqiS2NOuX+PSUXUftSqdlrWW290k+/7c0WWV10bW7+7jdQt0XZfx2lt11AMqr7tPal9bncLtLz4AAB6orRg5T47Ox4uTCz7qETe/OFmMDyYj+xKduKy2H60aAADgodiO1dqjycG4mL59En380eG729t3hxl95TuaM1zd5Oz29vZsYl9txvzttDh+nVNs2VZP9iZraA1h3/tl1Xfy6wFNljUu44G11WjVvfP/YN4i1lRe9+SO2+W2XAYPq5IAALgDW3Kf81MaOmMAPcQYv3huXyEPl9V2o1UDAAA8HHrkrL/i1l8t66+Yjcb33fUO/ztovV0dWu82O+Urc+d1zQ3Ij2M02ity+/h1+IoTTGc+XLFAvEQ628NbG+E0I3R3VmWhQ2qWYqncLifuT4ticbIrO6qAg0FadUjNPU2hOC0nAjc3coafvWqTnFLvcwL3TnCT3g5cvbYnBhIvQwx/UasXmhOY3q5DqFPhJcLhJbvjNCc2kzzZ0K6hQE7kfzcwvcHNoxO22R4Ju3GoH6jeo04uD7C70peVF5oTmA0rVhbeiY09NX3y7slCRb8vB9Y5roNVqs3R42OpTHJP8qJQAdj4gxHUqTTqtIb2yDY5PVBb9amxVHutWh/ep7xi0T7Y8gqoQ2seU+9R3Khkh3t0FW/5opUjJz/NRCv62HC9aDYkJZXCnBzag8LRyWHRXClOHgKRxWpMb9ev61SUJ/eoJAAAnpByzll/QL59davdnI+n+9Xnq/4ItTtklzrQ+xBVH/BvXtzUO9WH7O7713L07Ng9WAe0Pz2eyS61T53ofog/fzEuiutlvSFCfcgfFRcmEBWKit8NJZ4PTzwQlUonkcW+SX54q4Sze1KcS/b1Hi9T6iRn583B1VE7LbHSlbWNKmHF2J5vFhV78d2cFyqzVfmqfVUaVWS7utsTFIvT7qsjUBmVPpyYvFKp8cZgut9fHL9qrHYeVFRa3ZDaS9mXy+ui2BvVm+MVKPJaQUv0tPmpU+ymIiM1pKVy0hJqJTm1HypClf7y2itTE7+sBhdhvI149Fp4daZqIqYxmLLQja9uH+qAqg2Hj+9IZVioTO2uVuV4hTrokgrWVuwycPmtum95hRvJQy2vABVztAFGyiRLI0eBa9sTrheRmcL2hWqFGkkiuiiv/lpXZKrGlPCFnltJAAA8LdVqbfUJaT8cR4evj4vF1dx80uuP0OpTU3Y1OuLHM/vhbnbqT3x7vAy2yoPlUThVHKqDoD6Wq0gUmR1bvP9gX0apnkXdmdDPQGqcFMuHJx7Ih/eLejSoDjNhhbcuL99M6+wrXqZMhi/KnaocA52gztJ1NeIbHV6ohNvBrN1XZf2d9L6CEnH6aVYZ1X0nS4rJGTrLhNn5URlQaUhRGU5hNelAPfEKNLJaQVvkND3EqeYGwxXpSeSkKauViJwirFtAKX5ZDS3CVBvp1HgXUEE7bTikK5Uh6TL1KmdNl1Rb+DLwtVp125Mpr4B0A+xRJk1+jnpe267MFIYuVJHTSDL49de4IlM1ZsRyAQAAWqqRszujpyU6XN6u1G16esLLHtyaNXR3rsgba/bIh8cGolM13W/OYAS3LudXi2b2JVPS9ZAZ2WZicsQTrDtaXnwyLDIJD+/Llaykkn/TrNfjdAwoKiMUmCvV0LR1tILIabosFye7GbN3oisnjvxWklOEdTd8mJwiTLeRDoHsSjvtMexppDIgXaZ+5WzskgpeBgHpVv10yiugmSTbAFcuEz9H+twe17YnksLsz7rcRpKWviJTNWZEcgEAANpynhCm156VomuAO+gPcN1LqEUWeWaY1/eGrT0QO1ViU1r2acJbtUa3w+8sprvFVnbpSg9Jr62rVcfLvnyROKWS4tyhsx7IBUeIA4uqv7W0gkxmHseW/aBOdkJWKzG2oAg72ki3ZnY7B95DUplZpmu8pBril0FfT6O8+uldJgnrv7azP+vW00iSV2SqxgAAQF+dI2fVD3Pugeu1NNMlfZvylq5a7/Vpeszn3eM2pMuUDkT1Z8qtzr1r4a3NCR2/+9j97X2f0pVx0rg6tiTr8PqMoeJxdnVAZegsOY4OnLUhRdXNLcy1tIJ+VAdbM53sVUZCLT3meFYsQtfQIlxlkCKa2U13/AemMrNM13VJBUUuA193Qp9MefXQq0y6rfna7vNZl9VI0pJXZKrGAABAX10jZ1kbt4bf0ZVP8EbH3yOjgM6pD7NmtX13bS95gZg7wpp9NGerjCMb+3UXzowopT+TyrDWr3R1kLEubmufBB2SiLNVSVJSDp1lvTw4OXAuZRdVt0bncC2tYBi5Z7GzXj3Nnq073s1qJWJgEcYuq8FF2NlGUrwnHxiSwNgq80GpzC/TwGXjaO2LXlJJ4fcRrdkw2p5ieXXpKJNmobpXW4cB13ZQ52ddW7yRGKlcpa/IVI0BAICeukbO8pFdfiwv9bNA5b/+9NNqFifOk0v19Ijz/b5MG1SrUfXO0Po16SVUHQH9WNQBkw2JQOan9YI90w3Vg47wVjOYmdaPzTXFYwel5mkrdYYb2TXSpSudHuc2VgnSic9NmJ+WVlCOVJy6V1qnOVC8Zuh8cREdOA8pqm6NzuFaWkE+r+pkOFC202YNBZm8vzGlosJyU5toJa3aH1SE/mVVG16EnW3EIbG4N6D6J9vT66Fe8/hBqcy68qz1XFJKo7Yil4FPcucOeXqXVzPaB1tefaTLJHW1BXiZ9a5tV6te0ro+66xoI2lHl8xV8opM1ViXFSoJAIDHqWvkPDp8Jz8uJXdI7V4dzM79L7/z6XVps736jiv9+zn1ArbQVEqotzk5u9E/nWGC2C9mzlrjfPFA1J6DK5tEWdIsy9rCW22W9E+OOLvqPMkNdNUtZqrs6sfBltKlKxMRdq/p+aggb86v6zvo3rwok6KDqjOlyza2UjMZp5dm/dstzfLVXbjFdBqdcR5WVJ0afbi1tIJsusSKMuWyFrZMeLuGQtyjWjUTbSWtsIcUYXyGcngRdrYRh0zjmVhMb11asP5hHENK01k62jx+WCqjZRogCVrxklIatRW7DHztkUnf8mo2kodaXr2kyyR5tbXEr21Pq17S5FKNftaV4o2kHV0yV179ta7IRI11WKWSAAB4lD66vb21/94n+Rp9r+62zE939q8j/U08QdJAYiMQRDQvK2wXWjUerGfPntn/AAB4MnKerb15slatnhrTv0Hp/egmnjqzpJSVg700LitsG1o1AADAw7EVI+f5hXfznn6ZfQssngi5eZBBRg+NywpbiFYNAADwUGzJam0AAPAwsFobAPAEbcdqbQAAAAAAthUjZwAAAAAAUlitfc9Y8wYAAAAAW445ZwAAAAAAUhg5AwAAAACQwsgZAAAAAICUrR05z093dl5e5v3O6fLy5c7O6dy+2gSdGqN3NH0yAgAAAADYPsw5Z5if7k+L49mtdjaxG3NNjs7Hi5OLTY7rAQAAAAAb9ABHzpufYW5YLq+L4vhV3yFzaTQ5GBfTtwydAQAAAOBhYs558xg6AwAAAMBDVo6cZSLXatyV6+5y53r1dnVouVv26Jt61T/1Kc07fBPxODcTR+8L1ofsniyKYrofODB4N7LE6B4nG+oD6pPcs0qNCMtw3Gw0I1PHlLvtntFoTwXA0BkAAAAAHiQZOavh4e5JcX4jN/LenBcnu9VoUO06Ki5kx+3t7FgNIL3B6uJkd/f9a9lZ3QCsxpjlKbNjdYA3SI3Fo/ftT+29xDcHV7v7U7vDMznTJ46L8q7jd4cju0dH+/aVbFQHNJIZpYa4Vay3s2LfGQQbjQglvv5l8vyFCuF6mZMiAAAAAMCWUSPn5eUb/fyrchA6OrxQI8VyhlSNHOvRqX7YVbF4/8G+FMez1jOz6rDkhDKoVDx2nw1qdPhORqu9jM9vqtNfHxeLq3nGQPXD+0V9B7PKaysvIf3LRCadGwcBAAAAAB4GNXLWo8fxi+d2gyLjvPgMqbcn8OAsLyzNnpCKJ7yvl71ROZg1sgaqejJ4uh9apt1PV5kAAAAAAB6sj82Toxcnu3JjruGvlJ7XNwLLHb8DpeKRfffBzm7bu6bzB9BrKhMAAAAAwPb72Mzuju3NxzWzHlk/6qq+Edjc8TtQKp7+M8zrowbPOh1mAJ1zd/QaywQAAAAAsP0+NiuWI0ubl/OrhRrtHq1l9XEinva++dvgE8IGaI3K9crwNnPbdcYS7yFlInPqrVXsAAAAAICHQI2c5YFaU/ex0vNT+/NLMuqsRpPz05VWJifisT95XO6TJ17LfyGSqB6/8TR5dVwsTi7M8SpKJ+g6AeWIuHt0O6RMZLBe3YgtS71zZrcBAAAAAFtAfpVqcnZ7c35t7vXV3ry4sQ+Pnpzd6J94Mpv3i9nsWG8dKh6PveHYxqR/1CmxCHpyJj8FpY/MGn86x+so9Q9JWSp7B1f2zmv5vaz6mdlx/ctEppx5bhgAAAAAPEwf3d7e2n+xIcvLl7sne7PwT149e/bM/gcAAAAA2Eoy54xNkmXgzDgDAAAAwEPFyHnT5hcni3U9ZA0AAAAAcPdYrX3PWK0NAAAAAFuOOWcAAAAAAFIYOQMAAAAAkMJqbQAAEMVdRQAAKMw5AwAAAACQwsgZAAAAAIAURs4AAAAAAKSsMnKen+7svLxc2ld3b3n58s4SsKa47rvIBnMTfhflLnGI3IjkjNO5fYUNaVV+Zk3pBrTx6lnP5bVCS/JymUyNF8mdFM4T8uDeCx5cggEAeJpSI+e6T9zChzw2aHl5dLIYn9/cKu8OR3Yrtg81BQAAgKchNXIeHb7THWLt5nxcFMcz++r29mxij7lPkr476q434lrP5NYDlVXuK5XQh/eLYnwwYSC2fRqVn11Tk7O1v21s4UU4MJcbKBwAAACsGfc5AwAAAACQUo2c66XZfVdi12c2J4Dc5d6xySE5xt0pG8o06Bd6p9wIKNzUVZNOrUCam+SV1YxMvS53m8Cdg+tj/bj2p0WxONmVY07nkjq/2HLmw0w89VFOvK1zY/v0dv26LiDvTOe0ZogVN+hGLiL8zLXikA1+CZkjfV681THNk4PnuqfG8uUF74VSl5W7PbRVh6HCL4OqtjvHthPgRezF3AhOMXvr4JpHW7E8+oIn6LBVqK04K86eVjxuPsvT9DY5Tk50a+pSb/CDkGPkzPo/+0IfGM64nyYrcEC0idWnNzPkBtzc11KnzjlUQnBPlQ1uxhpJrTmRNw5phbFS4bTpoNQxNsQ69XUUSrM8/HjcKPzgFHNqfUIzqFIya3K6e6ZsqA4YEmnz4Fq9J5W1QJBNdfxKIzf69DoiNxrFObGxxxNJkBdtK4D4Xj84xYRYn5CRZQAAni4zclYfnLsnC/m3KKb7yY9yn+q5HhUXegH37exYvajPVB/OuyeFuQPy9ua8UF3c/GBdunP89pUNZjzdD3y2jyYH42JxNa93LOdX1TLSjpSo8Hffv5adesHk/NQ5+ODqqBmbLFedHReFvbtTnTR5pV5O37odlLfTrkWsOh59h6hd+ZpKZHcGdt68MHulEsoS6sqKooIu609yFSzelEAcgRKyB9e8LOmjVauTmJsnt8+VxlqdGs5XPFvq7P1ped/BrNg3BRneKhrNQzqZ9bHJqnLzVXKCk3Tp3qqtPK91Z9SdL3GCiqWMU+LIa1lqn5NPv1C0Vk0dhq/C41fBZci61QYva69+dfhym4jfDhJNTIW7jnckVUrBa2ooP1fFfv1+G7JS4YTVGTLvOCu24zo4lUCd3J2qjTWKvSGatQy9Io3WoJ/zVNYybklJvXvGs9qvNTQTlK6czVUdAABPnoycpYPr8kaBacezsnsxOTofV2cuL99MnX2jwwtnZ0+qd2y7hqPD18d+39xq7jBd9tc69oyUHM/qrudyeV2PeVUHvavzJLysK50DZ9W72Z+qfJWhpxKZlYFy7+RMdeBsQeRkZXLmdA8lG4v3H+zLHIOKq5klP9kd5hf6C4eL8tRwnPFs6Rtzq7GcOszUfHir5TYPG33ZINNVFcxXfbKkS7+2x5vvf0w6e5dr8gT3CspsWXZflc9moYSEr8LwwDl6WTuXrtK8sjI4F4N7csZl5HGCyW+cUX6rVYWpgkzZQOE4F42ycjuudksC9euygcgXidfLWHFFspalV6SRGmzkPHiJuiWVEH+bMWJZ7d8anASlK2ejVQcAwFO36n3O4xfP7X+W/diVJwe5+0ajvaGfyXujqtcggmM7/Zlf9w+ckVB3Sry+vd7rTlDkkUHP9I09KT1w1t/ye8NmJZXInhl4/qLsvw3LSr9KGhSH9P8bLUeS7fXvwnTZtlpEDpstHc+0taoivNXwSjcQvVSHDDmy8pVIu1Oxvcs1dYLXFp1IEi0rlJUMchWeXJhiNMO82MA577Lur5VoW/Hdl5Enck0NpL/X8DOsg0xYf+H4b0grt+NU20gX1wpZ6xVppAbDVeGeGX/rzuA1qEhW+7YGL0Hpytls1QEA8NTJyFnGfa54dzeT9A30ELGm70rcJHforPuFNg+9U2JmAOwZ2SMXd714euBcjI+PVWl73ZNUIgcVpem/5WVlXt3ztpNeNBg0rLiURq9S+u2ZUl2/SiRbo8N3N3pyTZZJV0Pl8NaIZvR+t3eFfLl6l2uvE6T1dbasZsc/g0xamZnLjoFzTONLqAtVdyu/HSmrvyNFB9kZ9LB9HdZaOHfSjreJ1KBUhb3QjQHverUh756rt4Z05TzCqgMAYDuYOWc7cDDqtVvDyYf1uLrXquTMsq6fDJ1lPOoMnAelRA1CNDMQybzrqx46dwyci+LF0TsVtHvbWyqRg4qy6jt1ZKV1s6P/DUqeIcXVGojIyCZT56RIOluqtZdbnUoIbw1pRu93hFfIV0Pvcs0/QQZNnS1ryFixGjoPHDjb4lQZkNGI1OLKb0fK6u9IA75HqPiD0hWss3Duqh1vDalBqYrqraEypBiHvnuu3hrSlfMIqw4AgO1Qrda2AwdlHf1U6Rx0DnA06dG6hn8hrzvtus/uDpx7pKRF7hDLHj6UQ+fLroGzZm4+O6ke45RKZHcG3CSGlutFs2IOPj9aR433KC5TVH6WdLXnLJOUXmdHJHnZMnd2Nks2vLUiA0M/eumYSntbJV9x/Zqh0jrBS5K+OuwoMNGy5LKMlkKKHTpfDh04y9XrDGzW8nak9Hwf8MpbKtFcU8Per+QsN0hpov2trXDuoR13WeMngYjUYKsqBhv87rlSa0hXzv1UHQAAT8Wq9znHyLNHpu7jeOen4TWkug9X3RopT86S/4YwQ+dTb+DcIyWankaoDnUGGQ3SDXduHdPMQ2BOTjIGzsrk7EYebGoiSyWyOwMqmPK1WcBpH43WmRXpwlX9LHnat/k3VzyOUAlVpH/nZEkFo6q9evJRii3l6jsHLwVWIltu0Zmer+5Oh7cGmeZaP7laQi+7zyvkyxctV70jtJw8eoKob+GWBwhVyU20LPP0qXpfs83FmTNPdDscMHCW073FtNG158km1tJ9GXnca+rUrcRh71d+sxlwpRnJwlGJyb9h4m7acS/DSjYqVoO6DN2c+9dOQKxch797rtQa0pVzP1UHAMATsamRs+odnN3enF/Xvbw3L9xHYjlkisx2B/WvZegJs4F0j2Q6VR0Fr8uenRJldPhuVpSHxldDysykXTRZd7p09EpmN8U+zdZ2clKJ7MrA8ezm4Kq1gDMnKzJ+L7vi+8Wsb9nH4wiXUEmvcJCfSzHMr6hkTqCp0pAfT7GnXh3UDwguxbOl9pRFZWKVggxvDZPK0L/gY0imq8NXyZcrXXeBcX3yhPH5TbmzkbtEy1IhOoWoSzFRKB7pvOtY+8/GKfLNhUp/JfpLOekm1tZ1GblUkYWuKW3Y+5XXavNPa+gunOAXfSF30o77WeMnQaoGJXN7Vc7lJ5k68xYq1+Hvniu1hnTl3E/VAQDwNHykel/2X6xMJkq8bvamLfUPg+7dZYy4T7qFXSdH9g29T1gDaZTeCD1fIL33kYXtlCwc3go2g3LVnj17Zv8DAOAJ29yc8xMkq2QHLVEFMui11tk/NntvzHr3gTdWtpZgy0pbbtMUqcLR92l4vzyOtaBcAQBAiZHz2ni3kAJrJ534rb9j0bnVfgBZJF4vIm4uI37a4oVjvlPhvWfdKFcAAFBjtTYAAIhitTYAAApzzgAAAAAApDByBgAAAAAg5VGt1mZFGQAAAABg7ZhzBgAAAAAghZEzAAAAAAApjJwBAAAAAEjZkpHz/HRnZ+d0bl8BAAAAALA1mHMGAAAAACBlK5+tvbx8uXuyN7s9m9gNmXi2NgAAAABg7ZhzBgAAAAAgpRw5y43GlnO/8fLypd2oONv14eqls9u/STl2nhaKSo6XF3rv7smiKKb7csTLy7ne9/JyaY4U9eEAAAAAAGyWjJzVaHV/ejy7NWbFvhmUqs1HxUW59ViNZb3xqxra7r5/LTtvzsfqVTmUTZ0Xiao2OZPgisIe9O5wMjkYF4ureR31cn61KI5f9VzLDQAAAADAAGrkvLx8M1Xj1OqmYjV2Nf+rf94djmSbenGkhrOL9x/sS218fmNPGh1eqL3Tt2YUHD8vGlXS6PD1sTt0ZuAMAAAAALg7H5tx6PjFc7sh7XpZz/yODybl8FiNbkd7/l6f2dMrKtfklRo6n1yYgTkDZwAAAADAHbL3Oe+N6kGwS991bMnNx2n1lHTivFhUSXrobOe0GTgDAAAAAO6SHTmHZov1Y7ice5Ll5uM0M53ccV58YjqlGjozcAYAAAAA3KmPzTpr/wZmYZZWnx9Fx6jeOfO3UzudnDgvFlUOO3S+ZOAMAAAAALhTH6sxqX6G17R+yPX8VH4Dyh/mzk/bq7Xrx2nLk7/saDl1XiSqJgmifN5YyZx7okJzB87m56+aD+gGAAAAAGBd9Grt0eE787NSxn4xk0djT86crWrj7NicUhqf38wKs3v3pDi/KZ+nnTovElXT5Ex+zEofUo+sR/rXqXS08WlwAAAAAADW7aPb21v7bx/6Z5mv68Hy3VhevvSG6C3Pnj2z/wEAAAAAsCb2CWEPgbmB2v0pLAAAAAAANu7hjJznF/oW59d3OssNAAAAAMDA1drbidXaAAAAAIC1e0CrtQEAAAAAuAeMnAEAAAAASHlUq7UBAMDd4A4pAMCTwpwzAAAAAAApjJwBAAAAAEhh5AwAAAAAQMoqI+f56c7Oy8ulfXX3lpcv7ywBdxlXN13yO6dz+2p97iWXEmmZmU3lzCVxiB4ReY29d8v38rhFdEbuIlkbrdatKNzeTeKubEfT28g7S99A061wUzXYSqVsEHrr4EsjXrHxPQAAYCWpkXP9Cd/CxzIeqPnp/rQ4nt1qZxO78WlaXr5RRfHqoRfC6PD1cTF9s4FBzz2RwZRvE0M63Ifl5dHJYnx+o99/3h2O7FYAAPAQpEbOo8N3Mr5Qbs7HRTnc0LZiyCHpu6PORyOue55hmpzl10GfpN5liYbl5GylKZXl8lq15Ac/WlyH5fxKdeGP1l8U7Qrq02AHmLw6LhZX80gj34IpuP5JsGOr0gMbY7Xyu5F3lr6BbrgVGl1Z//B+UYwPJlWi7yRRAABgLbjPGXiS9MC52Bs9qBFZTHroDAAAAKysGjnLV+Wi7+xMfWZzarPeE5/2lGPcnd539vqF3lmvX3RTV02ntgJpbpJXVjMy9brcbQJ3Dq6P9ePanxbF4mRXjjmdS+r8YovM9OrN6kA5QZhj6hj9c5yUeBHI9vK1fqFPqwN19zSSanY4x/pRusmOhyuctPmJdsXiifJy5p1vNuoNuyeLopjuy9ZIoG689TGNk4PnOtlqZDiXG3csgHgsrRyL8FY/HD87sTMqMnD2Jt+jNZrIUSsB+th2Bclh7qleAXh7dADqdX1AVr6evxgHh87h5NgdJScGidaNsZly9zzDS18g2dEkDOOVnFsEipu4xi5nX3NPzTnfO8iNs5n8Vpzh/Oqt3qnued4eHZl+XR8QTbAfqJNKL6aKHOAGVkcROsFNYfMs9bqOrjpZ70lkXc5w3o8l0ESi/O2Kk8PGnqA6pDKFEoCf11b8FTch/jkAADxVZuSsPj3lA1+oT/2cj2VD9QGOigtZUDg7Vi/qM9Xn7u5JYdcc3pwXqrOQH6xLdzPevrLBjKf7gQ/x0eSg0XGWcYFdFNeREhX+7vvXslMvmpufOgcfXB01Y5PFd7Pjej3l2UTPeBXTt06Y87dTb0meS5XvmxdyqsqO6UOV8XtFqJJdFq1EGMy5FS6jQFLVVt1VsseWSYhWTDhcpauUlD7xBKkA9qflLQKzYl+frdc2qrCqWwcCazV1vPV56uiqwhsnt8/tU+RhKgQnbpvohngsoRzHtko4kXYdO8Mlq0ZfPLevojXql+bsWLXeqkzUvvoce1JGBfkJbwaqqdfBd5V4vkajPdVa33+wLyvB5Og8DWqZbu1KqPrCqnOowgkkO6dEcsWbjp+4RunoAg1exq5Y4cabWTjOlS5RSxVed4J9Ge9IPq8yD6529ZC24qcwt4V2ZL35ftxeo52KVu2rc6iKuv7EDlKn2o8Zk0IJJ/JB2b57RSdkpTdvAAAeJRk5y6enyxsFph3Pyu7B5Ej1GcozzcOHqn2jwwtnZ0+qn2H7GPIsoNDUUnOH6Q+81rFnpOR4Vvdh9H2w1ZhXdXUC/b42L+tKauDsFJmkWrpZNn4Zgl8vTS5UN6yOXGIIjAxKGWVU0v23Kr8mCWWUbZFwc0qpVzwhemxX9elUaVSBJc0v5AE8Tsz5Ta9XkQfYtlbFHU50PJZwjsNbU+06o+Tkfm9HpEYbpTk5Ux3/shGYfRdlVnIvlkbCG4Ea9W7v0krkS08657avoS1TLuvyxvDQdRZJ9hB67FipRk/xppNuejlvD/2bWV5zb8u4RHMS7On7vu2nXZ0gI95Sqtkba6zqWv7VpopaD8FTnBTW4TRLMzJw1gUy6BIBAOBxW/U+Z3fWStjPV90N8/bJpNCwD9/mvZjB0Yx/p6PTC+xOiddx0HvLb+jzyXf51eN90wPnVpE5ZNFpfLAWL7+sMoqKHx0Jd1gp9UyVLoxpnwUQmi77Rqqlwod2bfs0WbPQIVG9UTaWcI7DW1PtOrfknHIK16iMr73SrFtooKRzhApJAnUGJq0yTJbPOvRrmRGxZA+hBlB2xk9JDQNNHB1NL3IZe3o3s6HNPecSzUmwJ9x+48L5slLN3lhnVVdS0Yb3JXifak7y5YPy5MIUdWzgHNJZBQAAPH4ycpZxnyvzszROPue9aZMdbzHcBrhDZ903s3nonRLzbb49I7sj5i6DSw+c+5jXd5p1rM3rR6/FKw2rl7xSWi0eOxGkevNaj+FSs1vb0cf0rFzkzT5/UCSWcI6DW5PtekjJBWtUjy/KYAy/UAaMm0SjkNxRS8rgFtEyqGX6gw49abmey7yXRAPNanpR/ZuZNjDOVS7RsH7v25KvqK5mvyGpaGXfauzgXhY2mW8pkgPn1T8kAAB4dMycs+00GfXi4eGkK+xNm4iuJXQrkX6tfC/uDJwHpUR1wjTTEcvsn9dD5zUNnHXHxbsXcNWuZUl1vf27TO32vrpKaR3xqIapzzU9+uyvMZqzI7m9zrUUeefkUzqWcI7bW7vadVbJNdLarlEZ0FRJrVTvD0PnoRoRp8cxnmEtwje0ZZpk2qGNhLDRN7S2jga68rxn/2Y2NM6hl2hSj/ft9Hc1Xc1+Q1LRrv7VQvUlRzV0Tgyc1/UhAQDA41Kt1radJmUt/QP9QZ/VrW51YYb3oXSPQHcI3IFzj5S0yO1h2V3Dcuh8uaaBsyyF3MCv7erSsbeAr0WslNYZj7kRMqsWpVvop0YGPLGZFcfKRS5tuSuVebGEc+xuzWvX0ZJLDB2cGpWjIleA9OVzr46auU78BOlrvt8108qXvG3kTYCmWmbq7UjXnDuIvONhc7LpZDW9XJnNbGicK1yiWbLet1v5klZhpZr9BqWibe2TxpDghSMXWDXNb4fOlzqEyMB5zR8SAAA8Eqve5xwjDxWZuo93nZ+G19Dpj/FqCaQ6aIWFYWbofKo+9Z3+QH5KND2rUx0q/Ydgb1z6Xc6NmZp5+MrJyXrWcPrdUv3g2IFfKDST6g14VHaHlHdOKa0cj1tNZsxgu35SNNH7lk17qh+tK0WXNR5evcjNw4LqthZqaYlYwjmOlEOiXUdLzuUPHWI1qnPklqZzoG3v1T5nT7KCZOjsJNy0jZxueiJfMvQKZVNpJifZMhNvRzrDdjVwxSn+lHaJ6NLqu+A81UBzml5SpHBTb5/xONMtYPglGlU3PiX+vl3zW2GrFcSbfZd01tNS0fqF1v3upFpqWZ/z08YFZiruRIUQ+bZiHR8SAAA8QpsaOatP57Pbm/Pr+qatNy8iaxtlisAugdS/o6EnDAaSofPUGzgr2SlRRofvZkV5qCyMDE7By6yM7UXXHSodvbKe7+onZzf691gkITv7xWxosTSTqnNYDQB2rw5mqhPVV04prRyPKoCDKztO8ZfGOi0mMDqQ6tY/c2NI8vKmB1cvcpVpJwgdRjvmeCzhHEfLIdqu4yXn8Hv40RpVO25ne1Vpyg+olZWtElBXsa7j8qnA6QqSIPUP7hhmVWjwMmtI5Cs5a91ITrplJt6O9IjMnXSWegxkMCBdIgFVsVryLhNvOnlNL6V/M0vFualLNEbXacb7tsNLu27V6pXdpai90WbfoXdVO1LReldb5welaqdVfbbLQ7430AdFvq3QxbnqhwQAAI/QR6oDaP/FymSOKqPXBty/R9RadVauw98QrM1S/57unldcgU3AAyAtN/KdWi/Pnj2z/wEA8ARsbs75CZJVguu6Ww/YLLNmc9i60u0ik8FruEUiqbUMd3l5FF/vCmwvsxx/01cMAACPDnPOa7O2r/GBO6LnaouHPmd6hzO/Mk1v/1fGXO14gNa42oQ5ZwDAk8LIGQAA9MbIGQDwpLBaGwAAAACAFEbOAAAAAACksFp7G7EEDgAAAAC2B3POAAAAAACkMHIGAAAAACCFkTMAAAAAACmMnAEAAAAASHk4I+f56c7Oy8ulfbW8fLnTcDq3++6Ln0L9ylfvAwAAAAA8HA96zvl4dluZHU/3t25wOj6/scm7vb05L052t2B8DwAAAADo59Gs1p6cqbHpeHGyu61D09HhOzW8L6b7TD0DAAAAwINSjpzdtcXu2NNfFe3skR3uIFA2lAfoF2pnebbZ7ITljx5jkfc0Onx9XBTTt90hDEmJc87gqe3J0fm4WFzNGToDAAAAwMMhI2c1XtyfVkufZ8W+HTSq7bsnRbXiWBZE5w8aFye7u+9fy5lnEx1YHdbNwdWRDUcPSOvIe0bRNHmVM3QekBK1zykJ56SeRpMDhs4AAAAA8LCokfPy8s20OJ7p0a2YnMlIt9z+7nBktqsds+Newz4n0GK5vC7GBxMT1ujwnQ12fnGyGJ/flMf1jmKAASkx+y7KkqhPAgAAAAA8eh8Xy/nVohi/eG43VELbn7/oM2N6/KoaN6vR5mhPz0I35pP1KLbYGzmjUIni/Qf7ahP6p2T+dtrYBwAAAAB4Mux9zrFhYWO7HnQONTnTD8hSQ1b3RuEP7xdFoR+KXdk9UVtWEvgWwDcoJZ2h9sAgHAAAAAAeEDtyvl6G55Eb22Vidjg1ZNXMsFXupdbzut6PSxn1Iu9+sieH+6dkPfPgsQl+AAAAAMDW+tjMIwfGheZhVv52PTFrbxFuTT/LpG0WuYXYDMollNiwvS+5MXt8fpQ/7M5MiYyq15FKfb90cfyae6QBAAAA4AH5WA0f9U8lTcvnaavh3alZwixDZ2f78vLl/rQe9+nnWC9OLsxeeTq3/BehH1xdx1BPDevIFyfOk6q9A3uQ54C7j/HSW0K/HzUgJfJzV86+QWnUJ+nyc56aFkkhAAAAAGCb6NXao8N3N+fj6h7f/cI+T1ttNz/OZJifZarHfTJha/e+eXGjlz7HqbBmRRWD/u0nG5BEsmfuOdb0D1nlLtZ2b0vev9a/GdV65HV76faglMit0fbOaLXn6qB6BndSdYaye7Kn14K3zuOmZwAAAADYbh+pwZz995FZ6p9gVoPV3GH43Yun8NmzZ/Y/AAAAAMB9e7QjZ71+vNjmcXMqhYycAQAAAGB72GdrPzb6YWG9nhV257Y/hQAAAAAA8XhXaz9kzDkDAAAAwPZ4pHPOAAAAAACsCSNnAAAAAABSWK0NAMBjw10/AACsF3POAAAAAACkMHIGAAAAACCFkTMAAAAAACmPaeQ8P93ZeXm5tK+wquXly52d07l95YrvedAkW3fQglZuqF0Jza+fu8oyNmSFS1E3w+rUZDjeTu80rI7PLQAAHgrmnAEAAAAASGHkfC9WmCnCxowO393evjsc2Zdx9119fkJXSc36QtpmXG4hk7Pb29uziX2VbeBpAAAADx0jZwAAAAAAUj4O3LXm33clB1iNaRt3l3ujlt6uDrW7M27h6ghIpoxaO7X6xHQsdQiNA92Y3dzZmJvhR1PiRBCPwUSgN+yeLIpiui9b68Njgejt6nW5201nmBuQe7gNyElTIyznxO5Y3Lw1jnYy7ReHE4G33RVLfaAsRXhrI5xmCt2dVUp0SE6yggnRx/SrPq1OYzrb7l45x0m2HGBeVwmNp0arY23kvpYZUqkOMXaE5pRELEF+kvR29brebU6rw2nEFS9qJ4a6qDZ2uUls/gF6Ux2ak5xmQO4uN3q9vS4Ld09KHZpzhmTBDUE2lOnwXjSVuVcah7TC0BHU0ftHO8GUYjGWbJDlmdXhbnm1isWPx43CL07FnFqf0AyqYs8MHynhNeOpDhgSqZMFN1zFzVwzDXUsgSABAMB6fTx5daw6lW/dLsDbaTE+mOgFnPoje396PLsVs2PV+Sw/n/Wut6/Mjtub8/HiZNf7vFeHvnlxo3d2LH/NCOiouJC9s2Nvp+oxVIm7Obja3Z/aHU3z092T4lwSow88crIQyZ2os2CSpXonu+9f24PdlKiEOBGcF+pQu09F4cRQ7OvNerWjCrAo7HZbPvFAhIqvjLxjpaQKqCwwnVCVDS9XOiO2vFUq3J0qsXUKVGJlvBGniicYTqJCIxXhiqc+VJaxrY3i1CG5tevlNJKSWEIGVJ/al9FQR5ODcbG4mpcpUdfheDy+XlYp+/B+UYxfPLevjEhqtFj9RCRCshIV63lCl9u9v3sa9eGmqLrquotKXl04ne8Euq5i7wROMKqkpA5yFno3i98vymZ9eXXZKGmR3bRa1JmRT59OvSJVr8udUoaRzLUbah1LVksBAACr+LiYHKlupdP5c7p+84uTxfj8puzqTM5U76fs2usbJKs+0OjwteoXOZ18ZXx+kfVR3hnQ8azsE3hJXV6+map99lQViupxyL8ty+V1mSM5sOw7J3JnVDGbZOl+nz1aesw2mTYhZSJHhxd1KvVg5/hVFUO815gKxKry2kFFUwZji2zx/oN9qdV5lmxVWTblUVaaCkX6unGxcOIVGqkITzz14bIMb20Up97j1K6f00hKuorRk6q+7IZqhs5lJKqwxgcHe3WLdC7MLLH6GSxesZ4ndbnd97unVWclUK69remdYDm/UtXxugymUVIdvOJvFKVfX+lr3chrWiFOyfbLQM9I3TKMZy7QUHu2FAAAsIKP1aex7rBP39jv6N05E9UFLvZGzsfy8xep8YO3p08fv8kPqDHLVvY4WjNwo9Ge/a9B71i0JmK6c9eK2eEcG06ISaU+zJ1AiEoFYlQjggG8TpqXZ8VmI1weCZFwQuyucEV0sqkPl2Vwq/TZG9UnNSbdad3EW6nP4RWjJ1V9PRqqXIm2W/zhfXEwOXx1XBZr34Fzn/oZLBRmuJYf6+W2Fe+eXmLT0WTY5DtBLi9HgQtW6ksulfS1bmQ2rYDWmfH3gKZekXoV7jTGzoa6yucsAADoST8hzF0m6vbP9ae27ojW/FV7egldKbpSOseQgKR7l8nMmqjevI6g7NF35S6XJMSGbdV5sDOMNpp4jz4ZSH/z6v66/ExJeaxJrEKDFdESSX24LOMl3OjPS5ezkurWVrKLMVV9fRqqXImmW6wuRJ0B1cU2Q2kdzP33krOu1Kd1ud37u2dQ/gCvbV3vBI0vFS5U9od//de8YP3BfPJaf5hkYL3OhgoAAFYmz9auO39u1890Tqp7yypmUVnr3jI5ZYCBAfXsHKnevA1d9UOkS53MXQ+SkHGV/lK1eFAvzFRMjz42WuwKpAfdI/duCUxOF9X8rugK0hXarghPOvXhsoyUcGPw4I9gO6fFehVjqvp6NVR9sFyIKrUyVtCXps6Inlm774Fzjyv16Vxuporu7d0zpjkN3Mfa3glkCF6O++Ri6l3dleYF6w/vk9f6w2Qu/3U2VAAAsCrzq1Rl5+/S7fqZj+3I5IXuJNb3sK1gcEC6f+d1pySkDnILnMlTKne9tBISZO5Qix6XF0gGs3jx/Kh3F7VVHhJSf3kV6lSEKy/14bJ0tpr27O/XXW3TtmVk0FHzPYsxVX29Gqq+A1JdiPP5VWGuQ1UtelSmUn/vA+f+V+rjv9y0e3z3tLxopKGbGVpJg8sfb0as853A/epg8LA5cFuwjI1lBjt9rW+MvIk4VhysexmQsMx3H2ttqAAAYEX295zNk11OTtyun+qxHOmHgjrPHdYTcWaeUDoOZWdGbe5cQzbXK18Dc0C9AypJj2laPks5cWadaEX6rKZTkshdL1J2VUI0lVeT0+ofxYzF7JpD6Zy6D3pJBBKmExtakCohV30t/Zjj3E6vDNqq8uhzpideobGKcCRSHy7LSAn7jaNMhx2r2MZe1Xyo3tPF2Kv6shuqkFp4//b9oiwbVZ6Lq6M30/g0Yis1gyVDyrxSY7X8OC83YRvUPbx7Wov6tvL5ad3Qy2v6wiRbBdIZkVjTO4EuAG+5upuFjhz5/ATZJJXfayWv9Y0xsdql6CrKgWVUUQVlc7C8PHIy17eh9ipXAADQjx05m86J4nc49NLH2V59m5X+4Qwzc6D2yE9rmM1XB7Nz1RfsFOj8DwtIU2feVF0znbLIilodQ1F24Nw1g/Hc9TQ5U3Ff133ENy9uzHq6yZn+ESKzUVZnVsvsZDbOpN12c6KBJJQjA5eKs+6w7hez/JWgKgV1VeifOsk/1RGv0GhFOOKpD5dlrISlbvWv0zi76ui8nOpE1o/tLaWLsVf1qbRkNVRDX4jT6bSqWt1FXyySt4i2UzNUKqR4xXqitSxV8uguN+O+3j2N8flNlfHGdeVkvMclvZ53Avnywp10ljDdbx+iOWqS2tI/yGRIJqvqknKOXuubIqsabBl1XtSdVH7Kq8ZvuYMaKgAA2IyPVIfG/CczEl6va53kW/m9TYX+BOnqunZ7WAA2pety492zJVBk9SY+D+7Cs2fP7H8AAGAdqjlnc+vd4EefdtAPVs39PWJ00z/zyQ95Anei83Lj3bNNL0mXB6eVZCG5Wc/O5wEAAHiA7JyzTAF4i8TWSYd+dcD86NrouZuCCRvgLnRdbrx7RkjBOPf/2kl5Pg/uCHPOAACsV71aGwAAPA6MnAEAWK9qtTYAAAAAAAhg5AwAAAAAQAqrtQEAeMBYmA0AwB1gzhkAAAAAgBRGzgAAAAAApKwycp6f7uy8vKx/r3M9lpcvd3ZO5/bVU7cFpeFWsyRn/XW+ATrVXsHJBpEqzrvIYF5K7kN+a2sV75O2/e9Z93vhrqd87jcPd+xJZRYAgIciNXKWD+8w+sx4UOan+1P9c7La/f4M9vakBAAAAECu1Mh5dPhO+vfKzfm4KLv72qPr8q9nVmQId0p360mTeHc4si/DtiJHkzO3mS6X16r9vuputVkZXEV2SrabX7xDbLKVbLYF3t97RbZWEjferl0bKv7V87DJmltzpu+0wgAAQB7ucwYAAAAAIKUaOddLs/t+J1+f2fzKvd6T/jreOS4QeSwUvV2/1l/2G4046h3+Lr1dxWN3v7z8/9Q/uyeLopju2y36WBt8K211qI205qezPFHO2J8WxeJk19vRFo213tHIv5Mcb7vLTXIicoeOrg6uFUdWjpwkV7v1iX4hNRPtZrQRqpuN8jTZJsfpE53qfXl5qUPyg6izVf9nX6gD6/AbiXLTZDRT7WmlpDzWC8cNwhZLmYBGvi337MYR7q5E2pvh1vvCMbrFa1/o0COn1cVn0yAb2q1En67+s6HIofK/G5je4GbECdtsj4TdONQPVO9RJ5cHuLuadPzt94qSTbrSDKPekwrfOco7qJVLRyvkcBL1Vu9U9zxvjy0N54BYWppJUWRv9A0gEqTipqa5r+LlQb9QR9bJ8VPjBGjC0xvCxaL226Nlm/zvpkFv8AK3Rwt9YCLT7qFeILaUy+S78Rl+rE447UMBAMAdMSNn9fktnQqhehb5H86qr3BUXMgK7tmxeuH1GXZPivMb2XdzXqhORTBYibs8blbs1wnROkLRXZU3L+y5Ov6yr6F7JG9fyXZZa+4lTVGZtOe9O/y+M385er1GTp21+/61bJwd2y6XPU2dMN33ejZd6bTJcU6UFXkq4GJsT4wsf1URt09WEpmcnzrJObg6qhJaU0kuq85mr85OlkAc3TlSad6fluv+VXU7paQLKViZklHnrGNVIO6+OhmhvOqFxU71vjs8fKUSOH3rVM/87bQYH0yCSyNVXOEWrsqvSpOEr/OcXF/ZSok+1s+b2h9oO2UjbLePRMnoXbFLwE17sxpirS1NV17wtH6tREVeXZedK1VDVR8J27s+GwUlkqVca1Shm8pouSXqyKUOc46qqyT11hKqx0QSS36KmoEqfWrTk67alconQB0ZvDZDRRkvFhVKfpsLFXkk0zmlnNPmoi0DAADcMRk5L+dX7mhV9SXcYUXa8azsbkyOVL+kPHN5+UY/B6ncNzq8cHa65hcni/H5RRnGmfRAShmhOPGfqVMXV3Ppc+nOTNUbGR2+VoFeL93eWB1niuoK2VAkd/q1jW40ORgXi/cfZGd3OuuAJDFlMvPETo5nUt9NWw0F1WFlylyqrOvNkr0yO3ly4mj78H5R3+arklClX4tUpmkjZRmE9lV1mZUOr6UqqYFztIXLSedHoXrpo5E3FVKojXul5EiVTKJ1mOZa7fSrYWBTjZzWt5XkXZciv+ob12ejoKx4KeeJlVuqjlzhKyP11pKux7iMNrem2nStWj4hkWsz+SbT1qPN9SjyjFLObHM9swMAADZl1fucxy+e2/8s2znXH/bevtForzl41eSBSXsjp9/y/IUaoVrdoXjPWtKnxkd/3p74QMnjpcznJqU7nc2Aeg1Se5xsd+n4F86kbaZ2/SQMi0PX0TSyqiFSmeE2Yvbp8WuqlsLka4/pG5vy9MA51sLXI5B+aTtuB9srFk+qZEJseeovylrZqvRoba7IaT1bSeZ1qeVXfSjDUlDu+CxeypkiBZBdR3pz+8pIvLV01GNUTptbT216Vi2fgNi1GS7KmB5trkeRr3Zle/plBwAAbIyMnGUg4Vq5FyndIdXFkhuzDH0fWJvuGEZlh+KqBjZ6sVyp+7RVDErnesQyOZHJe5umaEd3Xt895y+Sz5IXR8Po8J1eM6k6glpXZ1AqU9qIPcHwEztg8GBWDJiBU3rgHDV5pfN+YTIgU1EDAhHN9OuOcp6ukklcAs1xzMYMaiW5elR9I8MyirkLXXVUCV4ZnW8tA+txaJtbf21ml08P/d5k+sov8uFXtmez2QEAANnMnLP9aDaOZ6svB5N+6bi6rbDUXtyX7Etkh+Iy/ZrWfY1m52YMSucapDOpOrl2q+rotrtbrbvwhnTqOuIIU62tjLHrNlqpTGkjVUIrVSPNm5/y1UPngQNnM6Ype7NSDUPru5n+5LdJnmTJpFvHWmfOOwxqJVl6VH0jw6b67kBX63W1r4zOt5aB9Ti8za27NvuUTw893mT6yi/yFUq5YYPZAQAA2arV2vajWVl52Kzp/lBOt1Z6hm5XxLvnujuU1qnma35ZKnf8etND11JubtcrL5Ny32C7t2cKq7xPd0WRONLMfX9usUUqs9VGHNLv7hmxKIfOl0MHzip97ohm4LBZz1w30i9jurxVH6mSibcOOevum+uQViLV63DHu/lVb+raz7AexAxdJNBLqo4i3Csj8dYytB5Xa3OlQdd8wIDy6aH9JtMp1eZ6FPl6SrlhQHYAAMD6rHqfc4w8BGbqPgV0fhpc3WcWvZbPaNWPbnW+lu8OZVHfdKefyFIOFbxetTyaVP6Lky6R//SWHrJzGyBd48wH4vjimdTzyVViZAjVWmHo9wEb5Z4jHkcqR265OINjI1KZ8vSfuo0oddzmYUP1Pi9VSfbMk4GrrPXpKr0y41yqItapyFxW6bd/WxPZ32gkSiZxCZinKdXNNb+x9ubVR3YrqciYt7whXYXlttJE1TfDNsHUGTbFkfzSSYcWqcKe7xWJOnJFrozUW0u8HtNJHNzmvJSH31e0rKqtZJZPD9E3mayaS7W5RJG3Mr3ale2IZgcAANyxTY2cVcfh7Pbm/Lq+f+3Ni/ByVnWc/KJIeZC/rLQrlOPZzcGVOVeWHtsJ89HhuzrQ3auDmervpMkUill7W3VTesjNbZtMI9ik9usvxjOp9xRlYtxycUzObvSPw9hjiplX7BnicaRypGIt66u9xDlSmRLX7WzP5lTRv+VS7vTajy6G+mm2HWRWKDIv200PHNxJZylNt+lk9m+l5ejfqzEk4/kT2PGSibcO2edUvq79/Bj7GdZKau5ROm96uWolWvWtsKWY9M8dGWYVe3c7iVRhz/eKeB25oldG4q0lXo/pJA5tc/Ha9PR8S8srnx7ibzJZNZdsc9Eib2d6tSu7lnzPBAAAd+gj1ee3/z40Mh2wF+m84WG5l8qc259mHRBpIL3OJh3wNT3ch4wqxEPy7Nkz+x8AANiYzc05A9tNlpsOvO2wte5zeXmk15fr0PSDtnv8RCy2D1UIAACABkbOeJrMD0kNfkSarBSuFm3aZZQyBa1v0R64AhzbgSoEAABA0wNerQ0AAFitDQDAHWDOGQAAAACAFEbOAAAAAACkPM7V2ixdAwAAAACsC3POAAAAAACkMHIGAAAAACCFkTMAAAAAACl3M3Ken+7svLxc2lcNeufO6dy+AgAAAABgqzDnDAAAAABAioycl5cv73HWd3J2e3t7NrGvAAAAAADYKsw5AwAAAACQ8rG+y3j3ZFEU0/0drb4dWWaircZNyu6uxmR14ixnn7vHm/HWL/ROuflZxIO3uEUaAAAAALBBH+u10jfn46I4nt1q7w5Hersaue6eFOc3su3mvDjZrUaoatdRcSE7bm9nx2rIXY2D1bi2Puv25uDqqB4hL052y9Nmx+pFfMCrdu68fSVHqpTFglcxm0Sz0BsAAAAAsEHh1drLyzdTNSq1o+hidHihxtbTt2asq8ba5Q714kjtWbz/IC/mFyeL8flFuXN0+K4+UI9yy1dyUhlcwPj8xg6HR4evj4vF1VBsz64AABtqSURBVFyGzsv51aI4fp0ZCAAAAAAA6xAeOX94vyjGL57bV8potFcU18t6ibXP7Jm/nRbF3qgeK3u88LR4cM0wypE5AAAAAAB3LjhyXi6vzZrp2r4aFNfqu5DNPdK11vh4jUaTg3ExfWPXbusJ7uL4FUu1AQAAAAAbFRw5ywzzuLxduWIWW+tndO1P7V3R9h7p2kanh/VUeDWilzRwjzMAAAAAYMPCq7Wfv6hvXm6Qm43H50eBIas+K7EGe2V6NXg1YlcYNgMAAAAANk9GzjLH7D5sSx7MNd13Hn89P7W/JCXHVqPq+amzWts8zuukep62np1e509G6WeC2d/OKrmP3VYv+YEqAAAAAMC6mTnnyZn8upQzFp2c3d6cX9fD1DcvbuyTsSdn8lNRZvN+MZNfh7LUWfKLU2bn7tVB+YzstTDP1nYmnTt+3QoAAAAAgNV9pAag9t9tNz/d2b8+LwfwIrBJPHv2zP4HAAAAAMBqwvc5byW5+dr+tLOYn+5Pi/HBpDFsBgAAAABgjR7QnLOyvHzp/QpW7OnazDkDAAAAANblYY2cczFyBgAAAACsywNarQ0AAAAAwD1g5AwAAAAAQMrjXK0NAAA2jXujAABPB3POAAAAAACkMHIGAAAAACCFkTMAAAAAACmrjJznpzs7Ly+X9tXdW16+vLMErCmu+y4ym5HTuXmhk1O92BCJQ/SIqJXKuyw0L3Ksx11erI57ivbOtPInG0Qy13dw5Wem5B5Iyu71Ar//zwHt/ssBAIAHJjVyrrs+LXzcIsv8dH9aHM9utbOJ3QhgE5aXRyeL8fmNvtzeHY7s1vuwPSkBAABYk9TIeXT4Tvd7tJvzcVEOgLStGARJ+u6oV9aIazvmDFY2Oeuuy5UmJpbLa9VuXt1xa9mS2nkkjWQ9ci7W1efAWkV+l+8R96GRvw/vF8X4YNKd3ZwrfyXZKXmQtuTS7nfB8H4EAMCquM8ZAAAAAICUauRcL83uO+lTn9n8QrveE/+yW45xd3rfo+sXeqf+utxwU1d9id4KpLlJXlnNyNTrcrcJ3Dm4PtaPa39aFIuTXTnmdC6p84st/f1+HUPjGCfqRoh1CTRicjjHJCJ3SHR1cK049Ibdk0VRTPdlayRQN976mMbJwXPj+c3jnG/Clw1+7aitkkA3eL3BTZATTiAVbiqbZ+nXdf7Lk8PJaHELzj3CjdDbIztaCXdjVTvLs81mJyz3xHjkHn2Q2mmPrQJwAm2E6gVrmAP09vpQ5ygTt97QbmrBHPlxlGHKMe0i96NV3HO9PTYu5wCvVJwse+FFORFVAbXjaIblJs+L30tBfZo+Xl408396qTf4wcsxEmr9n33hp8qP2Y3YaiTN00pJeaybNz9leo86zB7gJ7rknt2I3t3VONlNezPc+rR4dpzzzenN3JlzZasbvmxwg60jC2Uvljm9Xb2uU1GdrPdkvDcb4USX4uUQSxYAAE+UGTmrD1b5EBbqkzj/Q1J9Eh8VF7KCe3asXtRnqg/d3ZPC3Oh2e3NeqI/sYZ+9+sP+7SsbzHi6H+gijCYH42JxNXc6LvOrarVgR0pU+LvvX8tOvXxxfuocfHB11IxN1kfOjovC3sSnTpq8Ui+nb50w52+n0bWK0SJT6Sx3SAx1VlX97E/LxfKzYj9QkLpvZEtJysmrixyhOPSaTnehfmDZq463Ps8t3sbJ7XPj+c0UqKpA7diD46T1l+GonNeXgtbdegKtMycZKmCn4Opa9SLUoagLMr9g8lqzX2sdUaidb15IEKYOEyXi5knqXue/VfP9mlojRzrpoYaeU+TxxmqFa1PpeldoCmXR0nHY8lTpVa+qSFK1ovY5rSKQhGb+zw7Db4qReyeiOfci1uFLDaUuq1ZK9LGdRd9qZq5EyehdsTe+VKGpIIL59azpHca/Lg6udvUgtpLInFCvAx8YGe/NtUSio+XQlSwAAJ4gGTlLj8rljQLTjmflR/bkSH2Ol2cuL9/oJ0OV+0aHF87OntSnvf2gHx2+PvY7g1Zzh+kjvtaxZ6TkeFZ3JPSdudWYV3U4kh2Skpd1JTVwjhaZ7gvVscmuxfsP8kLfNFj1eNVhgc6a7htVm6U4iutln35ORhwB8wt5DpATc35Fx/ObZ1BVtZksXJRVciY9zFJ368lonSE24KrgyhJvRKh3qPTkhqpltOZGrXVFUZeOkioRaffnR13F0bepuTnSuRja0DMaa6Q2eze1ZBadNwC35FO14jfSrCT4OVBSA+d4zut3UqX5Rpcto+j9ZuZJlUyiPSQLLZJfz5reYfxrXYUjI95SKnNG7ANjLWLl0J0sAACenlXvcx6/eG7/s2yvRR4Q4+4bjfb6juVKeyO/vxIcX+l53/qD3em4dqfE60zqve48UB6Z9J6+sSelB86xIguxu56/UKH3WQog+o1DB8Whc9qoHyneoZ27Xg1kWFU16d6xnwVdEqXu1pPVOltkQNJqCeHtOj35fdaM1hzOcjThflNew5Xds6lFB3ulzIae01gjtdm7qaWy6OWnLvlUrQSSnkPeFE8uTCLSA+dYztcjp+jj75g922u5J11oOfntXe1h4UvG6s5c622i18XWJVIOfcscAIAnQUbOMu5zdfZVu8jnrupz2FukNG+B2ga4Q2fdZ7J56J0SM+loz8juM7nrxXXs8W5g0ry+r8xdM2ynKVRXXIuNOPTyulL/0s6LI6DZsdM9rFyR/GYaVlUNulsbtdl2HOvVN7a7/ey+gkUkWbYVbeQXfrJE/JGanmkLXgeDm5q1QkMf2lj7NrV+WZShUFettAZQGZz7SDoGzjGN7wQvVJIGfjoMf5/oKplEexhSaI61vMPIJRO1ysW4QVuaLAAA7peZc/YWkB3POpdPdpLO/ri8wawycLVbHum2y3fizsB5UEpUf0kzfabMjn09dB46cPbvKzP3sNVUFZVbgzfleTefmnvaeuuKI6w5DyF9rgzp/GYaUlW+ZAd+s+04NnfU2J7ueXdqF5FkuSr4StZVnywRk1Lb35bmGCupYU1NW62hD22sSt+m1iOL8lVJV60Mmu+rhs4DB862hOzY0VyvAz8dhhd9smTS7WFQoXlWf4dJf/O1ysW4QVuaLAAA7le1Wtv289b14ag/eLN6La1uRY++bIPuJepOojtw7pGSFrm1K3tpXDl0vhw6cJZ1uuVNojHm/sB2fnSe69sRVxOLI0A65n4Jyegpo4uel99MHVUl3UCHOxaVBuieKQkrDW89aRJrIGDTivzt+oqwLWqFq8UpolaW+0iUiC45d1Dd/QVDj6ZmrdDQV2isjn7vCqEsthqbmRhN1Yo04EE1ZofOlzqeIQNneTN1BlDDPh1WK/pUySTaw/BCC+io9uSF2bpkJNHWShfj5mxpsgAAuF+r3uccI08bmbqPlJ2fhpe76U5VtcJTHbTCalgd1PTtqe7r1T2y/JRoeiK0OlQ6OMEltdIXatx6ah6wcnIycKm2dFWq/pV+qGvV9XIT7HS1XV4vUWWidylG45B0ufcjekzt1Y+slXRnjYcT+c0Tr6pW7XhLTtV5Xlx+FhoJ6dd6fKFGUjHP+qkDLoM1Sa23m7qsH9HU62qJFZGO3K01/8C0RInoXeXsZCkQ6sCmZqQberLIhzfWWDnKjlAeo1nUVBGVO83qZ1u5iVqx7y3Vvh71ZRraiY5nwMBZTvcW7bqrllU2MxcxD3+f0BIlk2gPKxSa4Z2QfodJXpj+Ne0nMpm5Lu0LRp8buzsgfXE0rZAsAAAerU2NnNUn79ntzfl13ed68yKydFO+zbedM/2zJPq7/YF092U69QbOSnZKlNHhu1lRHhpfmygTSXaQUPcmdPTKwKnfydlN3UndL2Z1Oag9B1d2QBJZA6vTXY1adq8OZqq73Es8Dqd+Ap1kKVz9CzOGFFn3XKMWz2+eeFW1a8fdon/iyFsarrJQl12rBfZpPb5wIymp5Dv51wVggtWLP+QnYAyzErVuhL2ulmgRSSR7Va1JmWTPJsZLRI8u3ElnyWCr0QxtakJnKd7Q00VuUj6gsUbLUbS/x0pkUTmeVTv9sFK14jVSnfHqqcddZNymV9gPWt4h436VyIrzw0hG8KvFlqFFb8RLJtkehheaiFd7oJ2lLkwVUH2tt95/UtXeIXzBBBqk1nFxNK2QLAAAHquPVF/I/ouVyVxDo18NPA1LPZm/57X+wKZHRV/w1/G7uVvupTwk0uD3bd0CGaw3PfbafYD6Nsh1ePbsmf0PAIDHbnNzzk+QLOgbtCYSePBaa0eXl0dDFwk/CPrp4fEfId4WZrX4kBtIlNYK3/npfnk7il5q7v3UNu7Zw2iQAAA8XMw5r80qUzvAoyCrLuz/yvgxXw46r0W/Gdd7mKWVGlllHYyk2bn134alN18d8G63RQY0yHVgzhkA8HQwcgYAAEMwcgYAPB2s1gYAAAAAIIWRMwAAAAAAKazWvjcscgMAAACAB4E5ZwAAAAAAUhg5AwAAAACQwsgZAAAAAIAURs7G8vLlzs7p3L7qMD/d2Xl5ubSvAAAAAACPGiNnAAAAAABSGDl36jUdDQAAAAB4bBg5AwAAAACQUo6c9a27JXd+VSZcK84e2eHe7OtNzeoXamd5ttnshOXfJRyLPH6GwzmmlUB9Uh24F7R3YmNPTZ+8e7Ioium+HOilog6gmTg3TdGEAwAAAAAeBBk5q/Hh/vR4dmvMin07klTbd0+K85tyx7EaP+YPBBcnu7vvX8uZZxMdWB3WzcHVkQ1HDzLryL0oIme4VAqPigs5Qp+sBrhe+lQSdt6+kp0352N3p4q2DlzlWIbHbZMzObMobALfHY7sHhV0GfPsWL2oB99eqd2cFyoN0ZE5AAAAAGDrqZHz8vLNVI0M9ehWqNGi/G+314PFyZkamy6u5u0BbIQTaLFcXhfjg4kJa3T4zgY7vzhZjM9vyuPcKCJneFRanfQdqTHu4v0H+1Krgx4dvnYSb6K9sKeqUFS0PdUlI/FO35rRcaPURocXzk4AAAAAwMPzcbGcXy2K8YvndkMltP35CzU0zR46H7+qxs1qCDna0/O0jSlrPTou9kbOkFiikNFv+IxO10vneC9oxY6rw9H20ioxG++H941S09nwEwUAAAAAeEjsfc7NEWapsV1GgQOZiV29ftq5+VePM8t7iA1n2XTwjBZ9K7IVWXLdJtFuhIzJbZKt/andBwAAAAB4iOzIOTYn2tgu48Lh1FBYM8NhufdXpnqrO6wr7spxzTnD498kbe5IztF7hjmbfLcwrm4NL4VWmgMAAAAAHoSPzVjPvztYjCYHzbuGzVJkc+txa/o5fx5XbmY2g/LMpczOGS6zoPz8yFkUnqcVrYS0FvVqcwAAAADAo/CxGpbKA67K52nL8mdZGi1DZ2f78vLl/rQ4fl0+F+uVngi+MHvVOelFyXp2uI7hrTrWLATXkS9OnMdmVwfGznD4g379KO7swbskvow2fabEkv2ML3kSmVNqUjZ979UGAAAAAGwPvVp7dPhOfrOpvC+3sE+GVttv5WeiDPNTS/XTsmUi2O598+JGL6mOU2HNiioGvcC6eua1imSvvjFY/5CV7Iqe4ZicOQlX6U4mwSP3UJf3I3ek3slozhBYBX1zfl2mXEJnsTYAAAAAPFwf3d7e2n9xt549e2b/AwAAAABsMfuEMAAAAAAAEMTIGQAAAACAFEbOAAAAAACkMHIGAAAAACCFkTMAAAAAACk8WxsAgIeNH2sAAGDTmHMGAAAAACCFkTMAAAAAACmMnAEAAAAASLnvkfPy8uXOzsvLpX25MfPTO4nGd1eZC5PYT+f21UbdYVT93U3itqYI7iQh+nJafxw61O1qRsm3DUmuGJLme3lH6hXrVl/VygZKcI1Zltax/tLb9koBAOBRY84ZQC/LyzfT4vjVxL58muan+6oQZrfa2YCimBydjxcnF4yBAAAAHoj7HjmPDt/d3r47HNmXcQ/gu/ZWErMztw5rnIHpCOqOq2Jban4DU1yZtqztL+dXi/H50foHzpOz7lHo/dWCb7m8Llb79mA0ORgX07fbUq0P4A323vVpfDmNGQAAPCzMOQPoQQ+ci73R3Xwf9Jht2dAZAAAASXbkLBMOJW/iQX/Nbjnbw1sb4TRnMNyd1Tf3ja/xgwnRx+yeLIpiui/b6+ODQVp1GtPTBDl5iYdtTwonUW/1TnXP8/boyPTr+oBYWppJUWTv/rQoFie7cox3biRIP4PlvnRQsXyWolF5GW/uqzlHmYPC0clhbih6Q7M0rUBkbr6bZ+nXdSrKk7tKxdE+2ap3NErNSY633dCnBQvczUU8PSbWerebCvckvV29rgMNJMWQgbM72WqLrTy1CjUWVSPphhwg26tDnaNMYmRDuBY6smV3B8uumdE6qGgR6EOcOqmPc5Phna4jVK/LeG0SR6M9FUbm0NkN2w1ab1fh1VlqJrt/hhoH1gG4Rau5aWruc7iHGSYCvb1dO27lNEOtQwrlJTM5fgzBI9vxyDmhxhdLrmx3D9Ih1eE2Y02k3YmheRYAALhbt7e3s+NifH6j79czL4rq5c35uCjv5dN7zL/hrY1Tmy/lJPeV/V8fVW5W/8dO9yM1vCNkf32A7LOvzC43sJoXrDopmJdE2O5J7STqI6tYG6H4L82r6rW8rM50g1F7QvloxKUlg9SHey8a+/ygfBKSl890VGZveUIjrpoXrDqq/LcdnQThbvES7MUuh7pHe9H7KTOvqtdeOIoXSUvyZP2qSoE5snzphqr2BCOQM6rzNXVWfaSXJfdgP6ZAxPVZ8qp+LS+9GCt6l5dKE6x/eCIq2RWOR3bZV240ansVYyv6VFzmVeME7wj/ZLPPvjK7mrGV3LSKRkj+yzIs9wRFNofD9+jjIiE3s+jmQFkhQ9Xx7un1uX4yvEL1tFJQH9VIuqY2NfY3XsbykpucYKCNUOoNgYO9UNWGZFBlespww+WQSrt3qOxyDvX9HQAA2DA95zw5c27G1Q+uKRbvP8iLD++d6SV1mLltK7zVPDZo5oR0pj7oF1dz+c5+fnGyGJ9flDtHh+8C9//GExLQiG90eKGOtxM4dp+9y0xFVvZcWrLykgjbOamDKYGb6lgvUKPePTp8XZedvqVyfDAp0xIquahIkD3LOkssqkbGvWbhCldFb35LU+GU3U0tVbFGtMByxE7WN7xX2ZFdxfVSdg2s24zaW16+3D1ZqD52GXF3PdQFI0EGZ0Pl/t4A54pIRmWmrF93xZNfLt3Zct53dLGs422jrZEMP2DLKyNNJp0zrrt4+7EiNbdKhqxYk+4udmP+dqrCsDfFhy4pr3YSDTudl9zkNKo/fKRTmrFwrF7vokOK0uyLvJsBAIA7FrnP2fbLnr9QvbD95hqx4FbpEY9fPLcvhT7QdAF0/2nQvZF+B9GlB1pefNINNceH94WEc5gIO5TPHIESaC3WbBaQ7YXp4xYnu6H1iZ0iQQbFyzpLJCoZann7pFm00xGuir7C0ZVSjcboU2AtPU62u1apW59Xe6oc/WFzTj20WnW0QTTzqQYbzvLt/CqPyy6XjGyVA3CxnreNlpzL2yujVXmlGau5FTJUala1jXcNVWz4tROSk5fc5KQ/pSyvnnpnK3rRDCnK8D4AAHBP7MjZuctK7nez7Df7qh+ulWOa8Fat0Tfw+2mt7l1IJCFt0qco7zkz9F1o9b48wbykwhbNPlCmZgnk9oLMVINN0BoGWVZ2Wa9E93jL8jUikcWbVR8SXUxnxW6OezukG+fguk3W3vGxnpryOvHZ9bC6VFTmsVhvbEb1lFp4RJlbLj2ztaa3jaChl3eWWPtJWTVDCdnFPnmla9H++JbM+HaNlcMNO52XXq0g+SkVFB8Nr+FdNJV22QcAALaFGjnrPtn+tLp1ylsEJ+OZcut0v+rBhrc2exh+b6fzm/t0QhqkvzOubhUrydq5fjMr7bykwhapnlRCswR69IvUQEIzg4kVp2W1XmW9Ehk/VBFV6slQR6RZ9ZEcrnRW7Iao3vXuSVHF21hx2b9uu2vv1Zna6AXXpx66dLT/ZFTS6Muxq2QiloSscumZrfW9bbStcHl3SLefqFUzlJBd7OYzwA4MJROpqy3esNN56dUKkp9SQbFvStfyLppKu+wDAADb4mO7gK3r51nNbXvNvqGzVeaSGvt119HMMEgPoKO/nZeQig6ymZ5Sa58spkxzc5gIW3pwsXgT9NxLowSky9ZvCafcAzd04O7oWdarkALrl+JwY6s1+5Nu37cVnWS1lGo0myOtr7q3Nya/brNqz95ou18OOQfUQ0h6BGOkotJl4Q4TYkPcWrpc+mZr3W8b1rDLWw7pXouT134CVshQh9xi103V/aIi/SVVqmEn85KbnPSnlOWFI3sjNbSed9FU2lv7vHczAABwxz42H85VZ2J+6iw5m5/W6yRNL0F3IcJb7TLMqqOuv4/fV51k098zj0Q5OarOu3zZWo+bSIgie927BiVIJz43YX5aTEqCYnlJhG0ewVPvc2JtJtFjli1WJWAymNPt8spKuovBKRDpWcafZeNLl3VHUOl8tugCczMerHy3HL2qCEXnrfhVoXmp98u5kbVUxXbpVcAefWbV//VaY17dNksgXXuV0eE7NeasJu8z66FLawQTkIhK7/KWpgbXYsfLpVULPbO1lreNgEGXt8xKVzWuEx68TSHefjr0ydBmrmpd3OUCg1Igh1aqYafzktsK/FDKcPxvJVR6yyY5P/X2Nhpf5nXYJZX25LuZHDj8xhYAANDXx+rDWS/sLDuz+8WsXguo9hxc2V5PvdAuvFV3kt7dzo6rXrFZXlhNKcl9i1UfavfqoHqWaCWeEE2mnszecihwdntzfl33wt+8qFYCqrTUYe2+fx1bSBfLS3bYktD6pGYSXRJkUfUiZZVfeWaKHgAVVWzR5a0yx2gLuLsvlSzrrqDS+WyRhrFXd591fbSzEK2KQHRuAlu167U0VW/+4tZExXboV8AuXYNVilTTn1XJzazbZgmkrxSHnFj2vPPqoUvWCCselXwp4k46S8k0yzNeLu1a6JutNbxthAy4vEOz0qH5TV0a4fbTpU+GNnJVy9ce7qSzJCcafqphp/OSmRxzXPRTSlOprd6JGpdks/FlX4dpqbSn380AAMCd+kh1Zuy/ANBpfpoY5HfQ517797oGNj0NS71aYq8ux0dYEM0sKoFNWItnz57Z/wAAwGZEfpUKAIL06tIe63o9rcXWsh62+6eJHiEz+17NOOvnTvu/bfwItBYoLC+PTiJPUwcAANhyzDkD6ElPjxYD5w1l0tG5W3Pg7PVD15hhXqVEt5vOmXNL8vgpLi+4E8w5AwCwaYycAQB42Bg5AwCwaazWBgAAAAAghZEzAAAAAABxRfH/A3nW8zMrtGK3AAAAAElFTkSuQmCC&quot; width=&quot;1299&quot; height=&quot;583&quot; alt=&quot;§ Exercise: University database. Draw the ERD.&#xa;•The university is organized into departments. Each department is identified by a unique name (dept name), &#xa;located in a particular building, and has a budget.&#xa;•Each department has a list of courses it offers. Each course has associated a course ID, title, dept name, and &#xa;credits, and may also have associated prerequisites. &#xa;•Instructors are identified by their ID. Each instructor has a name, associated department, and salary.&#xa;•Students are identified by their unique ID. Each student has a name, an associated major department (dept &#xa;name), an associated advisor (an instructor) and total credits (total credit hours the student earned thus far).&#xa;•The university keeps a list of classrooms, specifying the building, room number, and room capacity.&#xa;•The university maintains a list of all classes (sections) taught. Each section is identified by a course ID, sec ID, &#xa;year, and semester, and has associated with it a semester, year, building, room number.&#xa;•The department has a list specifying, for each instructor, the sections the instructor is teaching.&#xa;•The university has a list of all student course registrations, specifying, for each student, the courses and the &#xa;associated sections that the student has taken (registered for), and the grade obtained.&#xa;Ink Drawings&#xa;￼￼￼&#xa;￼￼￼&#xa;￼￼&#xa;￼￼￼￼￼&#xa;￼&#xa;￼￼￼&#xa;&quot;&gt;&lt;/div&gt;&#xa;&#xa;&lt;/div&gt;&#xa;&#xa;&lt;/div&gt;" style="text;whiteSpace=wrap;html=1;" vertex="1" parent="1">
          <mxGeometry x="440" y="-760" width="550" height="710" as="geometry" />
        </mxCell>
      </root>
    </mxGraphModel>
  </diagram>
</mxfile>
